<svg width="64" height="64" viewBox="0 0 64 64" fill="none" xmlns="http://www.w3.org/2000/svg">
<g clip-path="url(#clip0_59_1461)">
<path d="M47.75 23.1406V21.1719C48.5703 21.1719 49.2676 20.8848 49.8418 20.3105C50.416 19.7363 50.7031 19.0391 50.7031 18.2188C50.7031 17.3984 50.416 16.7012 49.8418 16.127C49.2676 15.5527 48.5703 15.2656 47.75 15.2656H45.7812C45.4941 15.2656 45.2583 15.1733 45.0737 14.9888C44.8892 14.8042 44.7969 14.5684 44.7969 14.2812C44.7969 13.9941 44.8892 13.7583 45.0737 13.5737C45.2583 13.3892 45.4941 13.2969 45.7812 13.2969H48.7344V14.2812H50.7031V11.3281H47.75V9.35938H45.7812V11.3281C44.9609 11.3281 44.2637 11.6152 43.6895 12.1895C43.1152 12.7637 42.8281 13.4609 42.8281 14.2812C42.8281 15.1016 43.1152 15.7988 43.6895 16.373C44.2637 16.9473 44.9609 17.2344 45.7812 17.2344H47.75C48.0371 17.2344 48.2729 17.3267 48.4575 17.5112C48.6421 17.6958 48.7344 17.9316 48.7344 18.2188C48.7344 18.5059 48.6421 18.7417 48.4575 18.9263C48.2729 19.1108 48.0371 19.2031 47.75 19.2031H44.7969V18.2188H42.8281V21.1719H45.7812V23.1406H47.75ZM57.5938 16.25C57.5938 13.2559 56.5376 10.7026 54.4253 8.59033C52.313 6.47803 49.7598 5.42188 46.7656 5.42188C43.7715 5.42188 41.2183 6.47803 39.106 8.59033C36.9937 10.7026 35.9375 13.2559 35.9375 16.25C35.9375 19.2441 36.9937 21.7974 39.106 23.9097C41.2183 26.022 43.7715 27.0781 46.7656 27.0781C49.7598 27.0781 52.313 26.022 54.4253 23.9097C56.5376 21.7974 57.5938 19.2441 57.5938 16.25ZM37.9062 16.25C37.9062 13.7891 38.7676 11.6973 40.4902 9.97461C42.2129 8.25195 44.3047 7.39062 46.7656 7.39062C49.2266 7.39062 51.3184 8.25195 53.041 9.97461C54.7637 11.6973 55.625 13.7891 55.625 16.25C55.625 18.7109 54.7637 20.8027 53.041 22.5254C51.3184 24.248 49.2266 25.1094 46.7656 25.1094C44.3047 25.1094 42.2129 24.248 40.4902 22.5254C38.7676 20.8027 37.9062 18.7109 37.9062 16.25ZM61.5312 16.25C61.5312 14.1992 61.1416 12.292 60.3623 10.5283C59.583 8.72363 58.5269 7.15479 57.1938 5.82178C55.8608 4.48877 54.292 3.43262 52.4873 2.65332C50.7236 1.87402 48.8164 1.48438 46.7656 1.48438C44.7148 1.48438 42.8076 1.87402 41.0439 2.65332C39.2393 3.43262 37.6704 4.48877 36.3374 5.82178C35.0044 7.15479 33.9482 8.72363 33.1689 10.5283C32.3896 12.292 32 14.1992 32 16.25C32 19.3672 32.8818 22.1768 34.6455 24.6787C36.4092 27.1807 38.6855 28.9648 41.4746 30.0312L39.4443 32H31.5693L24.6787 39.875H12.8662L0.746094 52.9795L2.22266 54.333L13.7275 41.8438H25.54L32.4307 33.9688H40.3057L43.5664 30.6465C44.0176 30.7695 44.479 30.8516 44.9507 30.8926C45.4224 30.9336 45.9043 30.9746 46.3965 31.0156L41.4131 35.9375H32.4922L26.5859 43.8125H14.835L0.5 60.1777V62.5156H57.5938V26.2783C58.8242 24.9658 59.7881 23.4482 60.4854 21.7256C61.1826 20.0029 61.5312 18.1777 61.5312 16.25ZM33.9688 16.25C33.9688 14.4863 34.2969 12.8252 34.9531 11.2666C35.6504 9.70801 36.5732 8.35449 37.7217 7.20605C38.8701 6.05762 40.2236 5.13477 41.7822 4.4375C43.3408 3.78125 45.002 3.45312 46.7656 3.45312C48.5293 3.45312 50.1904 3.78125 51.749 4.4375C53.3076 5.13477 54.6611 6.05762 55.8096 7.20605C56.958 8.35449 57.8809 9.70801 58.5781 11.2666C59.2344 12.8252 59.5625 14.4863 59.5625 16.25C59.5625 18.0137 59.2344 19.6748 58.5781 21.2334C57.8809 22.792 56.958 24.1455 55.8096 25.2939C54.6611 26.4424 53.3076 27.3652 51.749 28.0625C50.1904 28.7188 48.5293 29.0469 46.7656 29.0469C45.002 29.0469 43.3408 28.7188 41.7822 28.0625C40.2236 27.3652 38.8701 26.4424 37.7217 25.2939C36.5732 24.1455 35.6504 22.792 34.9531 21.2334C34.2969 19.6748 33.9688 18.0137 33.9688 16.25ZM49.7188 30.708V60.5469H45.7812V34.3994L49.4111 30.7695C49.4521 30.7695 49.5034 30.7593 49.5649 30.7388C49.6265 30.7183 49.6777 30.708 49.7188 30.708ZM42.2744 37.9062L43.8125 36.3682V60.5469H39.875V37.9062H42.2744ZM14.2812 60.5469H10.3438V51.9336L14.2812 47.4424V60.5469ZM16.25 45.7812H20.1875V60.5469H16.25V45.7812ZM22.1562 45.7812H26.0938V60.5469H22.1562V45.7812ZM28.0625 45.1045L32 39.875V60.5469H28.0625V45.1045ZM33.9688 37.9062H37.9062V60.5469H33.9688V37.9062ZM8.375 54.1484V60.5469H2.77637L8.375 54.1484ZM51.6875 60.5469V30.1543C52.3848 29.9082 53.0718 29.6006 53.7485 29.2314C54.4253 28.8623 55.0508 28.4727 55.625 28.0625V60.5469H51.6875ZM6.40625 37.9062H8.375V33.9688H10.3438V22.1562H8.375V18.2188H6.40625V22.1562H4.4375V33.9688H6.40625V37.9062ZM6.40625 24.125H8.375V32H6.40625V24.125ZM14.2812 32.9844H16.25V29.0469H18.2188V19.2031H16.25V15.2656H14.2812V19.2031H12.3125V29.0469H14.2812V32.9844ZM14.2812 21.1719H16.25V27.0781H14.2812V21.1719ZM22.1562 26.0938H24.125V22.1562H26.0938V14.2812H24.125V10.3438H22.1562V14.2812H20.1875V22.1562H22.1562V26.0938ZM22.1562 16.25H24.125V20.1875H22.1562V16.25Z" fill="#70A8FF"/>
</g>
<defs>
<clipPath id="clip0_59_1461">
<rect width="63" height="63" fill="white" transform="matrix(1 0 0 -1 0.5 63.5)"/>
</clipPath>
</defs>
</svg>
