<svg width="96" height="64" viewBox="0 0 96 64" fill="none" xmlns="http://www.w3.org/2000/svg">
<g clip-path="url(#clip0_59_1434)">
<path d="M62.5811 18.4648C62.417 18.3828 62.2427 18.3213 62.0581 18.2803C61.8735 18.2393 61.6787 18.2188 61.4736 18.2188C61.3096 18.2188 61.1353 18.229 60.9507 18.2495C60.7661 18.27 60.6123 18.3213 60.4893 18.4033V5.42188C60.4893 4.60156 60.2021 3.9043 59.6279 3.33008C59.0537 2.75586 58.3564 2.46875 57.5361 2.46875H35.8799C35.0596 2.46875 34.3623 2.75586 33.7881 3.33008C33.2139 3.9043 32.9268 4.60156 32.9268 5.42188V24.4326C32.5986 24.5146 32.291 24.6377 32.0039 24.8018C31.7168 24.9658 31.4707 25.1709 31.2656 25.417L25.9131 30.708C25.667 30.9951 25.4619 31.313 25.2979 31.6616C25.1338 32.0103 25.0518 32.3896 25.0518 32.7998V41.167C25.0518 41.208 25.0518 41.2285 25.0518 41.2285C25.0518 41.6387 24.9697 42.0181 24.8057 42.3667C24.6416 42.7153 24.4365 43.0127 24.1904 43.2588L16.5 51.0107L17.8535 52.3643L25.6055 44.6738C26.0156 44.2227 26.354 43.6997 26.6206 43.105C26.8872 42.5103 27.0205 41.8848 27.0205 41.2285C27.0205 41.2285 27.0205 41.208 27.0205 41.167V32.7998C27.0205 32.6768 27.0513 32.5537 27.1128 32.4307C27.1743 32.3076 27.2461 32.2051 27.3281 32.123L32.6191 26.7705C32.7832 26.6064 32.978 26.4834 33.2036 26.4014C33.4292 26.3193 33.665 26.2783 33.9111 26.2783C34.4033 26.2783 34.8237 26.4526 35.1724 26.8013C35.521 27.1499 35.6953 27.5703 35.6953 28.0625C35.6953 28.3086 35.6543 28.5444 35.5723 28.77C35.4902 28.9956 35.3672 29.1904 35.2031 29.3545L31.8193 32.6768C31.5732 32.9639 31.3682 33.2817 31.2041 33.6304C31.04 33.979 30.958 34.3584 30.958 34.7686V38.3369L32.3115 39.6289C33.0908 40.4492 33.7163 41.3926 34.188 42.459C34.6597 43.5254 34.8955 44.6738 34.8955 45.9043V48.7344C34.8955 49.5547 35.1826 50.252 35.7568 50.8262C36.3311 51.4004 37.0283 51.6875 37.8486 51.6875H40.3711L39.2637 52.7949C39.0176 53.041 38.7202 53.2461 38.3716 53.4102C38.0229 53.5742 37.6436 53.6562 37.2334 53.6562C37.2334 53.6562 37.2129 53.6562 37.1719 53.6562H35.5723C35.5312 53.6562 35.5107 53.6562 35.5107 53.6562C34.8545 53.6562 34.229 53.7896 33.6343 54.0562C33.0396 54.3228 32.5166 54.6611 32.0654 55.0713L26.3438 60.8545L27.6973 62.208L33.4805 56.4863C33.7266 56.2402 34.0239 56.0352 34.3726 55.8711C34.7212 55.707 35.1006 55.625 35.5107 55.625C35.5107 55.625 35.5312 55.625 35.5723 55.625H37.1719C37.2129 55.625 37.2334 55.625 37.2334 55.625C37.8896 55.625 38.5151 55.4917 39.1099 55.2251C39.7046 54.9585 40.2275 54.6201 40.6787 54.21L43.2012 51.6875H57.5361C58.3564 51.6875 59.0537 51.4004 59.6279 50.8262C60.2021 50.252 60.4893 49.5547 60.4893 48.7344V43.9971C60.6943 43.915 60.8892 43.8125 61.0737 43.6895C61.2583 43.5664 61.4326 43.4229 61.5967 43.2588L63.5654 41.29C63.8115 41.0439 64.0166 40.7466 64.1807 40.3979C64.3447 40.0493 64.4268 39.6699 64.4268 39.2598V38.8906C64.4268 38.2754 64.2729 37.7422 63.9653 37.291C63.6577 36.8398 63.2578 36.4912 62.7656 36.2451L63.5654 35.3838C63.8115 35.1377 64.0166 34.8403 64.1807 34.4917C64.3447 34.1431 64.4268 33.7637 64.4268 33.3535V32.9844C64.4268 32.3691 64.2729 31.8359 63.9653 31.3848C63.6577 30.9336 63.2578 30.585 62.7656 30.3389L63.5654 29.4775C63.8115 29.2314 64.0166 28.9341 64.1807 28.5854C64.3447 28.2368 64.4268 27.8574 64.4268 27.4473V27.0781C64.4268 26.4629 64.2729 25.9297 63.9653 25.4785C63.6577 25.0273 63.2578 24.6787 62.7656 24.4326L63.5654 23.5713C63.8115 23.3252 64.0166 23.0278 64.1807 22.6792C64.3447 22.3306 64.4268 21.9512 64.4268 21.541V21.1719C64.4268 20.5566 64.2627 20.0029 63.9346 19.5107C63.6064 19.0186 63.1758 18.6699 62.6426 18.4648H62.5811ZM53.3525 4.4375L53.0449 5.66797C52.9629 5.87305 52.8398 6.04736 52.6758 6.19092C52.5117 6.33447 52.3066 6.40625 52.0605 6.40625H41.3555C41.1094 6.40625 40.9043 6.33447 40.7402 6.19092C40.5762 6.04736 40.4531 5.87305 40.3711 5.66797L40.0635 4.4375H53.3525ZM58.5205 48.7344C58.5205 49.0215 58.4282 49.2573 58.2437 49.4419C58.0591 49.6265 57.8232 49.7188 57.5361 49.7188H37.8486C37.5615 49.7188 37.3257 49.6265 37.1411 49.4419C36.9565 49.2573 36.8643 49.0215 36.8643 48.7344V45.9043C36.8643 44.3867 36.5771 42.9819 36.0029 41.6899C35.4287 40.3979 34.6494 39.2598 33.665 38.2754L32.9268 37.4756V34.7686C32.9268 34.6455 32.9575 34.5225 33.019 34.3994C33.0806 34.2764 33.1523 34.1738 33.2344 34.0918L36.5566 30.708C36.9258 30.3799 37.2026 29.9902 37.3872 29.5391C37.5718 29.0879 37.6641 28.5957 37.6641 28.0625C37.6641 27.2012 37.4077 26.4321 36.895 25.7554C36.3823 25.0786 35.7158 24.6377 34.8955 24.4326V5.42188C34.8955 5.13477 34.9878 4.89893 35.1724 4.71436C35.3569 4.52979 35.5928 4.4375 35.8799 4.4375H38.0947L38.4639 6.16016C38.6279 6.77539 38.9766 7.29834 39.5098 7.729C40.043 8.15967 40.6582 8.375 41.3555 8.375H52.0605C52.7578 8.375 53.373 8.16992 53.9062 7.75977C54.4395 7.34961 54.7881 6.81641 54.9521 6.16016L55.3213 4.4375H57.5361C57.8232 4.4375 58.0591 4.52979 58.2437 4.71436C58.4282 4.89893 58.5205 5.13477 58.5205 5.42188V19.9414L57.4131 21.0488C57.167 21.3359 56.9619 21.6538 56.7979 22.0024C56.6338 22.3511 56.5518 22.7305 56.5518 23.1406V23.5098C56.5518 24.084 56.7056 24.6069 57.0132 25.0786C57.3208 25.5503 57.7207 25.9092 58.2129 26.1553L57.4131 26.9551C57.167 27.2422 56.9619 27.5601 56.7979 27.9087C56.6338 28.2573 56.5518 28.6367 56.5518 29.0469V29.416C56.5518 29.9902 56.7056 30.5132 57.0132 30.9849C57.3208 31.4565 57.7207 31.8154 58.2129 32.0615L57.4131 32.8613C57.167 33.1484 56.9619 33.4663 56.7979 33.8149C56.6338 34.1636 56.5518 34.543 56.5518 34.9531V35.3223C56.5518 35.8965 56.7056 36.4194 57.0132 36.8911C57.3208 37.3628 57.7207 37.7217 58.2129 37.9678L57.4131 38.7676C57.167 39.0547 56.9619 39.3726 56.7979 39.7212C56.6338 40.0698 56.5518 40.4492 56.5518 40.8594V41.2285C56.5518 41.8438 56.7158 42.3872 57.0439 42.8589C57.3721 43.3306 57.8027 43.6895 58.3359 43.9355H58.3975C58.4385 43.9355 58.4795 43.9561 58.5205 43.9971V48.7344ZM62.458 39.2598C62.458 39.3828 62.4272 39.5059 62.3657 39.6289C62.3042 39.752 62.2324 39.8545 62.1504 39.9365L60.1816 41.9053C60.0996 41.9873 59.9971 42.0591 59.874 42.1206C59.751 42.1821 59.6279 42.2129 59.5049 42.2129C59.2178 42.2129 58.9819 42.1104 58.7974 41.9053C58.6128 41.7002 58.5205 41.4746 58.5205 41.2285V40.8594C58.5205 40.7363 58.5513 40.6133 58.6128 40.4902C58.6743 40.3672 58.7461 40.2646 58.8281 40.1826L60.7969 38.2139C60.8789 38.1318 60.9712 38.0601 61.0737 37.9985C61.1763 37.937 61.3096 37.9062 61.4736 37.9062C61.5146 37.9062 61.5762 37.9165 61.6582 37.937C61.7402 37.9575 61.8018 37.9678 61.8428 37.9678C62.0479 38.0498 62.2017 38.1729 62.3042 38.3369C62.4067 38.501 62.458 38.6855 62.458 38.8906V39.2598ZM62.458 33.3535C62.458 33.4766 62.4272 33.5996 62.3657 33.7227C62.3042 33.8457 62.2324 33.9482 62.1504 34.0303L60.1816 35.999C60.0996 36.0811 59.9971 36.1528 59.874 36.2144C59.751 36.2759 59.6279 36.3066 59.5049 36.3066C59.2178 36.3066 58.9819 36.2041 58.7974 35.999C58.6128 35.7939 58.5205 35.5684 58.5205 35.3223V34.9531C58.5205 34.8301 58.5513 34.707 58.6128 34.584C58.6743 34.4609 58.7461 34.3584 58.8281 34.2764L60.7969 32.3076C60.8789 32.2256 60.9712 32.1538 61.0737 32.0923C61.1763 32.0308 61.3096 32 61.4736 32C61.5146 32 61.5762 32.0103 61.6582 32.0308C61.7402 32.0513 61.8018 32.0615 61.8428 32.0615C62.0479 32.1436 62.2017 32.2666 62.3042 32.4307C62.4067 32.5947 62.458 32.7793 62.458 32.9844V33.3535ZM62.458 27.4473C62.458 27.5703 62.4272 27.6934 62.3657 27.8164C62.3042 27.9395 62.2324 28.042 62.1504 28.124L60.1816 30.0928C60.0996 30.1748 59.9971 30.2466 59.874 30.3081C59.751 30.3696 59.6279 30.4004 59.5049 30.4004C59.2178 30.4004 58.9819 30.2979 58.7974 30.0928C58.6128 29.8877 58.5205 29.6621 58.5205 29.416V29.0469C58.5205 28.9238 58.5513 28.8008 58.6128 28.6777C58.6743 28.5547 58.7461 28.4521 58.8281 28.3701L60.7969 26.4014C60.8789 26.3193 60.9712 26.2476 61.0737 26.186C61.1763 26.1245 61.3096 26.0938 61.4736 26.0938C61.5146 26.0938 61.5762 26.104 61.6582 26.1245C61.7402 26.145 61.8018 26.1553 61.8428 26.1553C62.0479 26.2373 62.2017 26.3604 62.3042 26.5244C62.4067 26.6885 62.458 26.873 62.458 27.0781V27.4473ZM62.458 21.541C62.458 21.6641 62.4272 21.7871 62.3657 21.9102C62.3042 22.0332 62.2324 22.1357 62.1504 22.2178L60.1816 24.1865C60.0996 24.2686 59.9971 24.3403 59.874 24.4019C59.751 24.4634 59.6279 24.4941 59.5049 24.4941C59.2178 24.4941 58.9819 24.3916 58.7974 24.1865C58.6128 23.9814 58.5205 23.7559 58.5205 23.5098V23.1406C58.5205 23.0176 58.5513 22.8945 58.6128 22.7715C58.6743 22.6484 58.7461 22.5459 58.8281 22.4639L60.7969 20.4951C60.8789 20.4131 60.9712 20.3413 61.0737 20.2798C61.1763 20.2183 61.3096 20.1875 61.4736 20.1875C61.5146 20.1875 61.5762 20.1978 61.6582 20.2183C61.7402 20.2388 61.8018 20.249 61.8428 20.249C62.0479 20.3311 62.2017 20.4541 62.3042 20.6182C62.4067 20.7822 62.458 20.9668 62.458 21.1719V21.541ZM38.833 20.4951V24.125H39.8174V31.0156H38.833V36.9219H54.583V31.0156H53.5986V24.125H54.583V20.4951L46.708 17.1729L38.833 20.4951ZM52.6143 34.9531H40.8018V32.9844H52.6143V34.9531ZM41.7861 31.0156V24.125H43.7549V31.0156H41.7861ZM45.7236 31.0156V24.125H47.6924V31.0156H45.7236ZM49.6611 31.0156V24.125H51.6299V31.0156H49.6611ZM52.6143 22.1562H40.8018V21.8486L46.708 19.2646L52.6143 21.8486V22.1562ZM67.6875 23.5098C68.2207 24.7812 68.6309 26.1348 68.918 27.5703C69.2051 29.0059 69.3486 30.4824 69.3486 32C69.3486 33.5176 69.2051 35.0044 68.918 36.4604C68.6309 37.9165 68.2002 39.3008 67.626 40.6133L67.6875 40.4902L69.5332 41.2285C70.1074 39.875 70.5483 38.4189 70.856 36.8604C71.1636 35.3018 71.3174 33.6816 71.3174 32C71.3174 30.3184 71.1533 28.6982 70.8252 27.1396C70.4971 25.5811 70.0459 24.0635 69.4717 22.5869L69.5332 22.7715L67.6875 23.5098ZM74.0244 20.8027L72.2402 21.541C72.8555 23.0996 73.3477 24.7607 73.7168 26.5244C74.0859 28.2881 74.2705 30.1133 74.2705 32C74.2705 33.8867 74.0859 35.7222 73.7168 37.5063C73.3477 39.2905 72.835 41.0029 72.1787 42.6436L72.2402 42.459L74.0244 43.1973C74.7217 41.5566 75.2651 39.7827 75.6548 37.8755C76.0444 35.9683 76.2393 34.0098 76.2393 32C76.2393 29.9902 76.0444 28.0317 75.6548 26.1245C75.2651 24.2173 74.7012 22.3818 73.9629 20.6182L74.0244 20.8027ZM25.7285 23.5098L23.8828 22.7715C23.4316 23.8379 23.0625 24.9658 22.7754 26.1553C22.4883 27.3447 22.2832 28.5752 22.1602 29.8467V29.9697L24.1289 30.0928C24.252 28.9033 24.4468 27.7446 24.7134 26.6167C24.98 25.4888 25.3389 24.4121 25.79 23.3867L25.7285 23.5098ZM21.1758 42.459C20.5605 40.9004 20.0684 39.2393 19.6992 37.4756C19.3301 35.7119 19.1455 33.8867 19.1455 32C19.1455 30.1133 19.3301 28.2778 19.6992 26.4937C20.0684 24.7095 20.5811 22.9971 21.2373 21.3564L21.1758 21.541L19.3916 20.8027C18.6943 22.4434 18.1509 24.2173 17.7612 26.1245C17.3716 28.0317 17.1768 29.9902 17.1768 32C17.1768 34.0098 17.3716 35.9683 17.7612 37.8755C18.1509 39.7827 18.7148 41.6182 19.4531 43.3818L19.3916 43.1973L21.1758 42.459Z" fill="#70A8FF"/>
</g>
<defs>
<clipPath id="clip0_59_1434">
<rect width="63" height="63" fill="white" transform="matrix(1 0 0 -1 16.5 63.5)"/>
</clipPath>
</defs>
</svg>
