<svg width="64" height="64" viewBox="0 0 64 64" fill="none" xmlns="http://www.w3.org/2000/svg">
<g clip-path="url(#clip0_59_1455)">
<path d="M23.0791 20.6182C21.3154 21.7256 19.9209 23.2021 18.8955 25.0479C17.8701 26.8936 17.3369 28.8623 17.2959 30.9541C17.2959 31.2412 17.3984 31.4873 17.6035 31.6924C17.8086 31.8975 18.0547 32 18.3418 32C18.6289 32 18.875 31.8975 19.0801 31.6924C19.2852 31.4873 19.3877 31.2412 19.3877 30.9541C19.4287 29.2314 19.8696 27.6113 20.7104 26.0938C21.5513 24.5762 22.6895 23.3457 24.125 22.4023C24.3711 22.2383 24.5249 22.0229 24.5864 21.7563C24.6479 21.4897 24.6172 21.2334 24.4941 20.9873C24.3301 20.7412 24.1147 20.5771 23.8481 20.4951C23.5815 20.4131 23.3252 20.4541 23.0791 20.6182ZM55.0713 26.7705C53.8408 26.7705 52.7437 27.1602 51.7798 27.9395C50.8159 28.7188 50.2109 29.7236 49.9648 30.9541H37.168C37.0449 30.3799 36.8296 29.8364 36.522 29.3237C36.2144 28.811 35.835 28.3701 35.3838 28.001L38.9521 21.4795H42.582C42.8691 22.833 43.5562 23.8994 44.6431 24.6787C45.73 25.458 46.9502 25.7861 48.3037 25.6631C49.6162 25.54 50.7236 24.9761 51.626 23.9712C52.5283 22.9663 52.9795 21.7871 52.9795 20.4336C52.9795 19.0801 52.5283 17.9111 51.626 16.9268C50.7236 15.9424 49.6162 15.3682 48.3037 15.2041C46.9502 15.0811 45.73 15.4194 44.6431 16.2192C43.5562 17.019 42.8691 18.0752 42.582 19.3877H39.3213V12.4971L42.9512 8.92871H47.873C48.1191 10.2412 48.7856 11.2974 49.8726 12.0972C50.9595 12.897 52.1797 13.2148 53.5332 13.0508C54.8867 12.9277 56.0146 12.3638 56.917 11.3589C57.8193 10.354 58.2705 9.1748 58.2705 7.82129C58.2705 6.50879 57.8193 5.3501 56.917 4.34521C56.0146 3.34033 54.8867 2.77637 53.5332 2.65332C52.1797 2.48926 50.9595 2.80713 49.8726 3.60693C48.7856 4.40674 48.1191 5.46289 47.873 6.77539H42.9512C42.6641 6.77539 42.3872 6.83691 42.1206 6.95996C41.854 7.08301 41.6387 7.22656 41.4746 7.39062L40.5518 8.31348C40.1826 8.19043 39.8135 8.06738 39.4443 7.94434C39.0752 7.82129 38.6855 7.71875 38.2754 7.63672V2.5918C38.2754 2.01758 38.0703 1.52539 37.6602 1.11523C37.25 0.705078 36.7578 0.5 36.1836 0.5H27.8164C27.2422 0.5 26.75 0.705078 26.3398 1.11523C25.9297 1.52539 25.7246 2.01758 25.7246 2.5918V7.63672C24.5762 7.92383 23.4585 8.29297 22.3716 8.74414C21.2847 9.19531 20.2285 9.70801 19.2031 10.2822L15.6963 6.77539C15.4912 6.57031 15.2554 6.4165 14.9888 6.31396C14.7222 6.21143 14.4453 6.16016 14.1582 6.16016C13.9121 6.16016 13.6558 6.21143 13.3892 6.31396C13.1226 6.4165 12.8867 6.57031 12.6816 6.77539L6.77539 12.6816C6.57031 12.8867 6.4165 13.1123 6.31396 13.3584C6.21143 13.6045 6.16016 13.8711 6.16016 14.1582C6.16016 14.4453 6.21143 14.7222 6.31396 14.9888C6.4165 15.2554 6.57031 15.4912 6.77539 15.6963L10.2822 19.2031C9.70801 20.2285 9.19531 21.2847 8.74414 22.3716C8.29297 23.4585 7.92383 24.5762 7.63672 25.7246H2.5918C2.01758 25.7246 1.52539 25.9297 1.11523 26.3398C0.705078 26.75 0.5 27.2422 0.5 27.8164V36.1836C0.5 36.7578 0.705078 37.25 1.11523 37.6602C1.52539 38.0703 2.01758 38.2754 2.5918 38.2754H7.63672C7.92383 39.4238 8.29297 40.5415 8.74414 41.6284C9.19531 42.7153 9.70801 43.7715 10.2822 44.7969L6.77539 48.3037C6.57031 48.5088 6.4165 48.7446 6.31396 49.0112C6.21143 49.2778 6.16016 49.5547 6.16016 49.8418C6.16016 50.0879 6.21143 50.3442 6.31396 50.6108C6.4165 50.8774 6.57031 51.1133 6.77539 51.3184L12.6816 57.2246C12.8867 57.4297 13.1123 57.5835 13.3584 57.686C13.6045 57.7886 13.8711 57.8398 14.1582 57.8398C14.4453 57.8398 14.7222 57.7886 14.9888 57.686C15.2554 57.5835 15.4912 57.4297 15.6963 57.2246L19.2031 53.7178C20.2285 54.292 21.2847 54.8047 22.3716 55.2559C23.4585 55.707 24.5762 56.0762 25.7246 56.3633V61.4082C25.7246 61.9824 25.9297 62.4746 26.3398 62.8848C26.75 63.2949 27.2422 63.5 27.8164 63.5H36.1836C36.7578 63.5 37.25 63.2949 37.6602 62.8848C38.0703 62.4746 38.2754 61.9824 38.2754 61.4082V56.3633C38.6855 56.2812 39.0752 56.1787 39.4443 56.0557C39.8135 55.9326 40.1826 55.8096 40.5518 55.6865L41.4746 56.6094C41.6387 56.7734 41.854 56.917 42.1206 57.04C42.3872 57.1631 42.6641 57.2246 42.9512 57.2246H47.873C48.1191 58.5371 48.7856 59.5933 49.8726 60.3931C50.9595 61.1929 52.1797 61.5107 53.5332 61.3467C54.8867 61.2236 56.0146 60.6597 56.917 59.6548C57.8193 58.6499 58.2705 57.4912 58.2705 56.1787C58.2705 54.8252 57.8193 53.646 56.917 52.6411C56.0146 51.6362 54.8867 51.0723 53.5332 50.9492C52.1797 50.7852 50.9595 51.103 49.8726 51.9028C48.7856 52.7026 48.1191 53.7588 47.873 55.0713H42.9512L39.3213 51.5029V44.6123H42.582C42.8691 45.9248 43.5562 46.981 44.6431 47.7808C45.73 48.5806 46.9502 48.9189 48.3037 48.7959C49.6162 48.6318 50.7236 48.0576 51.626 47.0732C52.5283 46.0889 52.9795 44.9199 52.9795 43.5664C52.9795 42.2129 52.5283 41.0337 51.626 40.0288C50.7236 39.0239 49.6162 38.46 48.3037 38.3369C46.9502 38.2139 45.73 38.542 44.6431 39.3213C43.5562 40.1006 42.8691 41.167 42.582 42.5205H38.9521L35.3838 35.999C35.835 35.6299 36.2144 35.189 36.522 34.6763C36.8296 34.1636 37.0449 33.6201 37.168 33.0459H49.9648C50.252 34.3994 50.9595 35.4761 52.0874 36.2759C53.2153 37.0757 54.4561 37.3936 55.8096 37.2295C57.1631 37.0244 58.2808 36.3887 59.1626 35.3223C60.0444 34.2559 60.4443 33.0254 60.3623 31.6309C60.2393 30.2773 59.6753 29.1289 58.6704 28.1855C57.6655 27.2422 56.4658 26.7705 55.0713 26.7705ZM52.9795 4.68359C53.8818 4.68359 54.6406 4.99121 55.2559 5.60645C55.8711 6.22168 56.1787 6.95996 56.1787 7.82129C56.1787 8.72363 55.8711 9.48242 55.2559 10.0977C54.6406 10.7129 53.8818 11.0205 52.9795 11.0205C52.1182 11.0205 51.3799 10.7129 50.7646 10.0977C50.1494 9.48242 49.8418 8.72363 49.8418 7.82129C49.8418 6.95996 50.1494 6.22168 50.7646 5.60645C51.3799 4.99121 52.1182 4.68359 52.9795 4.68359ZM52.9795 52.9795C53.8818 52.9795 54.6406 53.2871 55.2559 53.9023C55.8711 54.5176 56.1787 55.2764 56.1787 56.1787C56.1787 57.04 55.8711 57.7783 55.2559 58.3936C54.6406 59.0088 53.8818 59.3164 52.9795 59.3164C52.1182 59.3164 51.3799 59.0088 50.7646 58.3936C50.1494 57.7783 49.8418 57.04 49.8418 56.1787C49.8418 55.2764 50.1494 54.5176 50.7646 53.9023C51.3799 53.2871 52.1182 52.9795 52.9795 52.9795ZM32 35.1377C31.1387 35.1377 30.4004 34.8301 29.7852 34.2148C29.1699 33.5996 28.8623 32.8613 28.8623 32C28.8623 31.1387 29.1699 30.4004 29.7852 29.7852C30.4004 29.1699 31.1387 28.8623 32 28.8623C32.8613 28.8623 33.5996 29.1699 34.2148 29.7852C34.8301 30.4004 35.1377 31.1387 35.1377 32C35.1377 32.8613 34.8301 33.5996 34.2148 34.2148C33.5996 34.8301 32.8613 35.1377 32 35.1377ZM47.75 17.2959C48.6113 17.2959 49.3496 17.6035 49.9648 18.2188C50.5801 18.834 50.8877 19.5723 50.8877 20.4336C50.8877 21.2949 50.5801 22.0332 49.9648 22.6484C49.3496 23.2637 48.6113 23.5713 47.75 23.5713C46.8887 23.5713 46.1504 23.2637 45.5352 22.6484C44.9199 22.0332 44.6123 21.2949 44.6123 20.4336C44.6123 19.5723 44.9199 18.834 45.5352 18.2188C46.1504 17.6035 46.8887 17.2959 47.75 17.2959ZM37.0449 54.5176C36.7988 54.5996 36.5938 54.7329 36.4297 54.9175C36.2656 55.1021 36.1836 55.3174 36.1836 55.5635V61.4082H27.8164V55.5635C27.8164 55.3174 27.7344 55.1021 27.5703 54.9175C27.4062 54.7329 27.2012 54.5996 26.9551 54.5176C25.6426 54.2305 24.3711 53.8306 23.1406 53.3179C21.9102 52.8052 20.7412 52.2002 19.6338 51.5029C19.3877 51.3799 19.1519 51.3286 18.9263 51.3491C18.7007 51.3696 18.4854 51.4619 18.2803 51.626L14.1582 55.748L8.25195 49.8418L12.374 45.7197C12.5381 45.5146 12.6304 45.2993 12.6509 45.0737C12.6714 44.8481 12.6201 44.6123 12.4971 44.3662C11.7998 43.2588 11.1948 42.0898 10.6821 40.8594C10.1694 39.6289 9.76953 38.3574 9.48242 37.0449C9.40039 36.7988 9.26709 36.5938 9.08252 36.4297C8.89795 36.2656 8.68262 36.1836 8.43652 36.1836H2.5918V27.8164H8.43652C8.68262 27.8164 8.89795 27.7344 9.08252 27.5703C9.26709 27.4062 9.40039 27.2012 9.48242 26.9551C9.76953 25.6426 10.1694 24.3711 10.6821 23.1406C11.1948 21.9102 11.7998 20.7412 12.4971 19.6338C12.6201 19.3877 12.6714 19.1519 12.6509 18.9263C12.6304 18.7007 12.5381 18.4854 12.374 18.2803L8.25195 14.1582L14.1582 8.25195L18.2803 12.374C18.4854 12.5381 18.7007 12.6304 18.9263 12.6509C19.1519 12.6714 19.3877 12.6201 19.6338 12.4971C20.7412 11.7998 21.9102 11.1948 23.1406 10.6821C24.3711 10.1694 25.6426 9.76953 26.9551 9.48242C27.2012 9.40039 27.4062 9.26709 27.5703 9.08252C27.7344 8.89795 27.8164 8.68262 27.8164 8.43652V2.5918H36.1836V8.43652C36.1836 8.68262 36.2656 8.89795 36.4297 9.08252C36.5938 9.26709 36.7988 9.40039 37.0449 9.48242C37.373 9.52344 37.6909 9.59521 37.9985 9.69775C38.3062 9.80029 38.6035 9.89258 38.8906 9.97461L37.8447 11.0205C37.6807 11.1846 37.5371 11.3999 37.4141 11.6665C37.291 11.9331 37.2295 12.21 37.2295 12.4971V13.8506C35.3018 13.2764 33.374 13.0303 31.4463 13.1123C29.4775 13.1943 27.5908 13.543 25.7861 14.1582C23.9814 14.7734 22.2793 15.6758 20.6797 16.8652C19.1211 18.0137 17.7471 19.4082 16.5576 21.0488C15.4092 22.6895 14.5479 24.4531 13.9736 26.3398C13.3994 28.1855 13.1123 30.0723 13.1123 32C13.1123 33.9277 13.3994 35.8145 13.9736 37.6602C14.5479 39.5469 15.4092 41.3105 16.5576 42.9512C17.7471 44.5918 19.1211 45.9863 20.6797 47.1348C22.2793 48.3242 23.9814 49.2266 25.7861 49.8418C27.5908 50.457 29.4775 50.8057 31.4463 50.8877C33.374 50.9697 35.3018 50.7236 37.2295 50.1494V51.5029C37.2295 51.79 37.291 52.0669 37.4141 52.3335C37.5371 52.6001 37.6807 52.8154 37.8447 52.9795L38.8906 54.0254C38.6035 54.1074 38.3062 54.1997 37.9985 54.3022C37.6909 54.4048 37.373 54.4766 37.0449 54.5176ZM47.75 40.4287C48.6113 40.4287 49.3496 40.7363 49.9648 41.3516C50.5801 41.9668 50.8877 42.7051 50.8877 43.5664C50.8877 44.4277 50.5801 45.166 49.9648 45.7812C49.3496 46.3965 48.6113 46.7041 47.75 46.7041C46.8887 46.7041 46.1504 46.3965 45.5352 45.7812C44.9199 45.166 44.6123 44.4277 44.6123 43.5664C44.6123 42.7051 44.9199 41.9668 45.5352 41.3516C46.1504 40.7363 46.8887 40.4287 47.75 40.4287ZM37.2295 43.8125V47.9346C35.5068 48.5088 33.7637 48.7959 32 48.7959C30.1953 48.7959 28.4727 48.5293 26.832 47.9961C25.1914 47.4629 23.6328 46.6836 22.1562 45.6582C20.7207 44.6328 19.4697 43.3818 18.4033 41.9053C17.3369 40.4287 16.5166 38.8496 15.9424 37.168C15.4092 35.4453 15.1426 33.7227 15.1426 32C15.1426 30.2773 15.4092 28.5547 15.9424 26.832C16.5166 25.1504 17.3369 23.5713 18.4033 22.0947C19.4697 20.6182 20.7207 19.3672 22.1562 18.3418C23.6328 17.3164 25.1914 16.5371 26.832 16.0039C28.4727 15.4707 30.1953 15.2041 32 15.2041C33.7637 15.2041 35.5068 15.4912 37.2295 16.0654V20.1875L33.5381 27.0166C33.292 26.9346 33.0356 26.873 32.769 26.832C32.5024 26.791 32.2461 26.7705 32 26.7705C30.5645 26.7705 29.334 27.2832 28.3086 28.3086C27.2832 29.334 26.7705 30.5645 26.7705 32C26.7705 33.4355 27.2832 34.666 28.3086 35.6914C29.334 36.7168 30.5645 37.2295 32 37.2295C32.2461 37.2295 32.5024 37.209 32.769 37.168C33.0356 37.127 33.292 37.0654 33.5381 36.9834L37.2295 43.8125ZM55.0713 35.1377C54.21 35.1377 53.4717 34.8301 52.8564 34.2148C52.2412 33.5996 51.9336 32.8613 51.9336 32C51.9336 31.1387 52.2412 30.4004 52.8564 29.7852C53.4717 29.1699 54.21 28.8623 55.0713 28.8623C55.9736 28.8623 56.7324 29.1699 57.3477 29.7852C57.9629 30.4004 58.2705 31.1387 58.2705 32C58.2705 32.8613 57.9629 33.5996 57.3477 34.2148C56.7324 34.8301 55.9736 35.1377 55.0713 35.1377Z" fill="#70A8FF"/>
</g>
<defs>
<clipPath id="clip0_59_1455">
<rect width="63" height="63" fill="white" transform="matrix(1 0 0 -1 0.5 63.5)"/>
</clipPath>
</defs>
</svg>
