<svg width="120" height="120" viewBox="0 0 120 120" fill="none" xmlns="http://www.w3.org/2000/svg">
<rect width="120" height="120" rx="60" fill="#F7F7F9"/>
<g clip-path="url(#clip0_59_1415)">
<path d="M57.0469 83.625H59.0156V85.5938H57.0469V83.625ZM33.4219 52.125H37.0518L43.6963 56.8623C43.7783 56.9033 43.8604 56.9443 43.9424 56.9854C44.0244 57.0264 44.127 57.0469 44.25 57.0469C44.5371 57.0469 44.7729 56.9546 44.9575 56.77C45.1421 56.5854 45.2344 56.3496 45.2344 56.0625C45.2344 56.0215 45.2344 55.9907 45.2344 55.9702C45.2344 55.9497 45.2344 55.9189 45.2344 55.8779L44.4961 52.125H51.1406C52.4941 52.125 53.6528 51.6431 54.6167 50.6792C55.5806 49.7153 56.0625 48.5566 56.0625 47.2031V35.3906C56.0625 34.0371 55.5806 32.8784 54.6167 31.9146C53.6528 30.9507 52.4941 30.4688 51.1406 30.4688H33.4219C32.0684 30.4688 30.9097 30.9507 29.9458 31.9146C28.9819 32.8784 28.5 34.0371 28.5 35.3906V47.2031C28.5 48.5566 28.9819 49.7153 29.9458 50.6792C30.9097 51.6431 32.0684 52.125 33.4219 52.125ZM30.4688 35.3906C30.4688 34.5703 30.7559 33.873 31.3301 33.2988C31.9043 32.7246 32.6016 32.4375 33.4219 32.4375H51.1406C51.9609 32.4375 52.6582 32.7246 53.2324 33.2988C53.8066 33.873 54.0938 34.5703 54.0938 35.3906V47.2031C54.0938 48.0234 53.8066 48.7207 53.2324 49.2949C52.6582 49.8691 51.9609 50.1562 51.1406 50.1562H43.2656C42.9785 50.1562 42.7427 50.2485 42.5581 50.4331C42.3735 50.6177 42.2812 50.8535 42.2812 51.1406C42.2812 51.1816 42.2812 51.2124 42.2812 51.2329C42.2812 51.2534 42.2812 51.2842 42.2812 51.3252L42.7734 53.7861L37.9131 50.3408C37.8311 50.2998 37.749 50.2588 37.667 50.2178C37.585 50.1768 37.4824 50.1562 37.3594 50.1562H33.4219C32.6016 50.1562 31.9043 49.8691 31.3301 49.2949C30.7559 48.7207 30.4688 48.0234 30.4688 47.2031V35.3906ZM35.3906 40.3125V46.2188C35.3906 46.5059 35.4829 46.7417 35.6675 46.9263C35.8521 47.1108 36.0879 47.2031 36.375 47.2031H44.25C44.5371 47.2031 44.7729 47.1108 44.9575 46.9263C45.1421 46.7417 45.2344 46.5059 45.2344 46.2188V45.8496L47.7568 47.0801C47.7979 47.1211 47.8594 47.1519 47.9414 47.1724C48.0234 47.1929 48.1055 47.2031 48.1875 47.2031C48.4746 47.2031 48.7104 47.1108 48.895 46.9263C49.0796 46.7417 49.1719 46.5059 49.1719 46.2188V40.3125C49.1719 40.0254 49.0796 39.7896 48.895 39.605C48.7104 39.4204 48.4746 39.3281 48.1875 39.3281C48.1055 39.3281 48.0234 39.3384 47.9414 39.3589C47.8594 39.3794 47.7979 39.4102 47.7568 39.4512L45.2344 40.6816V40.3125C45.2344 40.3125 45.2344 40.3022 45.2344 40.2817C45.2344 40.2612 45.2344 40.251 45.2344 40.251C45.5215 39.9639 45.7573 39.605 45.9419 39.1743C46.1265 38.7437 46.2188 38.3027 46.2188 37.8516C46.2188 36.9082 45.8804 36.0981 45.2036 35.4214C44.5269 34.7446 43.7168 34.4062 42.7734 34.4062C42.2812 34.4062 41.8301 34.4985 41.4199 34.6831C41.0098 34.8677 40.6406 35.124 40.3125 35.4521C39.9844 35.124 39.6152 34.8677 39.2051 34.6831C38.7949 34.4985 38.3438 34.4062 37.8516 34.4062C36.9082 34.4062 36.0981 34.7446 35.4214 35.4214C34.7446 36.0981 34.4062 36.9082 34.4062 37.8516C34.4062 38.3027 34.4985 38.7437 34.6831 39.1743C34.8677 39.605 35.1035 39.9639 35.3906 40.251C35.3906 40.251 35.3906 40.2612 35.3906 40.2817C35.3906 40.3022 35.3906 40.3125 35.3906 40.3125ZM43.2656 45.2344H37.3594V41.2969H43.2656V45.2344ZM47.2031 41.9121V44.6191L45.2344 43.6348V42.8965L47.2031 41.9121ZM42.7734 36.375C43.1836 36.375 43.5322 36.5186 43.8193 36.8057C44.1064 37.0928 44.25 37.4414 44.25 37.8516C44.25 38.2617 44.1064 38.6104 43.8193 38.8975C43.5322 39.1846 43.1836 39.3281 42.7734 39.3281C42.3633 39.3281 42.0146 39.1846 41.7275 38.8975C41.4404 38.6104 41.2969 38.2617 41.2969 37.8516C41.2969 37.4414 41.4404 37.0928 41.7275 36.8057C42.0146 36.5186 42.3633 36.375 42.7734 36.375ZM37.8516 36.375C38.2617 36.375 38.6104 36.5186 38.8975 36.8057C39.1846 37.0928 39.3281 37.4414 39.3281 37.8516C39.3281 38.2617 39.1846 38.6104 38.8975 38.8975C38.6104 39.1846 38.2617 39.3281 37.8516 39.3281C37.4414 39.3281 37.0928 39.1846 36.8057 38.8975C36.5186 38.6104 36.375 38.2617 36.375 37.8516C36.375 37.4414 36.5186 37.0928 36.8057 36.8057C37.0928 36.5186 37.4414 36.375 37.8516 36.375ZM82.6406 38.3438H73.6582C73.4531 37.1953 72.8994 36.252 71.9971 35.5137C71.0947 34.7754 70.0488 34.4062 68.8594 34.4062H58.0312V36.375H68.8594C69.5156 36.375 70.0898 36.5596 70.582 36.9287C71.0742 37.2979 71.4229 37.7695 71.6279 38.3438H62.9531C61.5996 38.3438 60.4409 38.8257 59.4771 39.7896C58.5132 40.7534 58.0312 41.9121 58.0312 43.2656V55.0781C58.0312 56.4316 58.5132 57.5903 59.4771 58.5542C60.4409 59.5181 61.5996 60 62.9531 60H70.582L69.8438 63.7529C69.8438 63.7939 69.8438 63.8247 69.8438 63.8452C69.8438 63.8657 69.8438 63.8965 69.8438 63.9375C69.8438 64.2246 69.936 64.4604 70.1206 64.645C70.3052 64.8296 70.541 64.9219 70.8281 64.9219C70.9512 64.9219 71.0537 64.9014 71.1357 64.8604C71.2178 64.8193 71.2998 64.7783 71.3818 64.7373L71.8125 64.4297V68.4287L69.0439 65.7217C68.6338 65.3115 68.1621 64.9834 67.6289 64.7373C67.0957 64.4912 66.5215 64.3682 65.9062 64.3682C64.6758 64.3682 63.6196 64.8091 62.7378 65.6909C61.856 66.5728 61.415 67.6289 61.415 68.8594C61.415 69.4746 61.5381 70.0488 61.7842 70.582C62.0303 71.1152 62.3584 71.5869 62.7686 71.9971L68.5518 77.8418C68.3877 78.0879 68.2339 78.3647 68.0903 78.6724C67.9468 78.98 67.8135 79.2979 67.6904 79.626L67.6289 79.6875H42.2812V84.6094C42.2812 85.9629 42.7632 87.1216 43.7271 88.0854C44.6909 89.0493 45.8496 89.5312 47.2031 89.5312H81.6562C81.9434 89.5312 82.1792 89.439 82.3638 89.2544C82.5483 89.0698 82.6406 88.834 82.6406 88.5469V69.9053C82.6406 69.9053 82.6406 69.895 82.6406 69.8745C82.6406 69.854 82.6406 69.8438 82.6406 69.8438C82.6406 68.4902 82.4048 67.2085 81.9331 65.9985C81.4614 64.7886 80.8154 63.7119 79.9951 62.7686V62.8301L77.9033 60.0615L78.0264 60H82.6406C83.9941 60 85.1528 59.5181 86.1167 58.5542C87.0806 57.5903 87.5625 56.4316 87.5625 55.0781V43.2656C87.5625 41.9121 87.0806 40.7534 86.1167 39.7896C85.1528 38.8257 83.9941 38.3438 82.6406 38.3438ZM62.9531 40.3125H82.6406C83.4609 40.3125 84.1582 40.5996 84.7324 41.1738C85.3066 41.748 85.5938 42.4453 85.5938 43.2656V53.2324L81.2256 50.3408C81.1436 50.2588 81.0513 50.2075 80.9487 50.187C80.8462 50.1665 80.7539 50.1562 80.6719 50.1562C80.5898 50.1562 80.4976 50.1665 80.395 50.187C80.2925 50.2075 80.2002 50.2588 80.1182 50.3408L74.8271 53.8477L67.5059 48.3721C67.4238 48.3311 67.3315 48.29 67.229 48.249C67.1265 48.208 67.0137 48.1875 66.8906 48.1875C66.7676 48.1875 66.6548 48.208 66.5522 48.249C66.4497 48.29 66.3574 48.3311 66.2754 48.3721L60 53.1094V43.2656C60 42.4453 60.2871 41.748 60.8613 41.1738C61.4355 40.5996 62.1328 40.3125 62.9531 40.3125ZM44.25 84.6094V81.6562H67.0752C67.0752 81.8613 67.0649 82.0972 67.0444 82.3638C67.0239 82.6304 67.0137 82.8867 67.0137 83.1328C67.0137 83.9531 67.106 84.7427 67.2905 85.5015C67.4751 86.2603 67.7314 86.9678 68.0596 87.624V87.5625H47.2031C46.3828 87.5625 45.6855 87.2754 45.1113 86.7012C44.5371 86.127 44.25 85.4297 44.25 84.6094ZM78.457 64.0605C79.1543 64.8398 79.6978 65.7217 80.0874 66.7061C80.4771 67.6904 80.6719 68.7568 80.6719 69.9053V87.5625H70.3359C69.8848 86.9473 69.5361 86.2705 69.29 85.5322C69.0439 84.7939 68.9209 83.9941 68.9209 83.1328C68.9209 82.7637 68.9517 82.3843 69.0132 81.9946C69.0747 81.605 69.167 81.2461 69.29 80.918V80.9795C69.4131 80.5693 69.5464 80.2002 69.6899 79.8721C69.8335 79.5439 70.0078 79.2158 70.2129 78.8877V78.9492L70.6436 78.2725C70.7256 78.1904 70.7769 78.0981 70.7974 77.9956C70.8179 77.8931 70.8281 77.8008 70.8281 77.7188C70.8281 77.5957 70.7974 77.4727 70.7358 77.3496C70.6743 77.2266 70.6025 77.124 70.5205 77.042L64.1221 70.6436C63.917 70.3975 63.7427 70.1206 63.5991 69.813C63.4556 69.5054 63.3838 69.1875 63.3838 68.8594C63.3838 68.1621 63.6299 67.5674 64.1221 67.0752C64.6143 66.583 65.209 66.3369 65.9062 66.3369C66.2344 66.3369 66.5522 66.4087 66.8599 66.5522C67.1675 66.6958 67.4443 66.8701 67.6904 67.0752L76.0576 75.4424L77.4111 74.0889L73.7812 70.3975V63.0146L76.3037 61.2305L78.457 64.0605ZM82.6406 58.0312H77.7188C77.5957 58.0312 77.4932 58.0518 77.4111 58.0928C77.3291 58.1338 77.2471 58.1748 77.165 58.2158L72.3047 61.6611L72.7969 59.2002C72.7969 59.1592 72.7969 59.1284 72.7969 59.1079C72.7969 59.0874 72.7969 59.0566 72.7969 59.0156C72.7969 58.7285 72.7046 58.4927 72.52 58.3081C72.3354 58.1235 72.0996 58.0312 71.8125 58.0312H62.9531C62.2148 58.0312 61.5791 57.7954 61.0459 57.3237C60.5127 56.8521 60.1846 56.2676 60.0615 55.5703V55.5088L66.8906 50.4023L74.1504 55.8779C74.2324 55.9189 74.3247 55.96 74.4272 56.001C74.5298 56.042 74.6426 56.0625 74.7656 56.0625C74.8477 56.0625 74.9399 56.0522 75.0425 56.0317C75.145 56.0112 75.2373 55.96 75.3193 55.8779L80.6719 52.3096L85.5322 55.5703C85.4092 56.2676 85.0811 56.8521 84.5479 57.3237C84.0146 57.7954 83.3789 58.0312 82.6406 58.0312ZM74.7656 50.1562C75.873 50.1562 76.8062 49.7769 77.5649 49.0181C78.3237 48.2593 78.7031 47.3262 78.7031 46.2188C78.7031 45.1113 78.3237 44.1782 77.5649 43.4194C76.8062 42.6606 75.873 42.2812 74.7656 42.2812C73.6582 42.2812 72.7251 42.6606 71.9663 43.4194C71.2075 44.1782 70.8281 45.1113 70.8281 46.2188C70.8281 47.2852 71.2178 48.208 71.9971 48.9873C72.7764 49.7666 73.6992 50.1562 74.7656 50.1562ZM74.7656 44.25C75.2988 44.25 75.7603 44.4448 76.1499 44.8345C76.5396 45.2241 76.7344 45.6855 76.7344 46.2188C76.7344 46.752 76.5396 47.2134 76.1499 47.603C75.7603 47.9927 75.2988 48.1875 74.7656 48.1875C74.2324 48.1875 73.771 47.9927 73.3813 47.603C72.9917 47.2134 72.7969 46.752 72.7969 46.2188C72.7969 45.6855 72.9917 45.2241 73.3813 44.8345C73.771 44.4448 74.2324 44.25 74.7656 44.25ZM33.4219 77.7188H49.1719C50.5254 77.7188 51.6841 77.2368 52.6479 76.2729C53.6118 75.3091 54.0938 74.1504 54.0938 72.7969V66.8906C54.0938 65.5371 53.6118 64.3784 52.6479 63.4146C51.6841 62.4507 50.5254 61.9688 49.1719 61.9688H48.4951L49.1719 59.2617C49.1719 59.2207 49.1719 59.1797 49.1719 59.1387C49.1719 59.0977 49.1719 59.0566 49.1719 59.0156C49.1719 58.7285 49.0796 58.4927 48.895 58.3081C48.7104 58.1235 48.4746 58.0312 48.1875 58.0312C48.1055 58.0312 48.0234 58.0415 47.9414 58.062C47.8594 58.0825 47.7773 58.1133 47.6953 58.1543L41.0508 61.9688H33.4219C32.0684 61.9688 30.9097 62.4507 29.9458 63.4146C28.9819 64.3784 28.5 65.5371 28.5 66.8906V72.7969C28.5 74.1504 28.9819 75.3091 29.9458 76.2729C30.9097 77.2368 32.0684 77.7188 33.4219 77.7188ZM30.4688 66.8906C30.4688 66.0703 30.7559 65.373 31.3301 64.7988C31.9043 64.2246 32.6016 63.9375 33.4219 63.9375H41.2969C41.3789 63.9375 41.4609 63.9272 41.543 63.9067C41.625 63.8862 41.707 63.8555 41.7891 63.8145L46.6494 60.9844L46.2188 62.707C46.2188 62.748 46.2188 62.7891 46.2188 62.8301C46.2188 62.8711 46.2188 62.9121 46.2188 62.9531C46.2188 63.2402 46.311 63.4761 46.4956 63.6606C46.6802 63.8452 46.916 63.9375 47.2031 63.9375H49.1719C49.9922 63.9375 50.6895 64.2246 51.2637 64.7988C51.8379 65.373 52.125 66.0703 52.125 66.8906V72.7969C52.125 73.6172 51.8379 74.3145 51.2637 74.8887C50.6895 75.4629 49.9922 75.75 49.1719 75.75H33.4219C32.6016 75.75 31.9043 75.4629 31.3301 74.8887C30.7559 74.3145 30.4688 73.6172 30.4688 72.7969V66.8906ZM32.4375 66.8906H43.2656V68.8594H32.4375V66.8906ZM45.2344 66.8906H50.1562V68.8594H45.2344V66.8906ZM32.4375 70.8281H50.1562V72.7969H32.4375V70.8281Z" fill="#7B43D6"/>
</g>
<defs>
<clipPath id="clip0_59_1415">
<rect width="63" height="63" fill="white" transform="matrix(1 0 0 -1 28.5 91.5)"/>
</clipPath>
</defs>
</svg>
