<svg width="96" height="64" viewBox="0 0 96 64" fill="none" xmlns="http://www.w3.org/2000/svg">
<g clip-path="url(#clip0_59_1441)">
<path d="M47.3848 35.1992C51.1582 34.0918 54.1523 32.5947 56.3672 30.708C58.582 28.8213 60.2432 26.9961 61.3506 25.2324C61.8428 26.4629 62.5811 27.7139 63.5654 28.9854C64.5498 30.2568 65.5137 31.4258 66.457 32.4922C66.9902 33.1074 67.4927 33.7021 67.9644 34.2764C68.436 34.8506 68.7334 35.2812 68.8564 35.5684C68.8564 35.6504 68.8564 35.7222 68.8564 35.7837C68.8564 35.8452 68.8359 35.917 68.7949 35.999C68.6309 36.4092 68.2104 36.8091 67.5337 37.1987C66.8569 37.5884 66.252 37.8857 65.7188 38.0908C65.5137 38.1729 65.3599 38.3062 65.2573 38.4907C65.1548 38.6753 65.124 38.8906 65.165 39.1367C65.165 39.3418 65.2778 39.834 65.5034 40.6133C65.729 41.3926 66.1084 42.0283 66.6416 42.5205C66.5596 42.6846 66.4058 42.8999 66.1802 43.1665C65.9546 43.4331 65.7188 43.71 65.4727 43.9971C65.1855 44.0381 64.6523 44.0791 63.873 44.1201C63.0938 44.1611 62.2734 43.8945 61.4121 43.3203C61.166 43.1562 60.9199 43.105 60.6738 43.1665C60.4277 43.228 60.2432 43.3818 60.1201 43.6279C59.9561 43.833 59.9048 44.0586 59.9663 44.3047C60.0278 44.5508 60.1611 44.7559 60.3662 44.9199C61.0635 45.3301 61.7402 45.6172 62.3965 45.7812C63.0527 45.9453 63.6475 46.0273 64.1807 46.0273C64.4268 46.0273 64.6523 46.0171 64.8574 45.9966C65.0625 45.9761 65.2471 45.9453 65.4111 45.9043C65.4932 46.1504 65.5752 46.376 65.6572 46.5811C65.7393 46.7861 65.8008 46.9502 65.8418 47.0732C65.7598 47.1553 65.6572 47.2476 65.5342 47.3501C65.4111 47.4526 65.2881 47.5449 65.165 47.627C64.96 47.791 64.7549 47.9551 64.5498 48.1191C64.3447 48.2832 64.1602 48.4268 63.9961 48.5498C63.873 48.6729 63.6782 48.9087 63.4116 49.2573C63.145 49.606 63.1553 49.9854 63.4424 50.3955C63.5244 50.5596 63.627 50.98 63.75 51.6567C63.873 52.3335 63.8115 52.959 63.5654 53.5332C63.4014 53.8613 63.1655 54.1382 62.8579 54.3638C62.5503 54.5894 62.1504 54.7637 61.6582 54.8867C61.207 54.9688 60.7354 54.9688 60.2432 54.8867C59.751 54.8047 59.2178 54.7021 58.6436 54.5791C58.5615 54.5791 58.4692 54.5688 58.3667 54.5483C58.2642 54.5278 58.1514 54.4971 58.0283 54.4561H57.9668C57.9258 54.4561 57.895 54.4561 57.8745 54.4561C57.854 54.4561 57.8438 54.4561 57.8438 54.4561L48.6152 52.5488C48.3691 52.4668 48.1333 52.4976 47.9077 52.6411C47.6821 52.7847 47.5488 53 47.5078 53.2871C47.4668 53.5332 47.5181 53.7588 47.6616 53.9639C47.8052 54.1689 48 54.3125 48.2461 54.3945L53.1064 55.3789C52.6143 55.8711 52.2041 56.5068 51.876 57.2861C51.5479 58.0654 51.2607 59.0088 51.0146 60.1162C50.9736 60.3623 51.0249 60.5981 51.1685 60.8237C51.312 61.0493 51.5068 61.1826 51.7529 61.2236C51.7939 61.2236 51.835 61.2236 51.876 61.2236C51.917 61.2236 51.9375 61.2236 51.9375 61.2236C52.1836 61.2236 52.3887 61.1621 52.5527 61.0391C52.7168 60.916 52.8193 60.7314 52.8604 60.4854C53.1064 59.4189 53.3833 58.5474 53.6909 57.8706C53.9985 57.1938 54.3574 56.7119 54.7676 56.4248C55.1367 56.2197 55.5366 56.1172 55.9673 56.1172C56.3979 56.1172 56.8594 56.1582 57.3516 56.2402L57.6592 56.3018C57.7412 56.3428 57.8335 56.3735 57.936 56.394C58.0386 56.4146 58.1309 56.4248 58.2129 56.4248C58.8691 56.5889 59.5151 56.7119 60.1509 56.7939C60.7866 56.876 61.4326 56.8555 62.0889 56.7324C63.1143 56.4863 63.873 56.1069 64.3652 55.5942C64.8574 55.0815 65.1855 54.5996 65.3496 54.1484C65.6367 53.3691 65.7393 52.5898 65.6572 51.8105C65.5752 51.0312 65.4521 50.416 65.2881 49.9648C65.4111 49.8418 65.5752 49.6982 65.7803 49.5342C65.9854 49.3701 66.1699 49.2266 66.334 49.1035C66.7852 48.7344 67.1133 48.4575 67.3184 48.2729C67.5234 48.0884 67.667 47.8936 67.749 47.6885C67.79 47.5654 67.8003 47.3398 67.7798 47.0117C67.7593 46.6836 67.5234 46.0273 67.0723 45.043C67.4004 44.6738 67.7285 44.2432 68.0566 43.751C68.3848 43.2588 68.5488 42.7871 68.5488 42.3359C68.5488 42.0898 68.4976 41.8745 68.395 41.6899C68.2925 41.5054 68.1592 41.3311 67.9951 41.167C67.8311 41.0439 67.6772 40.8286 67.5337 40.521C67.3901 40.2134 67.2773 39.875 67.1953 39.5059C67.6875 39.3008 68.2925 38.9624 69.0103 38.4907C69.728 38.019 70.2305 37.4551 70.5176 36.7988C70.6816 36.4707 70.7637 36.1528 70.7637 35.8452C70.7637 35.5376 70.7021 35.2197 70.5791 34.8916C70.415 34.4404 70.0972 33.9175 69.6255 33.3228C69.1538 32.728 68.5898 32.041 67.9336 31.2617C66.7852 29.9492 65.606 28.4829 64.396 26.8628C63.186 25.2427 62.6631 23.8379 62.8271 22.6484C62.8271 22.6074 62.8271 22.5767 62.8271 22.5562C62.8271 22.5356 62.8271 22.5254 62.8271 22.5254C63.6064 20.8027 64.0781 19.3364 64.2422 18.1265C64.4062 16.9165 64.4883 16.2705 64.4883 16.1885C64.5293 15.9424 64.4575 15.7168 64.2729 15.5117C64.0884 15.3066 63.873 15.2041 63.627 15.2041C63.3398 15.2041 63.104 15.2861 62.9194 15.4502C62.7349 15.6143 62.6426 15.8398 62.6426 16.127C62.6426 16.127 62.5298 16.814 62.3042 18.188C62.0786 19.562 61.4736 21.1719 60.4893 23.0176C59.2178 25.3555 57.5464 27.3652 55.4751 29.0469C53.4038 30.7285 50.9326 32.041 48.0615 32.9844V30.8926C48.0615 29.457 47.5488 28.2266 46.5234 27.2012C45.498 26.1758 44.2676 25.6631 42.832 25.6631C41.3965 25.6631 40.166 26.1758 39.1406 27.2012C38.1152 28.2266 37.6025 29.457 37.6025 30.8926V32.6152C37.6025 33.3125 37.7563 33.9688 38.064 34.584C38.3716 35.1992 38.792 35.7119 39.3252 36.1221C39.5713 36.2861 39.7661 36.481 39.9097 36.7065C40.0532 36.9321 40.166 37.1885 40.248 37.4756L40.3711 37.9062C40.5352 38.6035 40.894 39.1777 41.4478 39.6289C42.0015 40.0801 42.627 40.3057 43.3242 40.3057C44.0625 40.3057 44.7085 40.0801 45.2622 39.6289C45.8159 39.1777 46.1748 38.6035 46.3389 37.9062L46.6465 36.7373C46.6875 36.4912 46.6362 36.2554 46.4927 36.0298C46.3491 35.8042 46.1543 35.6709 45.9082 35.6299C45.6621 35.5479 45.4263 35.5786 45.2007 35.7222C44.9751 35.8657 44.8418 36.0605 44.8008 36.3066L44.4932 37.4756C44.4521 37.7627 44.3188 37.9883 44.0933 38.1523C43.8677 38.3164 43.6113 38.3984 43.3242 38.3984C43.0781 38.3984 42.8423 38.3164 42.6167 38.1523C42.3911 37.9883 42.2578 37.7627 42.2168 37.4756L42.0938 37.0449C41.9707 36.5527 41.7656 36.0913 41.4785 35.6606C41.1914 35.23 40.8428 34.8711 40.4326 34.584C40.1455 34.3379 39.9097 34.0508 39.7251 33.7227C39.5405 33.3945 39.4482 33.0254 39.4482 32.6152V30.8926C39.4482 29.9902 39.7764 29.2109 40.4326 28.5547C41.0889 27.8984 41.8887 27.5703 42.832 27.5703C43.7344 27.5703 44.5137 27.8984 45.1699 28.5547C45.8262 29.2109 46.1543 29.9902 46.1543 30.8926V34.2764C46.1543 34.2764 46.1646 34.3584 46.1851 34.5225C46.2056 34.6865 46.2979 34.8506 46.4619 35.0146C46.667 35.1787 46.8721 35.2505 47.0771 35.23C47.2822 35.2095 47.3848 35.1992 47.3848 35.1992ZM43.3242 29.4775C42.668 29.4775 42.1143 29.7134 41.6631 30.1851C41.2119 30.6567 40.9863 31.2207 40.9863 31.877V32.2461C40.9863 32.5332 41.0786 32.769 41.2632 32.9536C41.4478 33.1382 41.6631 33.2305 41.9092 33.2305C42.1963 33.2305 42.4321 33.1382 42.6167 32.9536C42.8013 32.769 42.8936 32.5332 42.8936 32.2461V31.877C42.8936 31.7129 42.9346 31.5898 43.0166 31.5078C43.0986 31.4258 43.2012 31.3848 43.3242 31.3848C43.4473 31.3848 43.5498 31.4155 43.6318 31.4771C43.7139 31.5386 43.7549 31.6104 43.7549 31.6924L44.2471 33.0459C44.3291 33.251 44.4521 33.4048 44.6162 33.5073C44.7803 33.6099 44.9648 33.6611 45.1699 33.6611C45.2109 33.6611 45.2622 33.6611 45.3237 33.6611C45.3853 33.6611 45.4365 33.6406 45.4775 33.5996C45.7236 33.5176 45.8979 33.3638 46.0005 33.1382C46.103 32.9126 46.1133 32.6768 46.0312 32.4307L45.5391 31.0771C45.375 30.585 45.0879 30.1953 44.6777 29.9082C44.2676 29.6211 43.8164 29.4775 43.3242 29.4775ZM64.9189 26.2168C65.001 26.2578 65.083 26.2886 65.165 26.3091C65.2471 26.3296 65.3291 26.3398 65.4111 26.3398C65.5752 26.3398 65.729 26.3091 65.8726 26.2476C66.0161 26.186 66.1289 26.0938 66.2109 25.9707C68.2617 22.8535 69 20.0132 68.4258 17.4497C67.8516 14.8862 67.5439 13.543 67.5029 13.4199C67.3799 13.1738 67.1953 13.0098 66.9492 12.9277C66.7031 12.8457 66.457 12.8457 66.2109 12.9277C66.0059 13.0508 65.8521 13.2354 65.7495 13.4814C65.647 13.7275 65.6572 13.9736 65.7803 14.2197C65.8213 14.3018 66.0879 15.4399 66.5801 17.6343C67.0723 19.8286 66.4365 22.2588 64.6729 24.9248C64.5088 25.1299 64.4575 25.3555 64.519 25.6016C64.5806 25.8477 64.7139 26.0527 64.9189 26.2168ZM29.8506 55.1943C28.1279 53.8818 26.5591 52.3643 25.144 50.6416C23.729 48.9189 22.5088 47.0732 21.4834 45.1045C20.458 43.0537 19.689 40.9209 19.1763 38.7061C18.6636 36.4912 18.4072 34.2354 18.4072 31.9385C18.4072 30.585 18.4893 29.2417 18.6533 27.9087C18.8174 26.5757 19.084 25.2734 19.4531 24.002C19.5352 23.7559 19.5146 23.52 19.3916 23.2944C19.2686 23.0688 19.084 22.915 18.8379 22.833C18.5508 22.792 18.2944 22.833 18.0688 22.9561C17.8433 23.0791 17.71 23.2637 17.6689 23.5098C17.2588 24.8633 16.9614 26.2476 16.7769 27.6626C16.5923 29.0776 16.5 30.5029 16.5 31.9385C16.5 34.3994 16.7769 36.8091 17.3306 39.1675C17.8843 41.5259 18.7148 43.792 19.8223 45.9658C20.8887 48.0576 22.1704 50.0161 23.6675 51.8413C25.1646 53.6665 26.8564 55.2969 28.7432 56.7324C28.8252 56.7734 28.9175 56.8145 29.02 56.8555C29.1226 56.8965 29.2148 56.917 29.2969 56.917C29.4609 56.917 29.6045 56.8862 29.7275 56.8247C29.8506 56.7632 29.9531 56.6709 30.0352 56.5479C30.1992 56.3428 30.2607 56.1069 30.2197 55.8403C30.1787 55.5737 30.0557 55.3584 29.8506 55.1943ZM69.8408 9.85156C68.3643 8.375 66.7646 7.0625 65.042 5.91406C63.3604 4.76562 61.5864 3.80176 59.7202 3.02246C57.854 2.24316 55.916 1.66895 53.9062 1.2998C51.8965 0.889648 49.8457 0.68457 47.7539 0.68457C46.2773 0.68457 44.8008 0.787109 43.3242 0.992188C41.8477 1.19727 40.4121 1.50488 39.0176 1.91504C38.7715 1.99707 38.5869 2.15088 38.4639 2.37646C38.3408 2.60205 38.2998 2.83789 38.3408 3.08398C38.4229 3.33008 38.5767 3.51465 38.8022 3.6377C39.0278 3.76074 39.2637 3.78125 39.5098 3.69922C40.8633 3.33008 42.2271 3.05322 43.6011 2.86865C44.9751 2.68408 46.3594 2.5918 47.7539 2.5918C49.7227 2.5918 51.6504 2.77637 53.5371 3.14551C55.4238 3.51465 57.2388 4.05811 58.9819 4.77588C60.7251 5.49365 62.3965 6.38574 63.9961 7.45215C65.5957 8.55957 67.0928 9.79004 68.4873 11.1436C69.8818 12.5381 71.1123 14.0352 72.1787 15.6348C73.2451 17.2344 74.1475 18.916 74.8857 20.6797C75.624 22.4434 76.1777 24.2686 76.5469 26.1553C76.916 28.042 77.1006 29.9697 77.1006 31.9385C77.1006 33.7021 76.9365 35.4453 76.6084 37.168C76.2803 38.8906 75.8188 40.5723 75.2241 42.2129C74.6294 43.8535 73.8809 45.4326 72.9785 46.9502C72.0762 48.4678 71.0303 49.8828 69.8408 51.1953C69.6768 51.4004 69.605 51.6362 69.6255 51.9028C69.646 52.1694 69.7588 52.3848 69.9639 52.5488C70.0459 52.6309 70.1382 52.6924 70.2407 52.7334C70.3433 52.7744 70.4561 52.7949 70.5791 52.7949C70.7021 52.7949 70.8252 52.7642 70.9482 52.7026C71.0713 52.6411 71.1738 52.5488 71.2559 52.4258C72.5273 51.0312 73.6348 49.5342 74.5781 47.9346C75.5215 46.2939 76.3213 44.6123 76.9775 42.8896C77.6338 41.167 78.126 39.3828 78.4541 37.5371C78.7822 35.6914 78.9463 33.8252 78.9463 31.9385C78.9463 29.8467 78.7617 27.7959 78.3926 25.7861C77.9824 23.7764 77.3877 21.8384 76.6084 19.9722C75.8291 18.106 74.8652 16.3115 73.7168 14.5889C72.6094 12.9072 71.3174 11.3281 69.8408 9.85156ZM35.8799 28.6777V19.8799H44.6777C44.9238 19.8799 45.1392 19.7876 45.3237 19.603C45.5083 19.4185 45.6006 19.2031 45.6006 18.957V11.2051C45.6006 10.918 45.5083 10.6821 45.3237 10.4976C45.1392 10.313 44.9238 10.2207 44.6777 10.2207H35.8799V1.42285C35.8799 1.17676 35.7876 0.961426 35.603 0.776855C35.4185 0.592285 35.2031 0.5 34.957 0.5H27.2051C26.918 0.5 26.6821 0.592285 26.4976 0.776855C26.313 0.961426 26.2207 1.17676 26.2207 1.42285V10.2207H17.4229C17.1768 10.2207 16.9614 10.313 16.7769 10.4976C16.5923 10.6821 16.5 10.918 16.5 11.2051V18.957C16.5 19.2031 16.5923 19.4185 16.7769 19.603C16.9614 19.7876 17.1768 19.8799 17.4229 19.8799H26.2207V28.6777C26.2207 28.9238 26.313 29.1392 26.4976 29.3237C26.6821 29.5083 26.918 29.6006 27.2051 29.6006H34.957C35.2031 29.6006 35.4185 29.5083 35.603 29.3237C35.7876 29.1392 35.8799 28.9238 35.8799 28.6777ZM33.9727 18.957V27.7549H28.1279V18.957C28.1279 18.6699 28.0356 18.4341 27.8511 18.2495C27.6665 18.0649 27.4512 17.9727 27.2051 17.9727H18.4072V12.1279H27.2051C27.4512 12.1279 27.6665 12.0356 27.8511 11.8511C28.0356 11.6665 28.1279 11.4512 28.1279 11.2051V2.40723H33.9727V11.2051C33.9727 11.4512 34.0649 11.6665 34.2495 11.8511C34.4341 12.0356 34.6699 12.1279 34.957 12.1279H43.7549V17.9727H34.957C34.6699 17.9727 34.4341 18.0649 34.2495 18.2495C34.0649 18.4341 33.9727 18.6699 33.9727 18.957ZM31.0811 38.8291C30.7939 38.8291 30.5581 38.9214 30.3735 39.106C30.189 39.2905 30.0967 39.5264 30.0967 39.8135V40.5518C30.0967 40.7979 30.189 41.0132 30.3735 41.1978C30.5581 41.3823 30.7939 41.4746 31.0811 41.4746C31.3271 41.4746 31.5425 41.3823 31.7271 41.1978C31.9116 41.0132 32.0039 40.7979 32.0039 40.5518V39.8135C32.0039 39.5264 31.9116 39.2905 31.7271 39.106C31.5425 38.9214 31.3271 38.8291 31.0811 38.8291ZM31.0811 43.874C30.7939 43.874 30.5581 43.9561 30.3735 44.1201C30.189 44.2842 30.0967 44.5098 30.0967 44.7969V45.5352C30.0967 45.7812 30.189 45.9966 30.3735 46.1812C30.5581 46.3657 30.7939 46.458 31.0811 46.458C31.3271 46.458 31.5425 46.3657 31.7271 46.1812C31.9116 45.9966 32.0039 45.7812 32.0039 45.5352V44.7969C32.0039 44.5098 31.9116 44.2842 31.7271 44.1201C31.5425 43.9561 31.3271 43.874 31.0811 43.874ZM28.9277 43.6279C29.1738 43.6279 29.3892 43.5356 29.5737 43.3511C29.7583 43.1665 29.8506 42.9307 29.8506 42.6436C29.8506 42.3975 29.7583 42.1821 29.5737 41.9976C29.3892 41.813 29.1738 41.7207 28.9277 41.7207H28.1895C27.9434 41.7207 27.728 41.813 27.5435 41.9976C27.3589 42.1821 27.2666 42.3975 27.2666 42.6436C27.2666 42.9307 27.3589 43.1665 27.5435 43.3511C27.728 43.5356 27.9434 43.6279 28.1895 43.6279H28.9277ZM33.9111 41.7207H33.1729C32.9268 41.7207 32.7114 41.813 32.5269 41.9976C32.3423 42.1821 32.25 42.3975 32.25 42.6436C32.25 42.9307 32.3423 43.1665 32.5269 43.3511C32.7114 43.5356 32.9268 43.6279 33.1729 43.6279H33.9111C34.1572 43.6279 34.3726 43.5356 34.5571 43.3511C34.7417 43.1665 34.834 42.9307 34.834 42.6436C34.834 42.3975 34.7417 42.1821 34.5571 41.9976C34.3726 41.813 34.1572 41.7207 33.9111 41.7207ZM39.0176 52.2412C38.7305 52.2412 38.4946 52.3335 38.3101 52.5181C38.1255 52.7026 38.0332 52.918 38.0332 53.1641V53.9023C38.0332 54.1484 38.1255 54.3638 38.3101 54.5483C38.4946 54.7329 38.7305 54.8252 39.0176 54.8252C39.2637 54.8252 39.479 54.7329 39.6636 54.5483C39.8481 54.3638 39.9404 54.1484 39.9404 53.9023V53.1641C39.9404 52.918 39.8481 52.7026 39.6636 52.5181C39.479 52.3335 39.2637 52.2412 39.0176 52.2412ZM39.0176 57.2246C38.7305 57.2246 38.4946 57.3169 38.3101 57.5015C38.1255 57.686 38.0332 57.9014 38.0332 58.1475V58.8857C38.0332 59.1318 38.1255 59.3472 38.3101 59.5317C38.4946 59.7163 38.7305 59.8086 39.0176 59.8086C39.2637 59.8086 39.479 59.7163 39.6636 59.5317C39.8481 59.3472 39.9404 59.1318 39.9404 58.8857V58.1475C39.9404 57.9014 39.8481 57.686 39.6636 57.5015C39.479 57.3169 39.2637 57.2246 39.0176 57.2246ZM36.8643 55.0713H36.126C35.8799 55.0713 35.6646 55.1636 35.48 55.3481C35.2954 55.5327 35.2031 55.7686 35.2031 56.0557C35.2031 56.3018 35.2954 56.5171 35.48 56.7017C35.6646 56.8862 35.8799 56.9785 36.126 56.9785H36.8643C37.1514 56.9785 37.3872 56.8862 37.5718 56.7017C37.7563 56.5171 37.8486 56.3018 37.8486 56.0557C37.8486 55.7686 37.7563 55.5327 37.5718 55.3481C37.3872 55.1636 37.1514 55.0713 36.8643 55.0713ZM41.8477 55.0713H41.1094C40.8633 55.0713 40.6479 55.1636 40.4634 55.3481C40.2788 55.5327 40.1865 55.7686 40.1865 56.0557C40.1865 56.3018 40.2788 56.5171 40.4634 56.7017C40.6479 56.8862 40.8633 56.9785 41.1094 56.9785H41.8477C42.1348 56.9785 42.3706 56.8862 42.5552 56.7017C42.7397 56.5171 42.832 56.3018 42.832 56.0557C42.832 55.7686 42.7397 55.5327 42.5552 55.3481C42.3706 55.1636 42.1348 55.0713 41.8477 55.0713ZM23.3906 55.8711C23.1035 55.8711 22.8677 55.9634 22.6831 56.1479C22.4985 56.3325 22.4062 56.5684 22.4062 56.8555V57.5938C22.4062 57.8398 22.4985 58.0552 22.6831 58.2397C22.8677 58.4243 23.1035 58.5166 23.3906 58.5166C23.6367 58.5166 23.8521 58.4243 24.0366 58.2397C24.2212 58.0552 24.3135 57.8398 24.3135 57.5938V56.8555C24.3135 56.5684 24.2212 56.3325 24.0366 56.1479C23.8521 55.9634 23.6367 55.8711 23.3906 55.8711ZM23.3906 60.8545C23.1035 60.8545 22.8677 60.9468 22.6831 61.1313C22.4985 61.3159 22.4062 61.5518 22.4062 61.8389V62.5771C22.4062 62.8232 22.4985 63.0386 22.6831 63.2231C22.8677 63.4077 23.1035 63.5 23.3906 63.5C23.6367 63.5 23.8521 63.4077 24.0366 63.2231C24.2212 63.0386 24.3135 62.8232 24.3135 62.5771V61.8389C24.3135 61.5518 24.2212 61.3159 24.0366 61.1313C23.8521 60.9468 23.6367 60.8545 23.3906 60.8545ZM21.2373 58.7627H20.499C20.2529 58.7627 20.0376 58.855 19.853 59.0396C19.6685 59.2241 19.5762 59.4395 19.5762 59.6855C19.5762 59.9316 19.6685 60.147 19.853 60.3315C20.0376 60.5161 20.2529 60.6084 20.499 60.6084H21.2373C21.5244 60.6084 21.75 60.5161 21.9141 60.3315C22.0781 60.147 22.1602 59.9316 22.1602 59.6855C22.1602 59.4395 22.0781 59.2241 21.9141 59.0396C21.75 58.855 21.5244 58.7627 21.2373 58.7627ZM26.2207 58.7627H25.4824C25.2363 58.7627 25.021 58.855 24.8364 59.0396C24.6519 59.2241 24.5596 59.4395 24.5596 59.6855C24.5596 59.9316 24.6519 60.147 24.8364 60.3315C25.021 60.5161 25.2363 60.6084 25.4824 60.6084H26.2207C26.5078 60.6084 26.7437 60.5161 26.9282 60.3315C27.1128 60.147 27.2051 59.9316 27.2051 59.6855C27.2051 59.4395 27.1128 59.2241 26.9282 59.0396C26.7437 58.855 26.5078 58.7627 26.2207 58.7627Z" fill="#70A8FF"/>
</g>
<defs>
<clipPath id="clip0_59_1441">
<rect width="63" height="63" fill="white" transform="matrix(1 0 0 -1 16.5 63.5)"/>
</clipPath>
</defs>
</svg>
