<svg width="120" height="120" viewBox="0 0 120 120" fill="none" xmlns="http://www.w3.org/2000/svg">
<rect width="120" height="120" rx="60" fill="#B99DE7"/>
<g clip-path="url(#clip0_59_1405)">
<path d="M42.2812 60C42.2812 62.1738 42.6914 64.2246 43.5117 66.1523C44.332 68.0391 45.46 69.7002 46.8955 71.1357C48.3311 72.5713 49.9922 73.6992 51.8789 74.5195C53.8066 75.3398 55.8574 75.75 58.0312 75.75C60.2051 75.75 62.2559 75.3398 64.1836 74.5195C66.0703 73.6992 67.7314 72.5713 69.167 71.1357C70.6025 69.7002 71.7305 68.0391 72.5508 66.1523C73.3711 64.2246 73.7812 62.1738 73.7812 60C73.7812 57.8262 73.3711 55.7754 72.5508 53.8477C71.7305 51.9609 70.6025 50.2998 69.167 48.8643C67.7314 47.4287 66.0703 46.3008 64.1836 45.4805C62.2559 44.6602 60.2051 44.25 58.0312 44.25C55.8574 44.25 53.8066 44.6602 51.8789 45.4805C49.9922 46.3008 48.3311 47.4287 46.8955 48.8643C45.46 50.2998 44.332 51.9609 43.5117 53.8477C42.6914 55.7754 42.2812 57.8262 42.2812 60ZM50.6484 48.3721L52.248 51.5713C52.2891 51.6533 52.3506 51.7354 52.4326 51.8174C52.5146 51.8994 52.5967 51.9609 52.6787 52.002L55.6318 53.54L53.54 57.0469H50.1562C49.9512 57.0469 49.7563 57.1084 49.5718 57.2314C49.3872 57.3545 49.2744 57.5186 49.2334 57.7236L48.4336 60H44.25C44.25 57.5801 44.8345 55.3447 46.0034 53.2939C47.1724 51.2432 48.7207 49.6025 50.6484 48.3721ZM58.0312 70.8281V73.7812C55.6113 73.7812 53.3862 73.207 51.356 72.0586C49.3257 70.9102 47.6953 69.3926 46.4648 67.5059L50.9561 66.0293L54.4629 68.6748C54.668 68.7979 54.8833 68.8594 55.1089 68.8594C55.3345 68.8594 55.5293 68.7773 55.6934 68.6133L59.9385 65.2295L61.9688 67.3213V69.1055L58.7695 69.8438C58.5645 69.9258 58.3901 70.0488 58.2466 70.2129C58.103 70.377 58.0312 70.582 58.0312 70.8281ZM71.8125 60C71.8125 61.0664 71.6895 62.1123 71.4434 63.1377C71.1973 64.1631 70.8486 65.127 70.3975 66.0293L68.1826 63.8145L69.6592 61.5381C69.7412 61.415 69.7925 61.2817 69.813 61.1382C69.8335 60.9946 69.8438 60.8613 69.8438 60.7383L68.8594 56.8008C68.8184 56.6777 68.7568 56.5649 68.6748 56.4624C68.5928 56.3599 68.4902 56.2676 68.3672 56.1855C68.2441 56.1035 68.1108 56.0625 67.9673 56.0625C67.8237 56.0625 67.6904 56.083 67.5674 56.124L65.291 56.8623L63.0146 53.9092L63.6914 51.1406H68.5518C69.5771 52.3301 70.377 53.6836 70.9512 55.2012C71.5254 56.7188 71.8125 58.3184 71.8125 60ZM62.9531 49.1719C62.707 49.1719 62.502 49.2437 62.3379 49.3872C62.1738 49.5308 62.0508 49.7051 61.9688 49.9102L60.9844 53.8477C60.9844 54.0117 60.9946 54.1655 61.0151 54.3091C61.0356 54.4526 61.0869 54.5859 61.1689 54.709L64.1221 58.6465C64.2451 58.8105 64.4092 58.9233 64.6143 58.9849C64.8193 59.0464 65.0244 59.0361 65.2295 58.9541L67.1982 58.3389L67.8135 60.7998L66.0908 63.3838C65.9678 63.5889 65.9165 63.8042 65.937 64.0298C65.9575 64.2554 66.0498 64.4502 66.2139 64.6143L69.3516 67.8135C68.2852 69.3721 66.9419 70.6641 65.3218 71.6895C63.7017 72.7148 61.9277 73.3506 60 73.5967V71.5664L63.1992 70.8281C63.4043 70.7461 63.5786 70.623 63.7222 70.459C63.8657 70.2949 63.9375 70.0898 63.9375 69.8438V66.8906C63.9375 66.7676 63.917 66.6445 63.876 66.5215C63.835 66.3984 63.7529 66.2959 63.6299 66.2139L60.6768 63.2607C60.5127 63.0557 60.3076 62.9531 60.0615 62.9531C59.8154 62.9531 59.5898 63.0352 59.3848 63.1992L55.0781 66.6445L51.7559 64.1221C51.5918 64.04 51.438 63.9888 51.2944 63.9683C51.1509 63.9478 50.9971 63.958 50.833 63.999L45.542 65.7832C45.2549 65.168 45.019 64.5425 44.8345 63.9067C44.6499 63.271 44.5166 62.625 44.4346 61.9688H49.1719C49.377 61.9688 49.5718 61.9072 49.7563 61.7842C49.9409 61.6611 50.0537 61.4971 50.0947 61.292L50.8945 59.0156H54.0938C54.2578 59.0156 54.4219 58.9746 54.5859 58.8926C54.75 58.8105 54.873 58.6875 54.9551 58.5234L57.9082 53.6016C57.9492 53.4785 57.98 53.3555 58.0005 53.2324C58.021 53.1094 58.0107 52.9863 57.9697 52.8633C57.9287 52.6992 57.8672 52.5659 57.7852 52.4634C57.7031 52.3608 57.6006 52.2891 57.4775 52.248L53.8477 50.4023L52.3711 47.4492C53.2324 47.0391 54.1348 46.7314 55.0781 46.5264C56.0215 46.3213 57.0059 46.2188 58.0312 46.2188C59.6309 46.2188 61.1587 46.4854 62.6147 47.0186C64.0708 47.5518 65.373 48.2695 66.5215 49.1719H62.9531ZM84.6094 57.0469C83.9531 57.0469 83.3789 57.2314 82.8867 57.6006C82.3945 57.9697 82.0459 58.4414 81.8408 59.0156H75.75V60.9844H81.8408C82.0459 61.5586 82.3945 62.0303 82.8867 62.3994C83.3789 62.7686 83.9531 62.9531 84.6094 62.9531C85.4297 62.9531 86.127 62.666 86.7012 62.0918C87.2754 61.5176 87.5625 60.8203 87.5625 60C87.5625 59.1797 87.2754 58.4824 86.7012 57.9082C86.127 57.334 85.4297 57.0469 84.6094 57.0469ZM84.6094 60.9844C84.3223 60.9844 84.0864 60.8921 83.9019 60.7075C83.7173 60.5229 83.625 60.2871 83.625 60C83.625 59.7129 83.7173 59.4771 83.9019 59.2925C84.0864 59.1079 84.3223 59.0156 84.6094 59.0156C84.8965 59.0156 85.1323 59.1079 85.3169 59.2925C85.5015 59.4771 85.5938 59.7129 85.5938 60C85.5938 60.2871 85.5015 60.5229 85.3169 60.7075C85.1323 60.8921 84.8965 60.9844 84.6094 60.9844ZM84.6094 76.7344C84.6094 75.9141 84.3223 75.2168 83.748 74.6426C83.1738 74.0684 82.4766 73.7812 81.6562 73.7812C81 73.7812 80.4258 73.9658 79.9336 74.335C79.4414 74.7041 79.0928 75.1758 78.8877 75.75H77.4111L75.6885 71.4434C75.6064 71.2793 75.4834 71.1357 75.3193 71.0127C75.1553 70.8896 74.9707 70.8281 74.7656 70.8281H71.8125V72.7969H74.0889L75.8115 77.1035C75.8936 77.2676 76.0166 77.4111 76.1807 77.5342C76.3447 77.6572 76.5293 77.7188 76.7344 77.7188H78.8877C79.0928 78.293 79.4414 78.7646 79.9336 79.1338C80.4258 79.5029 81 79.6875 81.6562 79.6875C82.4766 79.6875 83.1738 79.4004 83.748 78.8262C84.3223 78.252 84.6094 77.5547 84.6094 76.7344ZM80.6719 76.7344C80.6719 76.4473 80.7642 76.2114 80.9487 76.0269C81.1333 75.8423 81.3691 75.75 81.6562 75.75C81.9434 75.75 82.1792 75.8423 82.3638 76.0269C82.5483 76.2114 82.6406 76.4473 82.6406 76.7344C82.6406 77.0215 82.5483 77.2573 82.3638 77.4419C82.1792 77.6265 81.9434 77.7188 81.6562 77.7188C81.3691 77.7188 81.1333 77.6265 80.9487 77.4419C80.7642 77.2573 80.6719 77.0215 80.6719 76.7344ZM73.7812 88.5469C74.6016 88.5469 75.2988 88.2598 75.873 87.6855C76.4473 87.1113 76.7344 86.4141 76.7344 85.5938C76.7344 84.7734 76.4473 84.0762 75.873 83.502C75.2988 82.9277 74.6016 82.6406 73.7812 82.6406C73.125 82.6406 72.5508 82.8252 72.0586 83.1943C71.5664 83.5635 71.2178 84.0352 71.0127 84.6094H68.6133L66.8291 78.457C66.7881 78.2109 66.6753 78.0264 66.4907 77.9033C66.3062 77.7803 66.1113 77.7188 65.9062 77.7188H60.9844V79.6875H65.168L66.9521 85.8398C66.9932 86.0859 67.106 86.2705 67.2905 86.3936C67.4751 86.5166 67.6699 86.5781 67.875 86.5781H71.0127C71.2178 87.1523 71.5664 87.624 72.0586 87.9932C72.5508 88.3623 73.125 88.5469 73.7812 88.5469ZM73.7812 84.6094C74.0684 84.6094 74.3042 84.7017 74.4888 84.8862C74.6733 85.0708 74.7656 85.3066 74.7656 85.5938C74.7656 85.8809 74.6733 86.1167 74.4888 86.3013C74.3042 86.4858 74.0684 86.5781 73.7812 86.5781C73.4941 86.5781 73.2583 86.4858 73.0737 86.3013C72.8892 86.1167 72.7969 85.8809 72.7969 85.5938C72.7969 85.3066 72.8892 85.0708 73.0737 84.8862C73.2583 84.7017 73.4941 84.6094 73.7812 84.6094ZM65.7832 41.7275L68.4902 36.375H71.0127C71.2178 36.9492 71.5767 37.4209 72.0894 37.79C72.6021 38.1592 73.166 38.3438 73.7812 38.3438C73.8633 38.3438 73.9351 38.3438 73.9966 38.3438C74.0581 38.3438 74.1299 38.3232 74.2119 38.2822C74.6221 38.2412 74.9912 38.1182 75.3193 37.9131C75.6475 37.708 75.9346 37.4414 76.1807 37.1133C76.3857 36.8262 76.5396 36.4878 76.6421 36.0981C76.7446 35.7085 76.7549 35.3291 76.6729 34.96C76.5498 34.1396 76.1602 33.4937 75.5039 33.022C74.8477 32.5503 74.1299 32.376 73.3506 32.499C72.9404 32.54 72.5713 32.6631 72.2432 32.8682C71.915 33.0732 71.6279 33.3398 71.3818 33.668C71.2998 33.75 71.228 33.8628 71.1665 34.0063C71.105 34.1499 71.0537 34.2832 71.0127 34.4062H67.875C67.6699 34.4062 67.4956 34.4575 67.3521 34.5601C67.2085 34.6626 67.0957 34.7959 67.0137 34.96L64.3066 40.3125H60.9844V42.2812H64.9219C65.127 42.2812 65.3013 42.23 65.4448 42.1274C65.5884 42.0249 65.7012 41.8916 65.7832 41.7275ZM72.9814 34.8369C73.0635 34.7139 73.1558 34.6216 73.2583 34.5601C73.3608 34.4985 73.4941 34.4473 73.6582 34.4062C73.6582 34.4062 73.6685 34.4062 73.689 34.4062C73.7095 34.4062 73.7402 34.4062 73.7812 34.4062C74.0273 34.4062 74.2427 34.4883 74.4272 34.6523C74.6118 34.8164 74.7246 35.0215 74.7656 35.2676C74.7656 35.3906 74.7554 35.5137 74.7349 35.6367C74.7144 35.7598 74.6631 35.8623 74.5811 35.9443C74.499 36.0674 74.4067 36.1597 74.3042 36.2212C74.2017 36.2827 74.0684 36.334 73.9043 36.375C73.6582 36.416 73.4224 36.3545 73.1968 36.1904C72.9712 36.0264 72.8379 35.8008 72.7969 35.5137C72.7969 35.3906 72.8071 35.2676 72.8276 35.1445C72.8481 35.0215 72.8994 34.9189 72.9814 34.8369ZM79.8721 45.2344C80.0771 45.8086 80.4258 46.2803 80.918 46.6494C81.4102 47.0186 81.9844 47.2031 82.6406 47.2031C83.4609 47.2031 84.1582 46.916 84.7324 46.3418C85.3066 45.7676 85.5938 45.0703 85.5938 44.25C85.5938 43.4297 85.3066 42.7324 84.7324 42.1582C84.1582 41.584 83.4609 41.2969 82.6406 41.2969C81.9844 41.2969 81.4102 41.4814 80.918 41.8506C80.4258 42.2197 80.0771 42.6914 79.8721 43.2656H75.75C75.5859 43.2656 75.4321 43.3066 75.2886 43.3887C75.145 43.4707 75.0322 43.5732 74.9502 43.6963L73.2275 46.2188H70.8281V48.1875H73.7812C73.9453 48.1875 74.0991 48.1465 74.2427 48.0645C74.3862 47.9824 74.499 47.8799 74.5811 47.7568L76.3037 45.2344H79.8721ZM82.6406 43.2656C82.9277 43.2656 83.1636 43.3579 83.3481 43.5425C83.5327 43.7271 83.625 43.9629 83.625 44.25C83.625 44.5371 83.5327 44.7729 83.3481 44.9575C83.1636 45.1421 82.9277 45.2344 82.6406 45.2344C82.3535 45.2344 82.1177 45.1421 81.9331 44.9575C81.7485 44.7729 81.6562 44.5371 81.6562 44.25C81.6562 43.9629 81.7485 43.7271 81.9331 43.5425C82.1177 43.3579 82.3535 43.2656 82.6406 43.2656ZM29.4844 55.0781C29.1973 55.0781 28.9614 55.1704 28.7769 55.355C28.5923 55.5396 28.5 55.7754 28.5 56.0625V63.9375C28.5 64.2246 28.5923 64.4604 28.7769 64.645C28.9614 64.8296 29.1973 64.9219 29.4844 64.9219H31.8838C32.0068 65.5781 32.1606 66.2241 32.3452 66.8599C32.5298 67.4956 32.7246 68.1416 32.9297 68.7979L30.8379 70.0283C30.5918 70.1514 30.438 70.3462 30.3765 70.6128C30.3149 70.8794 30.3457 71.1357 30.4688 71.3818L34.4062 78.1494C34.5703 78.3955 34.7754 78.5596 35.0215 78.6416C35.2676 78.7236 35.5137 78.6826 35.7598 78.5186L37.8516 77.3496C38.3027 77.8418 38.7642 78.3237 39.2358 78.7954C39.7075 79.2671 40.1895 79.7285 40.6816 80.1797L39.5127 82.2715C39.3486 82.5176 39.3076 82.7637 39.3896 83.0098C39.4717 83.2559 39.6357 83.4609 39.8818 83.625L46.6494 87.5625C46.8955 87.6855 47.1519 87.7163 47.4185 87.6548C47.6851 87.5933 47.8799 87.4395 48.0029 87.1934L49.2334 85.1016C49.8486 85.3066 50.4844 85.5015 51.1406 85.686C51.7969 85.8706 52.4531 86.0244 53.1094 86.1475V88.5469C53.1094 88.834 53.2017 89.0698 53.3862 89.2544C53.5708 89.439 53.8066 89.5312 54.0938 89.5312H58.0312C58.3184 89.5312 58.5542 89.439 58.7388 89.2544C58.9233 89.0698 59.0156 88.834 59.0156 88.5469V78.7031C59.0156 78.416 58.9233 78.1802 58.7388 77.9956C58.5542 77.811 58.3184 77.7188 58.0312 77.7188C55.5703 77.7188 53.2734 77.2471 51.1406 76.3037C49.0078 75.4014 47.1313 74.1401 45.5112 72.52C43.8911 70.8999 42.6299 69.0234 41.7275 66.8906C40.7842 64.7578 40.3125 62.4609 40.3125 60C40.3125 57.5391 40.7842 55.2422 41.7275 53.1094C42.6299 50.9766 43.8911 49.1001 45.5112 47.48C47.1313 45.8599 49.0078 44.5986 51.1406 43.6963C53.2734 42.7529 55.5703 42.2812 58.0312 42.2812C58.3184 42.2812 58.5542 42.189 58.7388 42.0044C58.9233 41.8198 59.0156 41.584 59.0156 41.2969V31.4531C59.0156 31.166 58.9233 30.9302 58.7388 30.7456C58.5542 30.561 58.3184 30.4688 58.0312 30.4688H54.0938C53.8066 30.4688 53.5708 30.561 53.3862 30.7456C53.2017 30.9302 53.1094 31.166 53.1094 31.4531V33.8525C52.4531 33.9756 51.7969 34.1294 51.1406 34.314C50.4844 34.4985 49.8486 34.6934 49.2334 34.8984L48.0029 32.8066C47.8799 32.5605 47.6851 32.4067 47.4185 32.3452C47.1519 32.2837 46.8955 32.3145 46.6494 32.4375L39.8818 36.375C39.6357 36.5391 39.4717 36.7441 39.3896 36.9902C39.3076 37.2363 39.3486 37.4824 39.5127 37.7285L40.6816 39.8203C40.1895 40.2715 39.7075 40.7329 39.2358 41.2046C38.7642 41.6763 38.3027 42.1582 37.8516 42.6504L35.7598 41.4814C35.5137 41.3174 35.2676 41.2764 35.0215 41.3584C34.7754 41.4404 34.5703 41.6045 34.4062 41.8506L30.4688 48.6182C30.3457 48.8643 30.3149 49.1206 30.3765 49.3872C30.438 49.6538 30.5918 49.8486 30.8379 49.9717L32.9297 51.2021C32.7246 51.8174 32.5298 52.4531 32.3452 53.1094C32.1606 53.7656 32.0068 54.4219 31.8838 55.0781H29.4844ZM33.7295 56.1855C33.8525 55.3242 34.0269 54.4731 34.2524 53.6323C34.478 52.7915 34.7549 51.9609 35.083 51.1406C35.165 50.8945 35.165 50.6587 35.083 50.4331C35.001 50.2075 34.8574 50.0332 34.6523 49.9102L32.6836 48.8027L35.6367 43.6348L37.6055 44.8037C37.8105 44.9268 38.0361 44.9678 38.2822 44.9268C38.5283 44.8857 38.7334 44.7627 38.8975 44.5576C39.4307 43.8604 40.0049 43.2041 40.6201 42.5889C41.2354 41.9736 41.8916 41.3994 42.5889 40.8662C42.7939 40.7021 42.917 40.4971 42.958 40.251C42.999 40.0049 42.958 39.7793 42.835 39.5742L41.666 37.6055L46.834 34.6523L47.9414 36.6211C48.0645 36.8262 48.2388 36.9697 48.4644 37.0518C48.6899 37.1338 48.9258 37.1338 49.1719 37.0518C49.9922 36.7236 50.8228 36.4468 51.6636 36.2212C52.5044 35.9956 53.3555 35.8213 54.2168 35.6982C54.4629 35.6572 54.668 35.5444 54.832 35.3599C54.9961 35.1753 55.0781 34.96 55.0781 34.7139V32.4375H57.0469V40.3125C54.4629 40.4766 52.0225 41.0918 49.7256 42.1582C47.4697 43.2246 45.4907 44.6396 43.7886 46.4033C42.0864 48.167 40.7637 50.2178 39.8203 52.5557C38.8359 54.8936 38.3438 57.375 38.3438 60C38.3438 62.625 38.8359 65.1064 39.8203 67.4443C40.7637 69.7822 42.0864 71.833 43.7886 73.5967C45.4907 75.3604 47.4697 76.7754 49.7256 77.8418C52.0225 78.9082 54.4629 79.5234 57.0469 79.6875V87.5625H55.0781V85.2861C55.0781 85.04 54.9961 84.8247 54.832 84.6401C54.668 84.4556 54.4629 84.3428 54.2168 84.3018C53.3555 84.1787 52.5044 84.0044 51.6636 83.7788C50.8228 83.5532 49.9922 83.2764 49.1719 82.9482C48.9258 82.8662 48.6899 82.8662 48.4644 82.9482C48.2388 83.0303 48.0645 83.1738 47.9414 83.3789L46.834 85.3477L41.666 82.3945L42.835 80.4258C42.958 80.2207 42.999 79.9951 42.958 79.749C42.917 79.5029 42.7939 79.2979 42.5889 79.1338C41.8916 78.6006 41.2354 78.0264 40.6201 77.4111C40.0049 76.7959 39.4307 76.1396 38.8975 75.4424C38.7334 75.2373 38.5283 75.1143 38.2822 75.0732C38.0361 75.0322 37.8105 75.0732 37.6055 75.1963L35.6367 76.3652L32.6836 71.1973L34.6523 70.0898C34.8574 69.9668 35.001 69.7925 35.083 69.5669C35.165 69.3413 35.165 69.1055 35.083 68.8594C34.7549 68.0391 34.478 67.2085 34.2524 66.3677C34.0269 65.5269 33.8525 64.6758 33.7295 63.8145C33.6885 63.5684 33.5757 63.3633 33.3911 63.1992C33.2065 63.0352 32.9912 62.9531 32.7451 62.9531H30.4688V57.0469H32.7451C32.9912 57.0469 33.2065 56.9648 33.3911 56.8008C33.5757 56.6367 33.6885 56.4316 33.7295 56.1855Z" fill="#7B43D6"/>
</g>
<defs>
<clipPath id="clip0_59_1405">
<rect width="63" height="63" fill="white" transform="matrix(1 0 0 -1 28.5 91.5)"/>
</clipPath>
</defs>
</svg>
