<svg width="120" height="120" viewBox="0 0 120 120" fill="none" xmlns="http://www.w3.org/2000/svg">
<rect width="120" height="120" rx="60" fill="#F7F7F9"/>
<g clip-path="url(#clip0_59_1395)">
<path d="M75.75 75.75C76.5703 75.75 77.2676 75.4629 77.8418 74.8887C78.416 74.3145 78.7031 73.6172 78.7031 72.7969C78.7031 71.9766 78.416 71.2793 77.8418 70.7051C77.2676 70.1309 76.5703 69.8438 75.75 69.8438C74.9297 69.8438 74.2324 70.1309 73.6582 70.7051C73.084 71.2793 72.7969 71.9766 72.7969 72.7969C72.7969 73.6172 73.084 74.3145 73.6582 74.8887C74.2324 75.4629 74.9297 75.75 75.75 75.75ZM75.75 71.8125C76.0371 71.8125 76.2729 71.9048 76.4575 72.0894C76.6421 72.2739 76.7344 72.5098 76.7344 72.7969C76.7344 73.084 76.6421 73.3198 76.4575 73.5044C76.2729 73.689 76.0371 73.7812 75.75 73.7812C75.4629 73.7812 75.2271 73.689 75.0425 73.5044C74.8579 73.3198 74.7656 73.084 74.7656 72.7969C74.7656 72.5098 74.8579 72.2739 75.0425 72.0894C75.2271 71.9048 75.4629 71.8125 75.75 71.8125ZM85.7783 68.6133C85.6143 68.2852 85.563 67.9263 85.6245 67.5366C85.686 67.147 85.8604 66.8291 86.1475 66.583L87.5625 65.168L83.3789 60.9844L81.9639 62.3994C81.7178 62.6865 81.3999 62.8608 81.0103 62.9224C80.6206 62.9839 80.2412 62.9326 79.8721 62.7686C79.5029 62.6455 79.2158 62.4199 79.0107 62.0918C78.8057 61.7637 78.7031 61.415 78.7031 61.0459V59.0156H76.6729C76.6318 58.2363 76.5396 57.457 76.396 56.6777C76.2524 55.8984 76.0576 55.1602 75.8115 54.4629L87.1934 43.0195C87.9316 42.2812 88.5059 41.4302 88.916 40.4663C89.3262 39.5024 89.5312 38.4873 89.5312 37.4209C89.5312 35.2471 88.752 33.3809 87.1934 31.8223C85.6348 30.2637 83.7686 29.4844 81.5947 29.4844C80.5283 29.4844 79.5132 29.6895 78.5493 30.0996C77.5854 30.5098 76.7344 31.084 75.9961 31.8223L64.6143 43.2041C63.876 42.958 63.1172 42.7632 62.3379 42.6196C61.5586 42.4761 60.7588 42.3838 59.9385 42.3428C59.2822 41.1533 58.3491 40.1895 57.1392 39.4512C55.9292 38.7129 54.5859 38.3438 53.1094 38.3438C52.7402 38.3438 52.3711 38.3745 52.002 38.436C51.6328 38.4976 51.2842 38.5693 50.9561 38.6514C50.0947 37.0518 48.895 35.7803 47.3569 34.8369C45.8188 33.8936 44.127 33.4219 42.2812 33.4219C39.5742 33.4219 37.2568 34.3857 35.3291 36.3135C33.4014 38.2412 32.4375 40.5586 32.4375 43.2656C32.4375 43.6348 32.458 44.0039 32.499 44.373C32.54 44.7422 32.6016 45.1113 32.6836 45.4805C31.4941 45.8496 30.4995 46.5571 29.6997 47.603C28.8999 48.6489 28.5 49.8281 28.5 51.1406C28.5 52.7812 29.0742 54.1758 30.2227 55.3242C31.3711 56.4727 32.7656 57.0469 34.4062 57.0469H41.543C41.4609 57.5391 41.3994 58.0312 41.3584 58.5234C41.3174 59.0156 41.2969 59.5078 41.2969 60C41.2969 61.0664 41.3892 62.0508 41.5737 62.9531C41.7583 63.8555 42.0146 64.6758 42.3428 65.4141L33.5449 74.2119L28.6846 86.9473C28.6025 87.0703 28.5513 87.2139 28.5308 87.3779C28.5103 87.542 28.5 87.7061 28.5 87.8701C28.5 88.6084 28.7563 89.2339 29.269 89.7466C29.7817 90.2593 30.4072 90.5156 31.1455 90.5156C31.3096 90.5156 31.4736 90.5054 31.6377 90.4849C31.8018 90.4644 31.9453 90.4131 32.0684 90.3311L44.8037 85.4707L51.2021 79.0107C51.2021 79.1338 51.1919 79.2466 51.1714 79.3491C51.1509 79.4517 51.1406 79.5645 51.1406 79.6875C51.1406 80.0566 51.2124 80.4155 51.356 80.7642C51.4995 81.1128 51.6738 81.4102 51.8789 81.6562C51.6738 81.9023 51.4995 82.1997 51.356 82.5483C51.2124 82.897 51.1406 83.2559 51.1406 83.625C51.1406 84.3223 51.3457 84.9272 51.7559 85.4399C52.166 85.9526 52.6992 86.291 53.3555 86.4551C53.7656 87.6855 54.4834 88.6699 55.5088 89.4082C56.5342 90.1465 57.7031 90.5156 59.0156 90.5156C60.3281 90.5156 61.4971 90.1465 62.5225 89.4082C63.5479 88.6699 64.2656 87.6855 64.6758 86.4551C65.332 86.291 65.8652 85.9526 66.2754 85.4399C66.6855 84.9272 66.8906 84.3223 66.8906 83.625C66.8906 83.584 66.8906 83.543 66.8906 83.502C66.8906 83.4609 66.8906 83.4404 66.8906 83.4404L68.1211 84.6094L69.5361 83.1943C69.7822 82.9072 70.1001 82.7329 70.4897 82.6714C70.8794 82.6099 71.2588 82.6611 71.6279 82.8252C71.9971 82.9482 72.2842 83.1738 72.4893 83.502C72.6943 83.8301 72.7969 84.1787 72.7969 84.5479V86.5781H78.7031V84.5479C78.7031 84.1787 78.8057 83.8301 79.0107 83.502C79.2158 83.1738 79.5234 82.9482 79.9336 82.8252C80.2617 82.6611 80.6206 82.6099 81.0103 82.6714C81.3999 82.7329 81.7178 82.9072 81.9639 83.1943L83.3789 84.6094L87.5625 80.4258L86.1475 79.0107C85.8604 78.7646 85.686 78.4468 85.6245 78.0571C85.563 77.6675 85.6143 77.2881 85.7783 76.9189C85.9014 76.5498 86.127 76.2627 86.4551 76.0576C86.7832 75.8525 87.1318 75.75 87.501 75.75H89.5312V69.8438H87.501C87.1318 69.8438 86.7832 69.7412 86.4551 69.5361C86.127 69.3311 85.9014 69.0234 85.7783 68.6133ZM71.0127 71.5664C71.5459 71.0332 72.0791 70.4897 72.6123 69.936C73.1455 69.3823 73.6377 68.7979 74.0889 68.1826C74.335 68.1006 74.6016 68.0288 74.8887 67.9673C75.1758 67.9058 75.4629 67.875 75.75 67.875C77.1035 67.875 78.2622 68.3569 79.2261 69.3208C80.1899 70.2847 80.6719 71.4434 80.6719 72.7969C80.6719 74.1504 80.1899 75.3091 79.2261 76.2729C78.2622 77.2368 77.1035 77.7188 75.75 77.7188C74.3965 77.7188 73.2378 77.2368 72.2739 76.2729C71.3101 75.3091 70.8281 74.1504 70.8281 72.7969C70.8281 72.5918 70.8486 72.3867 70.8896 72.1816C70.9307 71.9766 70.9717 71.7715 71.0127 71.5664ZM72.1816 48.249L76.7344 43.6963L80.2412 47.2031L75.0117 52.4326C74.6426 51.6943 74.2222 50.9663 73.7505 50.2485C73.2788 49.5308 72.7559 48.8643 72.1816 48.249ZM73.2275 37.3594L74.7656 35.8213L83.1943 44.25L81.6562 45.7881L73.2275 37.3594ZM81.5947 31.4531C83.2354 31.4531 84.6401 32.0376 85.8091 33.2065C86.978 34.3755 87.5625 35.7803 87.5625 37.4209C87.5625 38.2412 87.4087 39.0103 87.1011 39.728C86.7935 40.4458 86.373 41.0918 85.8398 41.666L84.6094 42.835L76.1807 34.4062L77.3496 33.1758C77.9238 32.6426 78.5698 32.2222 79.2876 31.9146C80.0054 31.6069 80.7744 31.4531 81.5947 31.4531ZM71.8125 38.7744L75.3193 42.2812L70.7666 46.834C70.1514 46.2598 69.4849 45.7368 68.7671 45.2651C68.0493 44.7935 67.3213 44.373 66.583 44.0039L71.8125 38.7744ZM74.7656 60C74.7656 62.543 74.2222 64.563 73.1353 66.0601C72.0483 67.5571 70.8281 68.9619 69.4746 70.2744C68.5312 71.2178 67.6084 72.1919 66.7061 73.1968C65.8037 74.2017 65.0654 75.4014 64.4912 76.7959C64.4092 76.7549 64.3169 76.7344 64.2144 76.7344C64.1118 76.7344 64.0195 76.7344 63.9375 76.7344H60V71.8125C60 70.9922 59.7129 70.2949 59.1387 69.7207C58.5645 69.1465 57.8672 68.8594 57.0469 68.8594H55.0781C54.791 68.8594 54.5552 68.7671 54.3706 68.5825C54.186 68.3979 54.0938 68.1621 54.0938 67.875C54.0938 67.5879 54.186 67.3521 54.3706 67.1675C54.5552 66.9829 54.791 66.8906 55.0781 66.8906H64.9219C65.7422 66.8906 66.4395 66.6035 67.0137 66.0293C67.5879 65.4551 67.875 64.7578 67.875 63.9375C67.875 63.1172 67.5879 62.4199 67.0137 61.8457C66.4395 61.2715 65.7422 60.9844 64.9219 60.9844H57.0469C56.7598 60.9844 56.5239 60.8921 56.3394 60.7075C56.1548 60.5229 56.0625 60.2871 56.0625 60V57.0469H60.9844C62.3379 57.0469 63.4966 56.5649 64.4604 55.6011C65.4243 54.6372 65.9062 53.4785 65.9062 52.125C65.9062 50.7715 65.4243 49.6128 64.4604 48.6489C63.4966 47.6851 62.3379 47.2031 60.9844 47.2031C60.9844 47.2031 60.9741 47.2031 60.9536 47.2031C60.9331 47.2031 60.9229 47.2031 60.9229 47.2031C60.9229 47.0391 60.9331 46.875 60.9536 46.7109C60.9741 46.5469 60.9844 46.3828 60.9844 46.2188C60.9844 45.8906 60.9639 45.5728 60.9229 45.2651C60.8818 44.9575 60.8203 44.6602 60.7383 44.373C62.707 44.5781 64.5527 45.1318 66.2754 46.0342C67.957 46.9365 69.4336 48.085 70.7051 49.4795C71.9766 50.874 72.9609 52.4736 73.6582 54.2783C74.3965 56.083 74.7656 57.9902 74.7656 60ZM53.1094 79.6875C53.1094 79.4004 53.2017 79.1646 53.3862 78.98C53.5708 78.7954 53.8066 78.7031 54.0938 78.7031H63.9375C64.2246 78.7031 64.4604 78.7954 64.645 78.98C64.8296 79.1646 64.9219 79.4004 64.9219 79.6875C64.9219 79.9746 64.8296 80.2104 64.645 80.395C64.4604 80.5796 64.2246 80.6719 63.9375 80.6719H54.0938C53.8066 80.6719 53.5708 80.5796 53.3862 80.395C53.2017 80.2104 53.1094 79.9746 53.1094 79.6875ZM40.7432 79.6875L47.9414 72.4277C48.5566 73.043 49.1411 73.6685 49.6948 74.3042C50.2485 74.9399 50.7305 75.627 51.1406 76.3652L44.25 83.1943L40.7432 79.6875ZM30.4688 51.1406C30.4688 50.0742 30.8584 49.1514 31.6377 48.3721C32.417 47.5928 33.3398 47.2031 34.4062 47.2031C35.4727 47.2031 36.3955 47.5928 37.1748 48.3721C37.9541 49.1514 38.3438 50.0742 38.3438 51.1406H40.3125C40.3125 49.541 39.7588 48.1772 38.6514 47.0493C37.5439 45.9214 36.2109 45.3164 34.6523 45.2344C34.5703 44.9062 34.5088 44.5781 34.4678 44.25C34.4268 43.9219 34.4062 43.5938 34.4062 43.2656C34.4062 41.0918 35.1753 39.2358 36.7134 37.6978C38.2515 36.1597 40.1074 35.3906 42.2812 35.3906C43.7168 35.3906 45.0498 35.7495 46.2803 36.4673C47.5107 37.1851 48.4746 38.1797 49.1719 39.4512C48.1055 40.0664 47.2236 40.8867 46.5264 41.9121C45.8291 42.9375 45.4189 44.0859 45.2959 45.3574C44.4346 45.5625 43.7168 46.0137 43.1426 46.7109C42.5684 47.4082 42.2812 48.2285 42.2812 49.1719H44.25C44.25 48.6387 44.4448 48.1772 44.8345 47.7876C45.2241 47.3979 45.6855 47.2031 46.2188 47.2031C46.752 47.2031 47.2134 47.3979 47.603 47.7876C47.9927 48.1772 48.1875 48.6387 48.1875 49.1719H50.1562C50.1562 48.2695 49.8794 47.4697 49.3257 46.7725C48.772 46.0752 48.085 45.624 47.2646 45.4189C47.4697 43.9834 48.126 42.7734 49.2334 41.7891C50.3408 40.8047 51.6328 40.3125 53.1094 40.3125C54.75 40.3125 56.1445 40.8867 57.293 42.0352C58.4414 43.1836 59.0156 44.5781 59.0156 46.2188C59.0156 46.4648 58.9951 46.7212 58.9541 46.9878C58.9131 47.2544 58.8516 47.5107 58.7695 47.7568C57.9902 48.167 57.3442 48.7617 56.8315 49.541C56.3188 50.3203 56.0625 51.1816 56.0625 52.125H58.0312C58.0312 51.3047 58.3184 50.6074 58.8926 50.0332C59.4668 49.459 60.1641 49.1719 60.9844 49.1719C61.8047 49.1719 62.502 49.459 63.0762 50.0332C63.6504 50.6074 63.9375 51.3047 63.9375 52.125C63.9375 52.9453 63.6504 53.6426 63.0762 54.2168C62.502 54.791 61.8047 55.0781 60.9844 55.0781H34.4062C33.3398 55.0781 32.417 54.6885 31.6377 53.9092C30.8584 53.1299 30.4688 52.207 30.4688 51.1406ZM54.0938 57.0469V60C54.0938 60.8203 54.3809 61.5176 54.9551 62.0918C55.5293 62.666 56.2266 62.9531 57.0469 62.9531H64.9219C65.209 62.9531 65.4448 63.0454 65.6294 63.23C65.814 63.4146 65.9062 63.6504 65.9062 63.9375C65.9062 64.2246 65.814 64.4604 65.6294 64.645C65.4448 64.8296 65.209 64.9219 64.9219 64.9219H55.0781C54.2578 64.9219 53.5605 65.209 52.9863 65.7832C52.4121 66.3574 52.125 67.0547 52.125 67.875C52.125 68.6953 52.4121 69.3926 52.9863 69.9668C53.5605 70.541 54.2578 70.8281 55.0781 70.8281H57.0469C57.334 70.8281 57.5698 70.9204 57.7544 71.105C57.939 71.2896 58.0312 71.5254 58.0312 71.8125V76.7344H54.0938C54.0117 76.7344 53.9194 76.7344 53.8169 76.7344C53.7144 76.7344 53.6221 76.7549 53.54 76.7959C52.9658 75.4014 52.2275 74.2017 51.3252 73.1968C50.4229 72.1919 49.5 71.2178 48.5566 70.2744C47.2031 68.9619 45.9829 67.5571 44.896 66.0601C43.8091 64.563 43.2656 62.543 43.2656 60C43.2656 59.5078 43.2964 59.0156 43.3579 58.5234C43.4194 58.0312 43.4912 57.5391 43.5732 57.0469H54.0938ZM46.5264 71.0742L39.3281 78.2725L35.8213 74.7656L43.3271 67.2598C43.7783 67.998 44.2808 68.6748 44.8345 69.29C45.3882 69.9053 45.9521 70.5 46.5264 71.0742ZM34.7754 76.5498L42.4658 84.2402L35.9443 86.7627L32.2529 83.0713L34.7754 76.5498ZM31.3916 88.4854C31.1865 88.5674 30.9814 88.5469 30.7764 88.4238C30.5713 88.3008 30.4688 88.1162 30.4688 87.8701C30.4688 87.8291 30.4688 87.7881 30.4688 87.7471C30.4688 87.7061 30.4893 87.665 30.5303 87.624L31.5146 85.04L33.9756 87.501L31.3916 88.4854ZM59.0156 88.5469C58.2773 88.5469 57.6006 88.3726 56.9854 88.0239C56.3701 87.6753 55.8984 87.1934 55.5703 86.5781H62.4609C62.1328 87.1934 61.6611 87.6753 61.0459 88.0239C60.4307 88.3726 59.7539 88.5469 59.0156 88.5469ZM63.9375 84.6094H54.0938C53.8066 84.6094 53.5708 84.5171 53.3862 84.3325C53.2017 84.1479 53.1094 83.9121 53.1094 83.625C53.1094 83.3379 53.2017 83.1021 53.3862 82.9175C53.5708 82.7329 53.8066 82.6406 54.0938 82.6406H63.9375C64.2246 82.6406 64.4604 82.7329 64.645 82.9175C64.8296 83.1021 64.9219 83.3379 64.9219 83.625C64.9219 83.9121 64.8296 84.1479 64.645 84.3325C64.4604 84.5171 64.2246 84.6094 63.9375 84.6094ZM87.5625 73.7812H87.501C86.7217 73.7812 86.0039 73.9966 85.3477 74.4272C84.6914 74.8579 84.2197 75.4424 83.9326 76.1807C83.6455 76.9189 83.5737 77.6675 83.7173 78.4263C83.8608 79.1851 84.1992 79.8516 84.7324 80.4258H84.7939L83.3789 81.8408V81.7793C82.8047 81.2461 82.1382 80.9077 81.3794 80.7642C80.6206 80.6206 79.8721 80.6924 79.1338 80.9795C78.3955 81.3076 77.811 81.7896 77.3804 82.4253C76.9497 83.061 76.7344 83.7686 76.7344 84.5479V84.6094H74.7656V84.5479C74.7656 83.7686 74.5503 83.0508 74.1196 82.3945C73.689 81.7383 73.1045 81.2666 72.3662 80.9795C71.6279 80.6924 70.8794 80.6206 70.1206 80.7642C69.3618 80.9077 68.6953 81.2461 68.1211 81.7793V81.8408L66.7676 80.4873C66.8086 80.3643 66.8394 80.2412 66.8599 80.1182C66.8804 79.9951 66.8906 79.8516 66.8906 79.6875C66.8906 79.3184 66.8291 78.98 66.7061 78.6724C66.583 78.3647 66.4189 78.0879 66.2139 77.8418C66.542 77.0215 66.9316 76.2729 67.3828 75.5962C67.834 74.9194 68.3467 74.2734 68.9209 73.6582C69.126 75.3398 69.8745 76.7651 71.1665 77.9341C72.4585 79.103 73.9863 79.6875 75.75 79.6875C77.6367 79.6875 79.2568 79.0107 80.6104 77.6572C81.9639 76.3037 82.6406 74.6836 82.6406 72.7969C82.6406 70.9102 81.9639 69.29 80.6104 67.9365C79.2568 66.583 77.6367 65.9062 75.75 65.9062C75.709 65.9062 75.668 65.9062 75.627 65.9062C75.5859 65.9062 75.5244 65.9062 75.4424 65.9062C75.7705 65.209 76.0474 64.4604 76.2729 63.6606C76.4985 62.8608 76.6523 61.9688 76.7344 60.9844V61.0459C76.7344 61.8252 76.9497 62.543 77.3804 63.1992C77.811 63.8555 78.3955 64.3271 79.1338 64.6143C79.8721 64.9014 80.6206 64.9731 81.3794 64.8296C82.1382 64.686 82.8047 64.3477 83.3789 63.8145V63.7529L84.7939 65.168H84.7324C84.1992 65.7422 83.8608 66.4087 83.7173 67.1675C83.5737 67.9263 83.6455 68.6748 83.9326 69.4131C84.2607 70.1514 84.7427 70.7358 85.3784 71.1665C86.0142 71.5972 86.7217 71.8125 87.501 71.8125H87.5625V73.7812Z" fill="#7B43D6"/>
</g>
<defs>
<clipPath id="clip0_59_1395">
<rect width="63" height="63" fill="white" transform="matrix(1 0 0 -1 28.5 91.5)"/>
</clipPath>
</defs>
</svg>
