<svg xmlns="http://www.w3.org/2000/svg" viewBox="0 0 20 15" width="20" height="15">
  <rect width="20" height="15" fill="#B22234"/>
  <rect width="20" height="1.15" y="1.15" fill="white"/>
  <rect width="20" height="1.15" y="3.46" fill="white"/>
  <rect width="20" height="1.15" y="5.77" fill="white"/>
  <rect width="20" height="1.15" y="8.08" fill="white"/>
  <rect width="20" height="1.15" y="10.38" fill="white"/>
  <rect width="20" height="1.15" y="12.69" fill="white"/>
  <rect width="8" height="8.08" fill="#3C3B6E"/>
  <g fill="white">
    <circle cx="1.5" cy="1.5" r="0.3"/>
    <circle cx="3" cy="1.5" r="0.3"/>
    <circle cx="4.5" cy="1.5" r="0.3"/>
    <circle cx="6" cy="1.5" r="0.3"/>
    <circle cx="2.25" cy="2.5" r="0.3"/>
    <circle cx="3.75" cy="2.5" r="0.3"/>
    <circle cx="5.25" cy="2.5" r="0.3"/>
    <circle cx="1.5" cy="3.5" r="0.3"/>
    <circle cx="3" cy="3.5" r="0.3"/>
    <circle cx="4.5" cy="3.5" r="0.3"/>
    <circle cx="6" cy="3.5" r="0.3"/>
    <circle cx="2.25" cy="4.5" r="0.3"/>
    <circle cx="3.75" cy="4.5" r="0.3"/>
    <circle cx="5.25" cy="4.5" r="0.3"/>
    <circle cx="1.5" cy="5.5" r="0.3"/>
    <circle cx="3" cy="5.5" r="0.3"/>
    <circle cx="4.5" cy="5.5" r="0.3"/>
    <circle cx="6" cy="5.5" r="0.3"/>
    <circle cx="2.25" cy="6.5" r="0.3"/>
    <circle cx="3.75" cy="6.5" r="0.3"/>
    <circle cx="5.25" cy="6.5" r="0.3"/>
  </g>
</svg>