<svg width="16" height="16" viewBox="0 0 16 16" fill="none" xmlns="http://www.w3.org/2000/svg">
<path d="M8 0.671875C6.98958 0.671875 6.03646 0.864583 5.14062 1.25C4.25521 1.625 3.47917 2.14583 2.8125 2.8125C2.14583 3.47917 1.625 4.25521 1.25 5.14062C0.864583 6.03646 0.671875 6.98958 0.671875 8C0.671875 9.01042 0.864583 9.96354 1.25 10.8594C1.625 11.7448 2.14583 12.5208 2.8125 13.1875C3.47917 13.8542 4.25521 14.375 5.14062 14.75C6.03646 15.1354 6.98958 15.3281 8 15.3281C9.01042 15.3281 9.96354 15.1354 10.8594 14.75C11.7448 14.375 12.5208 13.8542 13.1875 13.1875C13.8542 12.5208 14.375 11.7448 14.75 10.8594C15.1354 9.96354 15.3281 9.01042 15.3281 8C15.3281 6.98958 15.1354 6.03646 14.75 5.14062C14.3646 4.25521 13.8411 3.48177 13.1797 2.82031C12.5182 2.15885 11.7448 1.63542 10.8594 1.25C9.96354 0.864583 9.01042 0.671875 8 0.671875ZM8 14C7.16667 14 6.39062 13.8438 5.67188 13.5312C4.94271 13.2188 4.30469 12.7891 3.75781 12.2422C3.21094 11.6953 2.78125 11.0573 2.46875 10.3281C2.15625 9.60938 2 8.83333 2 8C2 7.16667 2.15625 6.39062 2.46875 5.67188C2.78125 4.94271 3.21094 4.30469 3.75781 3.75781C4.30469 3.21094 4.94271 2.78125 5.67188 2.46875C6.39062 2.15625 7.16667 2 8 2C8.83333 2 9.60938 2.15625 10.3281 2.46875C11.0573 2.78125 11.6953 3.21094 12.2422 3.75781C12.7891 4.30469 13.2188 4.94271 13.5312 5.67188C13.8438 6.39062 14 7.16667 14 8C14 8.82292 13.8438 9.59896 13.5312 10.3281C13.2188 11.0573 12.7891 11.6953 12.2422 12.2422C11.6953 12.7891 11.0573 13.2188 10.3281 13.5312C9.60938 13.8438 8.83333 14 8 14ZM10.875 5.84375L7.35938 9.07812L5.79688 7.53125C5.74479 7.46875 5.67708 7.41927 5.59375 7.38281C5.51042 7.34635 5.42188 7.32812 5.32812 7.32812C5.14062 7.32812 4.98177 7.39323 4.85156 7.52344C4.72135 7.65365 4.65625 7.80729 4.65625 7.98438C4.65625 8.08854 4.67448 8.17969 4.71094 8.25781C4.7474 8.33594 4.79688 8.40625 4.85938 8.46875L6.85938 10.4688C6.92188 10.5312 6.99479 10.5807 7.07812 10.6172C7.16146 10.6536 7.24479 10.6719 7.32812 10.6719C7.42188 10.6719 7.50781 10.6562 7.58594 10.625C7.66406 10.5938 7.72917 10.5469 7.78125 10.4844L11.7812 6.82812C11.8542 6.76562 11.9089 6.69271 11.9453 6.60938C11.9818 6.52604 12 6.43229 12 6.32812C12 6.15104 11.9349 5.9974 11.8047 5.86719C11.6745 5.73698 11.5156 5.67188 11.3281 5.67188C11.2448 5.67188 11.1641 5.6875 11.0859 5.71875C11.0078 5.75 10.9375 5.79167 10.875 5.84375Z" fill="#2BE4AC"/>
</svg>
