<svg width="68" height="64" viewBox="0 0 68 64" fill="none" xmlns="http://www.w3.org/2000/svg">
<g clip-path="url(#clip0_59_4017)">
<path d="M15.0015 32C15.0015 34.2083 15.439 36.2917 16.3139 38.25C17.1888 40.1667 18.3919 41.8542 19.9231 43.3125C21.4542 44.7708 23.226 45.9167 25.2384 46.75C27.2945 47.5833 29.4819 48 31.8005 48C34.1191 48 36.3064 47.5833 38.3626 46.75C40.375 45.9167 42.1467 44.7708 43.6779 43.3125C45.209 41.8542 46.4121 40.1667 47.287 38.25C48.162 36.2917 48.5995 34.2083 48.5995 32C48.5995 29.7917 48.162 27.7083 47.287 25.75C46.4121 23.8333 45.209 22.1458 43.6779 20.6875C42.1467 19.2292 40.375 18.0833 38.3626 17.25C36.3064 16.4167 34.1191 16 31.8005 16C29.4819 16 27.2945 16.4167 25.2384 17.25C23.226 18.0833 21.4542 19.2292 19.9231 20.6875C18.3919 22.1458 17.1888 23.8333 16.3139 25.75C15.439 27.7083 15.0015 29.7917 15.0015 32ZM23.9259 20.1875L25.6321 23.4375C25.6758 23.5208 25.7415 23.6042 25.829 23.6875C25.9164 23.7708 26.0039 23.8333 26.0914 23.875L29.2412 25.4375L27.0101 29H23.401C23.1822 29 22.9744 29.0625 22.7776 29.1875C22.5807 29.3125 22.4604 29.4792 22.4167 29.6875L21.5636 32H17.1014C17.1014 29.5417 17.7248 27.2708 18.9716 25.1875C20.2184 23.1042 21.8698 21.4375 23.9259 20.1875ZM31.8005 43V46C29.2194 46 26.8461 45.4167 24.6806 44.25C22.5151 43.0833 20.7761 41.5417 19.4637 39.625L24.254 38.125L27.9944 40.8125C28.2132 40.9375 28.4429 41 28.6835 41C28.9241 41 29.1319 40.9167 29.3069 40.75L33.8347 37.3125L36.0002 39.4375V41.25L32.5879 42C32.3692 42.0833 32.1833 42.2083 32.0301 42.375C31.877 42.5417 31.8005 42.75 31.8005 43ZM46.4996 32C46.4996 33.0833 46.3683 34.1458 46.1059 35.1875C45.8434 36.2292 45.4715 37.2083 44.9903 38.125L42.6279 35.875L44.2028 33.5625C44.2903 33.4375 44.345 33.3021 44.3669 33.1562C44.3888 33.0104 44.3997 32.875 44.3997 32.75L43.3498 28.75C43.306 28.625 43.2404 28.5104 43.1529 28.4062C43.0654 28.3021 42.956 28.2083 42.8248 28.125C42.6936 28.0417 42.5514 28 42.3983 28C42.2452 28 42.103 28.0208 41.9717 28.0625L39.5438 28.8125L37.1158 25.8125L37.8376 23H43.0217C44.1153 24.2083 44.9684 25.5833 45.5809 27.125C46.1933 28.6667 46.4996 30.2917 46.4996 32ZM37.0502 21C36.7877 21 36.5689 21.0729 36.3939 21.2188C36.219 21.3646 36.0877 21.5417 36.0002 21.75L34.9503 25.75C34.9503 25.9167 34.9612 26.0729 34.9831 26.2188C35.005 26.3646 35.0596 26.5 35.1471 26.625L38.297 30.625C38.4282 30.7917 38.6032 30.9062 38.8219 30.9688C39.0407 31.0312 39.2594 31.0208 39.4781 30.9375L41.578 30.3125L42.2342 32.8125L40.3968 35.4375C40.2656 35.6458 40.2109 35.8646 40.2328 36.0938C40.2546 36.3229 40.3531 36.5208 40.5281 36.6875L43.8747 39.9375C42.7373 41.5208 41.3046 42.8333 39.5766 43.875C37.8485 44.9167 35.9565 45.5625 33.9003 45.8125V43.75L37.3126 43C37.5314 42.9167 37.7173 42.7917 37.8704 42.625C38.0235 42.4583 38.1001 42.25 38.1001 42V39C38.1001 38.875 38.0782 38.75 38.0345 38.625C37.9907 38.5 37.9032 38.3958 37.772 38.3125L34.6222 35.3125C34.4472 35.1042 34.2284 35 33.966 35C33.7035 35 33.4629 35.0833 33.2441 35.25L28.6507 38.75L25.1071 36.1875C24.9321 36.1042 24.7681 36.0521 24.615 36.0312C24.4618 36.0104 24.2978 36.0208 24.1228 36.0625L18.4794 37.875C18.1732 37.25 17.9216 36.6146 17.7248 35.9688C17.5279 35.3229 17.3857 34.6667 17.2982 34H22.351C22.5698 34 22.7776 33.9375 22.9744 33.8125C23.1713 33.6875 23.2916 33.5208 23.3354 33.3125L24.1884 31H27.6007C27.7757 31 27.9507 30.9583 28.1257 30.875C28.3007 30.7917 28.4319 30.6667 28.5194 30.5L31.6692 25.5C31.713 25.375 31.7458 25.25 31.7677 25.125C31.7895 25 31.7786 24.875 31.7348 24.75C31.6911 24.5833 31.6255 24.4479 31.538 24.3438C31.4505 24.2396 31.3411 24.1667 31.2099 24.125L27.3382 22.25L25.7633 19.25C26.682 18.8333 27.6445 18.5208 28.6507 18.3125C29.6568 18.1042 30.7068 18 31.8005 18C33.5066 18 35.1362 18.2708 36.6892 18.8125C38.2423 19.3542 39.6312 20.0833 40.8562 21H37.0502ZM60.1488 29C59.4488 29 58.8363 29.1875 58.3114 29.5625C57.7864 29.9375 57.4145 30.4167 57.1958 31H50.6993V33H57.1958C57.4145 33.5833 57.7864 34.0625 58.3114 34.4375C58.8363 34.8125 59.4488 35 60.1488 35C61.0237 35 61.7674 34.7083 62.3799 34.125C62.9923 33.5417 63.2986 32.8333 63.2986 32C63.2986 31.1667 62.9923 30.4583 62.3799 29.875C61.7674 29.2917 61.0237 29 60.1488 29ZM60.1488 33C59.8425 33 59.591 32.9062 59.3941 32.7188C59.1973 32.5312 59.0988 32.2917 59.0988 32C59.0988 31.7083 59.1973 31.4688 59.3941 31.2812C59.591 31.0938 59.8425 31 60.1488 31C60.455 31 60.7065 31.0938 60.9034 31.2812C61.1003 31.4688 61.1987 31.7083 61.1987 32C61.1987 32.2917 61.1003 32.5312 60.9034 32.7188C60.7065 32.9062 60.455 33 60.1488 33ZM60.1488 49C60.1488 48.1667 59.8425 47.4583 59.2301 46.875C58.6176 46.2917 57.8739 46 56.9989 46C56.299 46 55.6865 46.1875 55.1616 46.5625C54.6366 46.9375 54.2647 47.4167 54.046 48H52.4711L50.6337 43.625C50.5462 43.4583 50.415 43.3125 50.24 43.1875C50.065 43.0625 49.8681 43 49.6494 43H46.4996V45H48.9276L50.7649 49.375C50.8524 49.5417 50.9837 49.6875 51.1587 49.8125C51.3337 49.9375 51.5305 50 51.7493 50H54.046C54.2647 50.5833 54.6366 51.0625 55.1616 51.4375C55.6865 51.8125 56.299 52 56.9989 52C57.8739 52 58.6176 51.7083 59.2301 51.125C59.8425 50.5417 60.1488 49.8333 60.1488 49ZM55.949 49C55.949 48.7083 56.0474 48.4688 56.2443 48.2812C56.4412 48.0938 56.6927 48 56.9989 48C57.3052 48 57.5567 48.0938 57.7536 48.2812C57.9505 48.4688 58.0489 48.7083 58.0489 49C58.0489 49.2917 57.9505 49.5312 57.7536 49.7188C57.5567 49.9062 57.3052 50 56.9989 50C56.6927 50 56.4412 49.9062 56.2443 49.7188C56.0474 49.5312 55.949 49.2917 55.949 49ZM48.5995 61C49.4744 61 50.2181 60.7083 50.8306 60.125C51.443 59.5417 51.7493 58.8333 51.7493 58C51.7493 57.1667 51.443 56.4583 50.8306 55.875C50.2181 55.2917 49.4744 55 48.5995 55C47.8995 55 47.287 55.1875 46.7621 55.5625C46.2371 55.9375 45.8652 56.4167 45.6465 57H43.0873L41.1843 50.75C41.1405 50.5 41.0202 50.3125 40.8234 50.1875C40.6265 50.0625 40.4187 50 40.2 50H34.9503V52H39.4125L41.3155 58.25C41.3593 58.5 41.4796 58.6875 41.6764 58.8125C41.8733 58.9375 42.0811 59 42.2998 59H45.6465C45.8652 59.5833 46.2371 60.0625 46.7621 60.4375C47.287 60.8125 47.8995 61 48.5995 61ZM48.5995 57C48.9057 57 49.1572 57.0938 49.3541 57.2812C49.551 57.4688 49.6494 57.7083 49.6494 58C49.6494 58.2917 49.551 58.5312 49.3541 58.7188C49.1572 58.9062 48.9057 59 48.5995 59C48.2932 59 48.0417 58.9062 47.8448 58.7188C47.6479 58.5312 47.5495 58.2917 47.5495 58C47.5495 57.7083 47.6479 57.4688 47.8448 57.2812C48.0417 57.0938 48.2932 57 48.5995 57ZM40.0687 13.4375L42.956 8H45.6465C45.8652 8.58333 46.248 9.0625 46.7949 9.4375C47.3417 9.8125 47.9432 10 48.5995 10C48.687 10 48.7635 10 48.8291 10C48.8947 10 48.9713 9.97917 49.0588 9.9375C49.4963 9.89583 49.89 9.77083 50.24 9.5625C50.59 9.35417 50.8962 9.08333 51.1587 8.75C51.3774 8.45833 51.5415 8.11458 51.6508 7.71875C51.7602 7.32292 51.7711 6.9375 51.6836 6.5625C51.5524 5.72917 51.1368 5.07292 50.4368 4.59375C49.7369 4.11458 48.9713 3.9375 48.1401 4.0625C47.7026 4.10417 47.3089 4.22917 46.9589 4.4375C46.6089 4.64583 46.3027 4.91667 46.0402 5.25C45.9527 5.33333 45.8762 5.44792 45.8106 5.59375C45.7449 5.73958 45.6903 5.875 45.6465 6H42.2998C42.0811 6 41.8952 6.05208 41.7421 6.15625C41.5889 6.26042 41.4686 6.39583 41.3811 6.5625L38.4938 12H34.9503V14H39.15C39.3688 14 39.5547 13.9479 39.7078 13.8438C39.8609 13.7396 39.9812 13.6042 40.0687 13.4375ZM47.7464 6.4375C47.8339 6.3125 47.9323 6.21875 48.0417 6.15625C48.151 6.09375 48.2932 6.04167 48.4682 6C48.4682 6 48.4791 6 48.501 6C48.5229 6 48.5557 6 48.5995 6C48.8619 6 49.0916 6.08333 49.2885 6.25C49.4853 6.41667 49.6056 6.625 49.6494 6.875C49.6494 7 49.6385 7.125 49.6166 7.25C49.5947 7.375 49.54 7.47917 49.4525 7.5625C49.365 7.6875 49.2666 7.78125 49.1572 7.84375C49.0479 7.90625 48.9057 7.95833 48.7307 8C48.4682 8.04167 48.2167 7.97917 47.9761 7.8125C47.7354 7.64583 47.5933 7.41667 47.5495 7.125C47.5495 7 47.5605 6.875 47.5823 6.75C47.6042 6.625 47.6589 6.52083 47.7464 6.4375ZM55.0959 17C55.3147 17.5833 55.6865 18.0625 56.2115 18.4375C56.7365 18.8125 57.3489 19 58.0489 19C58.9238 19 59.6675 18.7083 60.28 18.125C60.8925 17.5417 61.1987 16.8333 61.1987 16C61.1987 15.1667 60.8925 14.4583 60.28 13.875C59.6675 13.2917 58.9238 13 58.0489 13C57.3489 13 56.7365 13.1875 56.2115 13.5625C55.6865 13.9375 55.3147 14.4167 55.0959 15H50.6993C50.5243 15 50.3603 15.0417 50.2072 15.125C50.0541 15.2083 49.9338 15.3125 49.8463 15.4375L48.0089 18H45.4496V20H48.5995C48.7744 20 48.9385 19.9583 49.0916 19.875C49.2447 19.7917 49.365 19.6875 49.4525 19.5625L51.2899 17H55.0959ZM58.0489 15C58.3551 15 58.6067 15.0938 58.8035 15.2812C59.0004 15.4688 59.0988 15.7083 59.0988 16C59.0988 16.2917 59.0004 16.5312 58.8035 16.7188C58.6067 16.9062 58.3551 17 58.0489 17C57.7427 17 57.4911 16.9062 57.2942 16.7188C57.0974 16.5312 56.9989 16.2917 56.9989 16C56.9989 15.7083 57.0974 15.4688 57.2942 15.2812C57.4911 15.0938 57.7427 15 58.0489 15ZM1.3523 27C1.04607 27 0.794526 27.0938 0.597663 27.2812C0.4008 27.4688 0.302368 27.7083 0.302368 28V36C0.302368 36.2917 0.4008 36.5312 0.597663 36.7188C0.794526 36.9062 1.04607 37 1.3523 37H3.91153C4.04277 37.6667 4.20682 38.3229 4.40368 38.9688C4.60055 39.6146 4.80835 40.2708 5.02708 40.9375L2.79597 42.1875C2.53348 42.3125 2.36943 42.5104 2.30381 42.7812C2.23819 43.0521 2.271 43.3125 2.40224 43.5625L6.60199 50.4375C6.77698 50.6875 6.99571 50.8542 7.2582 50.9375C7.52068 51.0208 7.78317 50.9792 8.04565 50.8125L10.2768 49.625C10.758 50.125 11.2501 50.6146 11.7532 51.0938C12.2563 51.5729 12.7704 52.0417 13.2953 52.5L12.0485 54.625C11.8735 54.875 11.8298 55.125 11.9173 55.375C12.0048 55.625 12.1798 55.8333 12.4423 56L19.6606 60C19.9231 60.125 20.1965 60.1562 20.4808 60.0938C20.7652 60.0312 20.973 59.875 21.1042 59.625L22.4167 57.5C23.0729 57.7083 23.751 57.9062 24.4509 58.0938C25.1509 58.2812 25.8508 58.4375 26.5508 58.5625V61C26.5508 61.2917 26.6492 61.5312 26.8461 61.7188C27.0429 61.9062 27.2945 62 27.6007 62H31.8005C32.1067 62 32.3582 61.9062 32.5551 61.7188C32.752 61.5312 32.8504 61.2917 32.8504 61V51C32.8504 50.7083 32.752 50.4688 32.5551 50.2812C32.3582 50.0938 32.1067 50 31.8005 50C29.1756 50 26.7258 49.5208 24.4509 48.5625C22.176 47.6458 20.1746 46.3646 18.4466 44.7188C16.7186 43.0729 15.3733 41.1667 14.4109 39C13.4047 36.8333 12.9016 34.5 12.9016 32C12.9016 29.5 13.4047 27.1667 14.4109 25C15.3733 22.8333 16.7186 20.9271 18.4466 19.2812C20.1746 17.6354 22.176 16.3542 24.4509 15.4375C26.7258 14.4792 29.1756 14 31.8005 14C32.1067 14 32.3582 13.9062 32.5551 13.7188C32.752 13.5312 32.8504 13.2917 32.8504 13V3C32.8504 2.70833 32.752 2.46875 32.5551 2.28125C32.3582 2.09375 32.1067 2 31.8005 2H27.6007C27.2945 2 27.0429 2.09375 26.8461 2.28125C26.6492 2.46875 26.5508 2.70833 26.5508 3V5.4375C25.8508 5.5625 25.1509 5.71875 24.4509 5.90625C23.751 6.09375 23.0729 6.29167 22.4167 6.5L21.1042 4.375C20.973 4.125 20.7652 3.96875 20.4808 3.90625C20.1965 3.84375 19.9231 3.875 19.6606 4L12.4423 8C12.1798 8.16667 12.0048 8.375 11.9173 8.625C11.8298 8.875 11.8735 9.125 12.0485 9.375L13.2953 11.5C12.7704 11.9583 12.2563 12.4271 11.7532 12.9062C11.2501 13.3854 10.758 13.875 10.2768 14.375L8.04565 13.1875C7.78317 13.0208 7.52068 12.9792 7.2582 13.0625C6.99571 13.1458 6.77698 13.3125 6.60199 13.5625L2.40224 20.4375C2.271 20.6875 2.23819 20.9479 2.30381 21.2188C2.36943 21.4896 2.53348 21.6875 2.79597 21.8125L5.02708 23.0625C4.80835 23.6875 4.60055 24.3333 4.40368 25C4.20682 25.6667 4.04277 26.3333 3.91153 27H1.3523ZM5.88016 28.125C6.0114 27.25 6.19732 26.3854 6.43794 25.5312C6.67855 24.6771 6.97384 23.8333 7.32382 23C7.41131 22.75 7.41131 22.5104 7.32382 22.2812C7.23632 22.0521 7.08321 21.875 6.86447 21.75L4.7646 20.625L7.91441 15.375L10.0143 16.5625C10.233 16.6875 10.4736 16.7292 10.7361 16.6875C10.9986 16.6458 11.2173 16.5208 11.3923 16.3125C11.961 15.6042 12.5735 14.9375 13.2297 14.3125C13.8859 13.6875 14.5859 13.1042 15.3296 12.5625C15.5483 12.3958 15.6796 12.1875 15.7233 11.9375C15.7671 11.6875 15.7233 11.4583 15.5921 11.25L14.3453 9.25L19.8574 6.25L21.0386 8.25C21.1699 8.45833 21.3558 8.60417 21.5964 8.6875C21.837 8.77083 22.0886 8.77083 22.351 8.6875C23.226 8.35417 24.1119 8.07292 25.0087 7.84375C25.9055 7.61458 26.8133 7.4375 27.732 7.3125C27.9944 7.27083 28.2132 7.15625 28.3882 6.96875C28.5632 6.78125 28.6507 6.5625 28.6507 6.3125V4H30.7505V12C27.9944 12.1667 25.3915 12.7917 22.9416 13.875C20.5355 14.9583 18.4247 16.3958 16.6092 18.1875C14.7937 19.9792 13.3828 22.0625 12.3766 24.4375C11.3267 26.8125 10.8017 29.3333 10.8017 32C10.8017 34.6667 11.3267 37.1875 12.3766 39.5625C13.3828 41.9375 14.7937 44.0208 16.6092 45.8125C18.4247 47.6042 20.5355 49.0417 22.9416 50.125C25.3915 51.2083 27.9944 51.8333 30.7505 52V60H28.6507V57.6875C28.6507 57.4375 28.5632 57.2188 28.3882 57.0312C28.2132 56.8438 27.9944 56.7292 27.732 56.6875C26.8133 56.5625 25.9055 56.3854 25.0087 56.1562C24.1119 55.9271 23.226 55.6458 22.351 55.3125C22.0886 55.2292 21.837 55.2292 21.5964 55.3125C21.3558 55.3958 21.1699 55.5417 21.0386 55.75L19.8574 57.75L14.3453 54.75L15.5921 52.75C15.7233 52.5417 15.7671 52.3125 15.7233 52.0625C15.6796 51.8125 15.5483 51.6042 15.3296 51.4375C14.5859 50.8958 13.8859 50.3125 13.2297 49.6875C12.5735 49.0625 11.961 48.3958 11.3923 47.6875C11.2173 47.4792 10.9986 47.3542 10.7361 47.3125C10.4736 47.2708 10.233 47.3125 10.0143 47.4375L7.91441 48.625L4.7646 43.375L6.86447 42.25C7.08321 42.125 7.23632 41.9479 7.32382 41.7188C7.41131 41.4896 7.41131 41.25 7.32382 41C6.97384 40.1667 6.67855 39.3229 6.43794 38.4688C6.19732 37.6146 6.0114 36.75 5.88016 35.875C5.83641 35.625 5.7161 35.4167 5.51924 35.25C5.32238 35.0833 5.0927 35 4.83022 35H2.40224V29H4.83022C5.0927 29 5.32238 28.9167 5.51924 28.75C5.7161 28.5833 5.83641 28.375 5.88016 28.125Z" fill="white"/>
</g>
<defs>
<clipPath id="clip0_59_4017">
<rect width="67.1959" height="64" fill="white" transform="matrix(1 0 0 -1 0.302368 64)"/>
</clipPath>
</defs>
</svg>
