<svg width="68" height="64" viewBox="0 0 68 64" fill="none" xmlns="http://www.w3.org/2000/svg">
<g clip-path="url(#clip0_59_4025)">
<path d="M52.0469 2.3125L49.1595 5H45.4191C45.1129 5 44.8613 5.09375 44.6645 5.28125C44.4676 5.46875 44.3692 5.70833 44.3692 6V9.5625L40.76 13H37.0196C36.7134 13 36.4619 13.0938 36.265 13.2812C36.0681 13.4688 35.9697 13.7083 35.9697 14V17.5625L32.3605 21H28.6201C28.3139 21 28.0624 21.0938 27.8655 21.2812C27.6686 21.4688 27.5702 21.7083 27.5702 22V25.5625L22.9111 30H19.3676C19.6738 28.2917 20.3191 26.7396 21.3034 25.3438C22.2877 23.9479 23.5017 22.8125 24.9454 21.9375L25.011 21.875L23.8298 20.1875C21.7737 21.4792 20.1332 23.1562 18.9082 25.2188C17.6833 27.2812 17.0708 29.5417 17.0708 32C17.0708 33.9167 17.4646 35.7292 18.252 37.4375C18.9957 39.1458 20.0347 40.6354 21.369 41.9062C22.7033 43.1771 24.2673 44.1667 26.0609 44.875C27.8546 45.625 29.7576 46 31.77 46H45.2879C43.4942 47.5417 41.4491 48.7604 39.1523 49.6562C36.8556 50.5521 34.3948 51 31.77 51C29.0139 51 26.4328 50.5 24.0267 49.5C21.5768 48.5 19.4551 47.1458 17.6614 45.4375C15.8678 43.7292 14.446 41.7083 13.3961 39.375C12.3461 37.0833 11.8212 34.625 11.8212 32H9.72128C9.72128 32.875 9.77596 33.75 9.88533 34.625C9.9947 35.5 10.1588 36.3333 10.3775 37.125V37H2.37172V27H10.7712C10.99 27 11.1868 26.9479 11.3618 26.8438C11.5368 26.7396 11.668 26.5833 11.7555 26.375L13.4617 22.5C13.4617 22.4167 13.4726 22.3438 13.4945 22.2812C13.5164 22.2188 13.5273 22.1667 13.5273 22.125C13.5273 21.9583 13.4945 21.8125 13.4289 21.6875C13.3632 21.5625 13.2867 21.4583 13.1992 21.375L7.2933 15.75L14.7085 8.6875L20.6144 14.3125C20.7019 14.3958 20.8112 14.4688 20.9425 14.5312C21.0737 14.5938 21.2268 14.625 21.4018 14.625C21.4456 14.625 21.5003 14.6146 21.5659 14.5938C21.6315 14.5729 21.7081 14.5625 21.7956 14.5625L25.8641 12.9375C26.0828 12.8542 26.2468 12.7292 26.3562 12.5625C26.4656 12.3958 26.5203 12.2083 26.5203 12V4H37.0196V10H39.1195V3C39.1195 2.70833 39.0211 2.46875 38.8242 2.28125C38.6273 2.09375 38.3758 2 38.0696 2H25.4703C25.1641 2 24.9126 2.09375 24.7157 2.28125C24.5188 2.46875 24.4204 2.70833 24.4204 3V11.3125L21.5987 12.4375L15.4303 6.5625C15.3428 6.47917 15.2334 6.40625 15.1022 6.34375C14.971 6.28125 14.8397 6.25 14.7085 6.25C14.5335 6.25 14.3913 6.28125 14.2819 6.34375C14.1726 6.40625 14.0523 6.47917 13.921 6.5625L5.06219 15C4.97469 15.125 4.89813 15.2396 4.83251 15.3438C4.76689 15.4479 4.73408 15.5833 4.73408 15.75C4.73408 15.875 4.76689 16 4.83251 16.125C4.89813 16.25 4.97469 16.3542 5.06219 16.4375L11.2306 22.3125L10.0494 25H1.32179C1.01556 25 0.764008 25.0938 0.567145 25.2812C0.370282 25.4688 0.271851 25.7083 0.271851 26V38C0.271851 38.2917 0.370282 38.5312 0.567145 38.7188C0.764008 38.9062 1.01556 39 1.32179 39H10.0494L11.2306 41.6875L5.06219 47.5625C4.97469 47.6458 4.89813 47.75 4.83251 47.875C4.76689 48 4.73408 48.125 4.73408 48.25C4.73408 48.4167 4.76689 48.5521 4.83251 48.6562C4.89813 48.7604 4.97469 48.875 5.06219 49L13.921 57.4375C14.0523 57.5208 14.1726 57.5938 14.2819 57.6562C14.3913 57.7188 14.5335 57.75 14.7085 57.75C14.8397 57.75 14.971 57.7188 15.1022 57.6562C15.2334 57.5938 15.3428 57.5208 15.4303 57.4375L21.5987 51.5625L24.4204 52.6875V61C24.4204 61.2917 24.5188 61.5312 24.7157 61.7188C24.9126 61.9062 25.1641 62 25.4703 62H38.0696C38.3758 62 38.6273 61.9062 38.8242 61.7188C39.0211 61.5312 39.1195 61.2917 39.1195 61V52.6875L41.9412 51.5625L48.1096 57.4375C48.1971 57.5208 48.3065 57.5938 48.4377 57.6562C48.5689 57.7188 48.7002 57.75 48.8314 57.75C49.0064 57.75 49.1486 57.7188 49.258 57.6562C49.3673 57.5938 49.4876 57.5208 49.6189 57.4375L58.4777 49C58.5652 48.875 58.6418 48.7604 58.7074 48.6562C58.773 48.5521 58.8058 48.4167 58.8058 48.25C58.8058 48.125 58.773 48 58.7074 47.875C58.6418 47.75 58.5652 47.6458 58.4777 47.5625L56.8372 46H62.2181C62.5243 46 62.7759 45.9062 62.9728 45.7188C63.1696 45.5312 63.2681 45.2917 63.2681 45V11C63.2681 10.7083 63.1696 10.4688 62.9728 10.2812C62.7759 10.0938 62.5243 10 62.2181 10H53.8186C53.5124 10 53.2608 10.0938 53.064 10.2812C52.8671 10.4688 52.7687 10.7083 52.7687 11V18H45.4191C45.1129 18 44.8613 18.0938 44.6645 18.2812C44.4676 18.4688 44.3692 18.7083 44.3692 19V24H37.0196C36.7134 24 36.4619 24.0938 36.265 24.2812C36.0681 24.4688 35.9697 24.7083 35.9697 25V31H28.6201C28.3139 31 28.0624 31.0938 27.8655 31.2812C27.6686 31.4688 27.5702 31.7083 27.5702 32V36H19.8925C19.6738 35.4167 19.4988 34.7812 19.3676 34.0938C19.2363 33.4062 19.1707 32.7083 19.1707 32H23.3705C23.5017 32 23.6329 31.9688 23.7642 31.9062C23.8954 31.8438 24.0048 31.7708 24.0923 31.6875L29.0795 27H32.8199C33.1261 27 33.3777 26.9062 33.5745 26.7188C33.7714 26.5312 33.8698 26.2917 33.8698 26V22.4375L37.479 19H41.2194C41.5256 19 41.7772 18.9062 41.974 18.7188C42.1709 18.5312 42.2693 18.2917 42.2693 18V14.4375L45.8785 11H49.6189C49.9251 11 50.1767 10.9062 50.3735 10.7188C50.5704 10.5312 50.6688 10.2917 50.6688 10V6.4375L53.228 4H63.2681V2H52.7687C52.6374 2 52.5062 2.03125 52.375 2.09375C52.2437 2.15625 52.1343 2.22917 52.0469 2.3125ZM14.7085 55.3125L7.2933 48.25L12.9367 42.875C13.8554 44.3333 14.9382 45.6562 16.185 46.8438C17.4318 48.0312 18.777 49.0417 20.2206 49.875L20.3519 49.9375L14.7085 55.3125ZM26.5203 60V52.375C27.3077 52.5833 28.1499 52.7396 29.0467 52.8438C29.9435 52.9479 30.8513 53 31.77 53C32.6886 53 33.6073 52.9479 34.526 52.8438C35.4447 52.7396 36.3197 52.5833 37.1509 52.375H37.0196V60H26.5203ZM56.2466 48.25L48.8314 55.3125L43.188 49.9375C44.1505 49.3958 45.0473 48.7917 45.8785 48.125C46.7097 47.4583 47.4753 46.75 48.1752 46H53.8842L56.2466 48.25ZM54.8686 12H61.1682V44H54.8686V12ZM46.4691 20H52.7687V44H46.4691V20ZM38.0696 26H44.3692V44H38.0696V26ZM29.6701 33H35.9697V44H31.77C31.42 44 31.0591 43.9896 30.6872 43.9688C30.3153 43.9479 29.9544 43.8958 29.6045 43.8125H29.6701V33ZM27.5702 38V43.3125C26.1265 42.8125 24.836 42.1146 23.6986 41.2188C22.5611 40.3229 21.6206 39.2708 20.8769 38.0625V38H27.5702ZM31.77 25H29.6701V23H31.77V25ZM40.1694 17H38.0696V15H40.1694V17ZM48.5689 9H46.4691V7H48.5689V9Z" fill="white"/>
</g>
<defs>
<clipPath id="clip0_59_4025">
<rect width="67.1959" height="64" fill="white" transform="matrix(1 0 0 -1 0.271851 64)"/>
</clipPath>
</defs>
</svg>
