<svg width="68" height="64" viewBox="0 0 68 64" fill="none" xmlns="http://www.w3.org/2000/svg">
<g clip-path="url(#clip0_59_4013)">
<path d="M50.7145 48C51.5894 48 52.3331 47.7083 52.9456 47.125C53.558 46.5417 53.8643 45.8333 53.8643 45C53.8643 44.1667 53.558 43.4583 52.9456 42.875C52.3331 42.2917 51.5894 42 50.7145 42C49.8395 42 49.0958 42.2917 48.4833 42.875C47.8709 43.4583 47.5647 44.1667 47.5647 45C47.5647 45.8333 47.8709 46.5417 48.4833 47.125C49.0958 47.7083 49.8395 48 50.7145 48ZM50.7145 44C51.0207 44 51.2722 44.0938 51.4691 44.2812C51.666 44.4688 51.7644 44.7083 51.7644 45C51.7644 45.2917 51.666 45.5312 51.4691 45.7188C51.2722 45.9062 51.0207 46 50.7145 46C50.4082 46 50.1567 45.9062 49.9598 45.7188C49.763 45.5312 49.6645 45.2917 49.6645 45C49.6645 44.7083 49.763 44.4688 49.9598 44.2812C50.1567 44.0938 50.4082 44 50.7145 44ZM61.4107 40.75C61.2357 40.4167 61.181 40.0521 61.2466 39.6562C61.3123 39.2604 61.4982 38.9375 61.8044 38.6875L63.3137 37.25L58.8515 33L57.3422 34.4375C57.0797 34.7292 56.7407 34.9062 56.3251 34.9688C55.9095 35.0312 55.5048 34.9792 55.1111 34.8125C54.7173 34.6875 54.4111 34.4583 54.1924 34.125C53.9736 33.7917 53.8643 33.4375 53.8643 33.0625V31H51.6988C51.655 30.2083 51.5566 29.4167 51.4035 28.625C51.2504 27.8333 51.0426 27.0833 50.7801 26.375L62.92 14.75C63.7074 14 64.3199 13.1354 64.7574 12.1562C65.1948 11.1771 65.4136 10.1458 65.4136 9.0625C65.4136 6.85417 64.5824 4.95833 62.92 3.375C61.2576 1.79167 59.2671 1 56.9485 1C55.811 1 54.7283 1.20833 53.7002 1.625C52.6722 2.04167 51.7644 2.625 50.9769 3.375L38.8371 14.9375C38.0496 14.6875 37.2403 14.4896 36.4091 14.3438C35.5779 14.1979 34.7248 14.1042 33.8499 14.0625C33.1499 12.8542 32.1546 11.875 30.8641 11.125C29.5736 10.375 28.1408 10 26.5659 10C26.1722 10 25.7785 10.0312 25.3847 10.0938C24.991 10.1562 24.6192 10.2292 24.2692 10.3125C23.3505 8.6875 22.0709 7.39583 20.4304 6.4375C18.7898 5.47917 16.9852 5 15.0166 5C12.1293 5 9.65757 5.97917 7.60144 7.9375C5.54531 9.89583 4.51725 12.25 4.51725 15C4.51725 15.375 4.53912 15.75 4.58287 16.125C4.62662 16.5 4.69224 16.875 4.77974 17.25C3.51106 17.625 2.45019 18.3438 1.59712 19.4062C0.744042 20.4688 0.317505 21.6667 0.317505 23C0.317505 24.6667 0.929968 26.0833 2.15489 27.25C3.37982 28.4167 4.86723 29 6.61712 29H14.2292C14.1417 29.5 14.076 30 14.0323 30.5C13.9886 31 13.9667 31.5 13.9667 32C13.9667 33.0833 14.0651 34.0833 14.262 35C14.4588 35.9167 14.7323 36.75 15.0822 37.5L5.69843 46.4375L0.514368 59.375C0.426873 59.5 0.372189 59.6458 0.350315 59.8125C0.328442 59.9792 0.317505 60.1458 0.317505 60.3125C0.317505 61.0625 0.590926 61.6979 1.13777 62.2188C1.68461 62.7396 2.35176 63 3.13921 63C3.3142 63 3.48919 62.9896 3.66418 62.9688C3.83917 62.9479 3.99228 62.8958 4.12353 62.8125L17.7071 57.875L24.5317 51.3125C24.5317 51.4375 24.5207 51.5521 24.4989 51.6562C24.477 51.7604 24.466 51.875 24.466 52C24.466 52.375 24.5426 52.7396 24.6957 53.0938C24.8488 53.4479 25.0348 53.75 25.2535 54C25.0348 54.25 24.8488 54.5521 24.6957 54.9062C24.5426 55.2604 24.466 55.625 24.466 56C24.466 56.7083 24.6848 57.3229 25.1223 57.8438C25.5597 58.3646 26.1284 58.7083 26.8284 58.875C27.2659 60.125 28.0315 61.125 29.1251 61.875C30.2188 62.625 31.4656 63 32.8655 63C34.2655 63 35.5123 62.625 36.6059 61.875C37.6996 61.125 38.4652 60.125 38.9027 58.875C39.6026 58.7083 40.1714 58.3646 40.6088 57.8438C41.0463 57.3229 41.265 56.7083 41.265 56C41.265 55.9583 41.265 55.9167 41.265 55.875C41.265 55.8333 41.265 55.8125 41.265 55.8125L42.5775 57L44.0867 55.5625C44.3492 55.2708 44.6883 55.0938 45.1039 55.0312C45.5195 54.9688 45.9241 55.0208 46.3179 55.1875C46.7116 55.3125 47.0178 55.5417 47.2365 55.875C47.4553 56.2083 47.5647 56.5625 47.5647 56.9375V59H53.8643V56.9375C53.8643 56.5625 53.9736 56.2083 54.1924 55.875C54.4111 55.5417 54.7392 55.3125 55.1767 55.1875C55.5267 55.0208 55.9095 54.9688 56.3251 55.0312C56.7407 55.0938 57.0797 55.2708 57.3422 55.5625L58.8515 57L63.3137 52.75L61.8044 51.3125C61.4982 51.0625 61.3123 50.7396 61.2466 50.3438C61.181 49.9479 61.2357 49.5625 61.4107 49.1875C61.5419 48.8125 61.7825 48.5208 62.1325 48.3125C62.4825 48.1042 62.8544 48 63.2481 48H65.4136V42H63.2481C62.8544 42 62.4825 41.8958 62.1325 41.6875C61.7825 41.4792 61.5419 41.1667 61.4107 40.75ZM45.6616 43.75C46.2304 43.2083 46.7991 42.6562 47.3678 42.0938C47.9365 41.5312 48.4615 40.9375 48.9427 40.3125C49.2052 40.2292 49.4895 40.1562 49.7958 40.0938C50.102 40.0312 50.4082 40 50.7145 40C52.1581 40 53.394 40.4896 54.4221 41.4688C55.4501 42.4479 55.9641 43.625 55.9641 45C55.9641 46.375 55.4501 47.5521 54.4221 48.5312C53.394 49.5104 52.1581 50 50.7145 50C49.2708 50 48.0349 49.5104 47.0069 48.5312C45.9788 47.5521 45.4648 46.375 45.4648 45C45.4648 44.7917 45.4867 44.5833 45.5304 44.375C45.5742 44.1667 45.6179 43.9583 45.6616 43.75ZM46.9084 20.0625L51.7644 15.4375L55.5048 19L49.927 24.3125C49.5333 23.5625 49.0849 22.8229 48.5818 22.0938C48.0787 21.3646 47.5209 20.6875 46.9084 20.0625ZM48.024 9L49.6645 7.4375L58.6546 16L57.0141 17.5625L48.024 9ZM56.9485 3C58.6984 3 60.1967 3.59375 61.4435 4.78125C62.6903 5.96875 63.3137 7.39583 63.3137 9.0625C63.3137 9.89583 63.1497 10.6771 62.8215 11.4062C62.4934 12.1354 62.045 12.7917 61.4763 13.375L60.1639 14.5625L51.1738 6L52.4206 4.75C53.0331 4.20833 53.7221 3.78125 54.4877 3.46875C55.2533 3.15625 56.0735 3 56.9485 3ZM46.5147 10.4375L50.2551 14L45.3992 18.625C44.7429 18.0417 44.0321 17.5104 43.2665 17.0312C42.5009 16.5521 41.7244 16.125 40.9369 15.75L46.5147 10.4375ZM49.6645 32C49.6645 34.5833 49.0849 36.6354 47.9256 38.1562C46.7663 39.6771 45.4648 41.1042 44.0211 42.4375C43.0149 43.3958 42.0306 44.3854 41.0682 45.4062C40.1057 46.4271 39.3183 47.6458 38.7058 49.0625C38.6183 49.0208 38.5199 49 38.4105 49C38.3012 49 38.2027 49 38.1152 49H33.9155V44C33.9155 43.1667 33.6092 42.4583 32.9968 41.875C32.3843 41.2917 31.6406 41 30.7657 41H28.6658C28.3596 41 28.108 40.9062 27.9112 40.7188C27.7143 40.5312 27.6159 40.2917 27.6159 40C27.6159 39.7083 27.7143 39.4688 27.9112 39.2812C28.108 39.0938 28.3596 39 28.6658 39H39.1652C40.0401 39 40.7838 38.7083 41.3963 38.125C42.0087 37.5417 42.315 36.8333 42.315 36C42.315 35.1667 42.0087 34.4583 41.3963 33.875C40.7838 33.2917 40.0401 33 39.1652 33H30.7657C30.4594 33 30.2079 32.9062 30.011 32.7188C29.8142 32.5312 29.7157 32.2917 29.7157 32V29H34.9654C36.4091 29 37.6449 28.5104 38.673 27.5312C39.7011 26.5521 40.2151 25.375 40.2151 24C40.2151 22.625 39.7011 21.4479 38.673 20.4688C37.6449 19.4896 36.4091 19 34.9654 19C34.9654 19 34.9545 19 34.9326 19C34.9107 19 34.8998 19 34.8998 19C34.8998 18.8333 34.9107 18.6667 34.9326 18.5C34.9545 18.3333 34.9654 18.1667 34.9654 18C34.9654 17.6667 34.9435 17.3438 34.8998 17.0312C34.856 16.7188 34.7904 16.4167 34.7029 16.125C36.8028 16.3333 38.7714 16.8958 40.6088 17.8125C42.4025 18.7292 43.9774 19.8958 45.3335 21.3125C46.6897 22.7292 47.7396 24.3542 48.4833 26.1875C49.2708 28.0208 49.6645 29.9583 49.6645 32ZM26.5659 52C26.5659 51.7083 26.6644 51.4688 26.8612 51.2812C27.0581 51.0938 27.3096 51 27.6159 51H38.1152C38.4215 51 38.673 51.0938 38.8699 51.2812C39.0667 51.4688 39.1652 51.7083 39.1652 52C39.1652 52.2917 39.0667 52.5312 38.8699 52.7188C38.673 52.9062 38.4215 53 38.1152 53H27.6159C27.3096 53 27.0581 52.9062 26.8612 52.7188C26.6644 52.5312 26.5659 52.2917 26.5659 52ZM13.3761 52L21.0538 44.625C21.71 45.25 22.3334 45.8854 22.924 46.5312C23.5145 47.1771 24.0286 47.875 24.466 48.625L17.1165 55.5625L13.3761 52ZM2.41738 23C2.41738 21.9167 2.83298 20.9792 3.66418 20.1875C4.49538 19.3958 5.47969 19 6.61712 19C7.75456 19 8.73887 19.3958 9.57007 20.1875C10.4013 20.9792 10.8169 21.9167 10.8169 23H12.9167C12.9167 21.375 12.3262 19.9896 11.145 18.8438C9.9638 17.6979 8.54201 17.0833 6.87961 17C6.79211 16.6667 6.72649 16.3333 6.68275 16C6.639 15.6667 6.61712 15.3333 6.61712 15C6.61712 12.7917 7.43739 10.9062 9.07791 9.34375C10.7184 7.78125 12.698 7 15.0166 7C16.5478 7 17.9696 7.36458 19.282 8.09375C20.5944 8.82292 21.6225 9.83333 22.3662 11.125C21.2287 11.75 20.2882 12.5833 19.5445 13.625C18.8008 14.6667 18.3633 15.8333 18.232 17.125C17.3134 17.3333 16.5478 17.7917 15.9353 18.5C15.3228 19.2083 15.0166 20.0417 15.0166 21H17.1165C17.1165 20.4583 17.3243 19.9896 17.7399 19.5938C18.1555 19.1979 18.6476 19 19.2164 19C19.7851 19 20.2772 19.1979 20.6928 19.5938C21.1084 19.9896 21.3162 20.4583 21.3162 21H23.4161C23.4161 20.0833 23.1208 19.2708 22.5302 18.5625C21.9396 17.8542 21.2069 17.3958 20.3319 17.1875C20.5507 15.7292 21.2506 14.5 22.4318 13.5C23.613 12.5 24.991 12 26.5659 12C28.3158 12 29.8032 12.5833 31.0282 13.75C32.2531 14.9167 32.8655 16.3333 32.8655 18C32.8655 18.25 32.8437 18.5104 32.7999 18.7812C32.7562 19.0521 32.6906 19.3125 32.6031 19.5625C31.7719 19.9792 31.0828 20.5833 30.536 21.375C29.9892 22.1667 29.7157 23.0417 29.7157 24H31.8156C31.8156 23.1667 32.1218 22.4583 32.7343 21.875C33.3468 21.2917 34.0905 21 34.9654 21C35.8404 21 36.5841 21.2917 37.1965 21.875C37.809 22.4583 38.1152 23.1667 38.1152 24C38.1152 24.8333 37.809 25.5417 37.1965 26.125C36.5841 26.7083 35.8404 27 34.9654 27H6.61712C5.47969 27 4.49538 26.6042 3.66418 25.8125C2.83298 25.0208 2.41738 24.0833 2.41738 23ZM27.6159 29V32C27.6159 32.8333 27.9221 33.5417 28.5346 34.125C29.147 34.7083 29.8907 35 30.7657 35H39.1652C39.4714 35 39.7229 35.0938 39.9198 35.2812C40.1167 35.4688 40.2151 35.7083 40.2151 36C40.2151 36.2917 40.1167 36.5312 39.9198 36.7188C39.7229 36.9062 39.4714 37 39.1652 37H28.6658C27.7908 37 27.0471 37.2917 26.4347 37.875C25.8222 38.4583 25.516 39.1667 25.516 40C25.516 40.8333 25.8222 41.5417 26.4347 42.125C27.0471 42.7083 27.7908 43 28.6658 43H30.7657C31.0719 43 31.3234 43.0938 31.5203 43.2812C31.7172 43.4688 31.8156 43.7083 31.8156 44V49H27.6159C27.5284 49 27.4299 49 27.3206 49C27.2112 49 27.1128 49.0208 27.0253 49.0625C26.4128 47.6458 25.6254 46.4271 24.6629 45.4062C23.7005 44.3854 22.7162 43.3958 21.71 42.4375C20.2663 41.1042 18.9648 39.6771 17.8055 38.1562C16.6462 36.6354 16.0666 34.5833 16.0666 32C16.0666 31.5 16.0994 31 16.165 30.5C16.2306 30 16.3072 29.5 16.3947 29H27.6159ZM19.5445 43.25L11.8668 50.5625L8.12641 47L16.1322 39.375C16.6134 40.125 17.1493 40.8125 17.7399 41.4375C18.3305 42.0625 18.932 42.6667 19.5445 43.25ZM7.01085 48.8125L15.2135 56.625L8.25765 59.1875L4.32039 55.4375L7.01085 48.8125ZM3.40169 60.9375C3.18296 61.0208 2.96422 61 2.74548 60.875C2.52675 60.75 2.41738 60.5625 2.41738 60.3125C2.41738 60.2708 2.41738 60.2292 2.41738 60.1875C2.41738 60.1458 2.43925 60.1042 2.483 60.0625L3.53294 57.4375L6.15778 59.9375L3.40169 60.9375ZM32.8655 61C32.0781 61 31.3563 60.8229 30.7 60.4688C30.0438 60.1146 29.5407 59.625 29.1908 59H36.5403C36.1903 59.625 35.6872 60.1146 35.031 60.4688C34.3748 60.8229 33.653 61 32.8655 61ZM38.1152 57H27.6159C27.3096 57 27.0581 56.9062 26.8612 56.7188C26.6644 56.5312 26.5659 56.2917 26.5659 56C26.5659 55.7083 26.6644 55.4688 26.8612 55.2812C27.0581 55.0938 27.3096 55 27.6159 55H38.1152C38.4215 55 38.673 55.0938 38.8699 55.2812C39.0667 55.4688 39.1652 55.7083 39.1652 56C39.1652 56.2917 39.0667 56.5312 38.8699 56.7188C38.673 56.9062 38.4215 57 38.1152 57ZM63.3137 46H63.2481C62.4169 46 61.6513 46.2188 60.9513 46.6562C60.2514 47.0938 59.7483 47.6875 59.4421 48.4375C59.1358 49.1875 59.0593 49.9479 59.2124 50.7188C59.3655 51.4896 59.7264 52.1667 60.2951 52.75H60.3608L58.8515 54.1875V54.125C58.239 53.5833 57.5281 53.2396 56.7188 53.0938C55.9095 52.9479 55.1111 53.0208 54.3236 53.3125C53.5362 53.6458 52.9128 54.1354 52.4534 54.7812C51.9941 55.4271 51.7644 56.1458 51.7644 56.9375V57H49.6645V56.9375C49.6645 56.1458 49.4349 55.4167 48.9755 54.75C48.5162 54.0833 47.8928 53.6042 47.1053 53.3125C46.3179 53.0208 45.5195 52.9479 44.7101 53.0938C43.9008 53.2396 43.1899 53.5833 42.5775 54.125V54.1875L41.1338 52.8125C41.1775 52.6875 41.2104 52.5625 41.2322 52.4375C41.2541 52.3125 41.265 52.1667 41.265 52C41.265 51.625 41.1994 51.2812 41.0682 50.9688C40.9369 50.6562 40.7619 50.375 40.5432 50.125C40.8932 49.2917 41.3088 48.5312 41.79 47.8438C42.2712 47.1562 42.8181 46.5 43.4305 45.875C43.6493 47.5833 44.4477 49.0312 45.8257 50.2188C47.2037 51.4062 48.8333 52 50.7145 52C52.7268 52 54.4549 51.3125 55.8985 49.9375C57.3422 48.5625 58.064 46.9167 58.064 45C58.064 43.0833 57.3422 41.4375 55.8985 40.0625C54.4549 38.6875 52.7268 38 50.7145 38C50.6707 38 50.627 38 50.5832 38C50.5395 38 50.4739 38 50.3864 38C50.7363 37.2917 51.0316 36.5312 51.2722 35.7188C51.5129 34.9062 51.6769 34 51.7644 33V33.0625C51.7644 33.8542 51.9941 34.5833 52.4534 35.25C52.9128 35.9167 53.5362 36.3958 54.3236 36.6875C55.1111 36.9792 55.9095 37.0521 56.7188 36.9062C57.5281 36.7604 58.239 36.4167 58.8515 35.875V35.8125L60.3608 37.25H60.2951C59.7264 37.8333 59.3655 38.5104 59.2124 39.2812C59.0593 40.0521 59.1358 40.8125 59.4421 41.5625C59.792 42.3125 60.3061 42.9062 60.9842 43.3438C61.6622 43.7812 62.4169 44 63.2481 44H63.3137V46Z" fill="white"/>
</g>
<defs>
<clipPath id="clip0_59_4013">
<rect width="67.1959" height="64" fill="white" transform="matrix(1 0 0 -1 0.317505 64)"/>
</clipPath>
</defs>
</svg>
