<svg width="68" height="64" viewBox="0 0 68 64" fill="none" xmlns="http://www.w3.org/2000/svg">
<g clip-path="url(#clip0_59_4009)">
<path d="M11.8821 2C11.0071 2 10.2634 2.29167 9.65095 2.875C9.03849 3.45833 8.73226 4.16667 8.73226 5V37C8.73226 37.6667 9.08224 38 9.78219 38C10.4822 38 10.8321 37.6667 10.8321 37V12H52.8296V37C52.8296 37.6667 53.1796 38 53.8795 38C54.5795 38 54.9295 37.6667 54.9295 37V5C54.9295 4.16667 54.6232 3.45833 54.0108 2.875C53.3983 2.29167 52.6546 2 51.7797 2H11.8821ZM11.8821 4H51.7797C52.0859 4 52.3374 4.09375 52.5343 4.28125C52.7312 4.46875 52.8296 4.70833 52.8296 5V10H10.8321V5C10.8321 4.70833 10.9306 4.46875 11.1274 4.28125C11.3243 4.09375 11.5758 4 11.8821 4ZM13.9819 6C13.6757 6 13.4242 6.09375 13.2273 6.28125C13.0304 6.46875 12.932 6.70833 12.932 7C12.932 7.29167 13.0304 7.53125 13.2273 7.71875C13.4242 7.90625 13.6757 8 13.9819 8C14.2882 8 14.5397 7.90625 14.7366 7.71875C14.9334 7.53125 15.0319 7.29167 15.0319 7C15.0319 6.70833 14.9334 6.46875 14.7366 6.28125C14.5397 6.09375 14.2882 6 13.9819 6ZM18.1817 6C17.8755 6 17.6239 6.09375 17.427 6.28125C17.2302 6.46875 17.1318 6.70833 17.1318 7C17.1318 7.29167 17.2302 7.53125 17.427 7.71875C17.6239 7.90625 17.8755 8 18.1817 8C18.4879 8 18.7395 7.90625 18.9363 7.71875C19.1332 7.53125 19.2316 7.29167 19.2316 7C19.2316 6.70833 19.1332 6.46875 18.9363 6.28125C18.7395 6.09375 18.4879 6 18.1817 6ZM22.3814 6C22.0752 6 21.8237 6.09375 21.6268 6.28125C21.4299 6.46875 21.3315 6.70833 21.3315 7C21.3315 7.29167 21.4299 7.53125 21.6268 7.71875C21.8237 7.90625 22.0752 8 22.3814 8C22.6877 8 22.9392 7.90625 23.1361 7.71875C23.3329 7.53125 23.4314 7.29167 23.4314 7C23.4314 6.70833 23.3329 6.46875 23.1361 6.28125C22.9392 6.09375 22.6877 6 22.3814 6ZM37.0149 6C36.315 6.04167 35.9759 6.38542 35.9978 7.03125C36.0197 7.67708 36.3806 8 37.0805 8H49.6798C50.3797 8 50.7297 7.66667 50.7297 7C50.7297 6.33333 50.3797 6 49.6798 6H37.0149ZM3.48257 8C2.60763 8 1.86392 8.29167 1.25146 8.875C0.638995 9.45833 0.332764 10.1667 0.332764 11V47C0.332764 47.8333 0.638995 48.5417 1.25146 49.125C1.86392 49.7083 2.60763 50 3.48257 50H60.1792C61.0541 50 61.7978 49.7083 62.4103 49.125C63.0227 48.5417 63.329 47.8333 63.329 47V11C63.329 10.1667 63.0227 9.45833 62.4103 8.875C61.7978 8.29167 61.0541 8 60.1792 8H58.0793C57.3793 8 57.0293 8.33333 57.0293 9C57.0293 9.66667 57.3793 10 58.0793 10H60.1792C60.4854 10 60.7369 10.0938 60.9338 10.2812C61.1307 10.4688 61.2291 10.7083 61.2291 11V40H2.43264V11C2.43264 10.7083 2.53107 10.4688 2.72793 10.2812C2.92479 10.0938 3.17634 10 3.48257 10H5.58245C6.2824 10 6.63238 9.66667 6.63238 9C6.63238 8.33333 6.2824 8 5.58245 8H3.48257ZM34.9807 16C34.7619 16 34.5541 16.0625 34.3573 16.1875C34.1604 16.3125 34.0401 16.4792 33.9964 16.6875L27.6967 34.6875C27.478 35.3125 27.6967 35.7292 28.3529 35.9375C29.0092 36.1458 29.4466 35.9375 29.6654 35.3125L35.965 17.3125C36.0962 16.9792 36.0525 16.6771 35.8337 16.4062C35.615 16.1354 35.3307 16 34.9807 16ZM39.5741 21.75L44.8895 26L39.5741 30.25C39.0054 30.6667 38.9507 31.1354 39.4101 31.6562C39.8694 32.1771 40.3616 32.2083 40.8866 31.75L47.1862 26.75C47.4487 26.5417 47.5799 26.2917 47.5799 26C47.5799 25.7083 47.4487 25.4583 47.1862 25.25L40.8866 20.25C40.7991 20.1667 40.7006 20.1042 40.5913 20.0625C40.4819 20.0208 40.3397 20 40.1647 20C39.6835 20.0417 39.3663 20.2708 39.2132 20.6875C39.0601 21.1042 39.1804 21.4583 39.5741 21.75ZM23.4314 20C23.3001 20 23.1798 20.0208 23.0705 20.0625C22.9611 20.1042 22.8627 20.1667 22.7752 20.25L16.4755 25.25C16.2131 25.4583 16.0818 25.7083 16.0818 26C16.0818 26.2917 16.2131 26.5417 16.4755 26.75L22.7752 31.75C23.3001 32.25 23.8032 32.2292 24.2844 31.6875C24.7657 31.1458 24.7 30.6667 24.0876 30.25L18.7723 26L24.0876 21.75C24.4813 21.4583 24.5907 21.0938 24.4157 20.6562C24.2407 20.2188 23.9126 20 23.4314 20ZM2.43264 42H61.2291V47C61.2291 47.2917 61.1307 47.5312 60.9338 47.7188C60.7369 47.9062 60.4854 48 60.1792 48H3.48257C3.17634 48 2.92479 47.9062 2.72793 47.7188C2.53107 47.5312 2.43264 47.2917 2.43264 47V42ZM33.9964 44H29.6654C29.0092 44.0833 28.692 44.4375 28.7139 45.0625C28.7357 45.6875 29.0748 46 29.731 46H33.9307C34.6307 46.0417 35.0025 45.7188 35.0463 45.0312C35.09 44.3438 34.7401 44 33.9964 44ZM25.925 51.9375C25.7062 51.9375 25.5094 51.9896 25.3344 52.0938C25.1594 52.1979 25.0281 52.3333 24.9407 52.5C24.7219 53.0417 24.3719 53.6042 23.8907 54.1875C23.4095 54.7708 22.7752 55.375 21.9877 56H20.2816C19.4066 56 18.6629 56.2917 18.0504 56.875C17.438 57.4583 17.1318 58.1667 17.1318 59V61C17.1318 61.2917 17.2302 61.5312 17.427 61.7188C17.6239 61.9062 17.8755 62 18.1817 62H45.48C45.7863 62 46.0378 61.9062 46.2347 61.7188C46.4315 61.5312 46.53 61.2917 46.53 61V59C46.53 58.1667 46.2237 57.4583 45.6113 56.875C44.9988 56.2917 44.2551 56 43.3802 56H41.674C40.8866 55.375 40.2522 54.7708 39.771 54.1875C39.2898 53.6042 38.9398 53.0417 38.7211 52.5C38.6336 52.3333 38.4914 52.1875 38.2945 52.0625C38.0977 51.9375 37.8899 51.8958 37.6711 51.9375C37.3212 51.9375 37.0477 52.0938 36.8509 52.4062C36.654 52.7188 36.6431 53.0417 36.8181 53.375C36.993 53.7917 37.2446 54.2188 37.5727 54.6562C37.9008 55.0938 38.2617 55.5417 38.6555 56H25.0063C25.4 55.5417 25.7609 55.0938 26.089 54.6562C26.4171 54.2188 26.6687 53.7917 26.8437 53.375C27.0187 53.0417 27.0077 52.7188 26.8109 52.4062C26.614 52.0938 26.3187 51.9375 25.925 51.9375ZM20.2816 58H43.3802C43.6864 58 43.9379 58.0938 44.1348 58.2812C44.3317 58.4688 44.4301 58.7083 44.4301 59V60H19.2316V59C19.2316 58.7083 19.3301 58.4688 19.5269 58.2812C19.7238 58.0938 19.9753 58 20.2816 58Z" fill="white"/>
</g>
<defs>
<clipPath id="clip0_59_4009">
<rect width="67.1959" height="64" fill="white" transform="matrix(1 0 0 -1 0.332764 64)"/>
</clipPath>
</defs>
</svg>
