<svg width="68" height="64" viewBox="0 0 68 64" fill="none" xmlns="http://www.w3.org/2000/svg">
<g clip-path="url(#clip0_59_4021)">
<path d="M30.7353 56H32.8351V58H30.7353V56ZM5.53679 24H9.40843L16.4955 28.8125C16.583 28.8542 16.6705 28.8958 16.758 28.9375C16.8455 28.9792 16.9549 29 17.0861 29C17.3923 29 17.6439 28.9062 17.8407 28.7188C18.0376 28.5312 18.136 28.2917 18.136 28C18.136 27.9583 18.136 27.9271 18.136 27.9062C18.136 27.8854 18.136 27.8542 18.136 27.8125L17.3486 24H24.4357C25.8793 24 27.1152 23.5104 28.1432 22.5312C29.1713 21.5521 29.6853 20.375 29.6853 19V7C29.6853 5.625 29.1713 4.44792 28.1432 3.46875C27.1152 2.48958 25.8793 2 24.4357 2H5.53679C4.09313 2 2.85727 2.48958 1.8292 3.46875C0.801141 4.44792 0.287109 5.625 0.287109 7V19C0.287109 20.375 0.801141 21.5521 1.8292 22.5312C2.85727 23.5104 4.09313 24 5.53679 24ZM2.38698 7C2.38698 6.16667 2.69321 5.45833 3.30568 4.875C3.91814 4.29167 4.66185 4 5.53679 4H24.4357C25.3106 4 26.0543 4.29167 26.6668 4.875C27.2792 5.45833 27.5855 6.16667 27.5855 7V19C27.5855 19.8333 27.2792 20.5417 26.6668 21.125C26.0543 21.7083 25.3106 22 24.4357 22H16.0362C15.7299 22 15.4784 22.0938 15.2815 22.2812C15.0847 22.4688 14.9862 22.7083 14.9862 23C14.9862 23.0417 14.9862 23.0729 14.9862 23.0938C14.9862 23.1146 14.9862 23.1458 14.9862 23.1875L15.5112 25.6875L10.3271 22.1875C10.2396 22.1458 10.1521 22.1042 10.0646 22.0625C9.97715 22.0208 9.86778 22 9.73654 22H5.53679C4.66185 22 3.91814 21.7083 3.30568 21.125C2.69321 20.5417 2.38698 19.8333 2.38698 19V7ZM7.63667 12V18C7.63667 18.2917 7.7351 18.5312 7.93196 18.7188C8.12882 18.9062 8.38037 19 8.6866 19H17.0861C17.3923 19 17.6439 18.9062 17.8407 18.7188C18.0376 18.5312 18.136 18.2917 18.136 18V17.625L20.8265 18.875C20.8702 18.9167 20.9359 18.9479 21.0234 18.9688C21.1109 18.9896 21.1983 19 21.2858 19C21.5921 19 21.8436 18.9062 22.0405 18.7188C22.2373 18.5312 22.3358 18.2917 22.3358 18V12C22.3358 11.7083 22.2373 11.4688 22.0405 11.2812C21.8436 11.0938 21.5921 11 21.2858 11C21.1983 11 21.1109 11.0104 21.0234 11.0312C20.9359 11.0521 20.8702 11.0833 20.8265 11.125L18.136 12.375V12C18.136 12 18.136 11.9896 18.136 11.9688C18.136 11.9479 18.136 11.9375 18.136 11.9375C18.4423 11.6458 18.6938 11.2812 18.8907 10.8438C19.0875 10.4062 19.186 9.95833 19.186 9.5C19.186 8.54167 18.8251 7.71875 18.1032 7.03125C17.3814 6.34375 16.5174 6 15.5112 6C14.9862 6 14.505 6.09375 14.0675 6.28125C13.6301 6.46875 13.2363 6.72917 12.8863 7.0625C12.5364 6.72917 12.1426 6.46875 11.7052 6.28125C11.2677 6.09375 10.7865 6 10.2615 6C9.25532 6 8.39131 6.34375 7.66948 7.03125C6.94765 7.71875 6.58673 8.54167 6.58673 9.5C6.58673 9.95833 6.68516 10.4062 6.88202 10.8438C7.07889 11.2812 7.33043 11.6458 7.63667 11.9375C7.63667 11.9375 7.63667 11.9479 7.63667 11.9688C7.63667 11.9896 7.63667 12 7.63667 12ZM16.0362 17H9.73654V13H16.0362V17ZM20.2359 13.625V16.375L18.136 15.375V14.625L20.2359 13.625ZM15.5112 8C15.9487 8 16.3205 8.14583 16.6267 8.4375C16.933 8.72917 17.0861 9.08333 17.0861 9.5C17.0861 9.91667 16.933 10.2708 16.6267 10.5625C16.3205 10.8542 15.9487 11 15.5112 11C15.0737 11 14.7019 10.8542 14.3956 10.5625C14.0894 10.2708 13.9363 9.91667 13.9363 9.5C13.9363 9.08333 14.0894 8.72917 14.3956 8.4375C14.7019 8.14583 15.0737 8 15.5112 8ZM10.2615 8C10.699 8 11.0708 8.14583 11.3771 8.4375C11.6833 8.72917 11.8364 9.08333 11.8364 9.5C11.8364 9.91667 11.6833 10.2708 11.3771 10.5625C11.0708 10.8542 10.699 11 10.2615 11C9.82403 11 9.45218 10.8542 9.14595 10.5625C8.83972 10.2708 8.6866 9.91667 8.6866 9.5C8.6866 9.08333 8.83972 8.72917 9.14595 8.4375C9.45218 8.14583 9.82403 8 10.2615 8ZM58.0336 10H48.453C48.2342 8.83333 47.6436 7.875 46.6812 7.125C45.7187 6.375 44.6032 6 43.3345 6H31.7852V8H43.3345C44.0345 8 44.6469 8.1875 45.1719 8.5625C45.6969 8.9375 46.0687 9.41667 46.2875 10H37.0349C35.5912 10 34.3554 10.4896 33.3273 11.4688C32.2992 12.4479 31.7852 13.625 31.7852 15V27C31.7852 28.375 32.2992 29.5521 33.3273 30.5312C34.3554 31.5104 35.5912 32 37.0349 32H45.1719L44.3844 35.8125C44.3844 35.8542 44.3844 35.8854 44.3844 35.9062C44.3844 35.9271 44.3844 35.9583 44.3844 36C44.3844 36.2917 44.4829 36.5312 44.6797 36.7188C44.8766 36.9062 45.1282 37 45.4344 37C45.5656 37 45.675 36.9792 45.7625 36.9375C45.85 36.8958 45.9375 36.8542 46.025 36.8125L46.4843 36.5V40.5625L43.5314 37.8125C43.0939 37.3958 42.5908 37.0625 42.0221 36.8125C41.4534 36.5625 40.8409 36.4375 40.1847 36.4375C38.8723 36.4375 37.7458 36.8854 36.8052 37.7812C35.8647 38.6771 35.3944 39.75 35.3944 41C35.3944 41.625 35.5256 42.2083 35.7881 42.75C36.0506 43.2917 36.4006 43.7708 36.838 44.1875L43.0064 50.125C42.8314 50.375 42.6674 50.6562 42.5142 50.9688C42.3611 51.2812 42.219 51.6042 42.0877 51.9375L42.0221 52H14.9862V57C14.9862 58.375 15.5003 59.5521 16.5283 60.5312C17.5564 61.5104 18.7922 62 20.2359 62H56.9837C57.2899 62 57.5415 61.9062 57.7383 61.7188C57.9352 61.5312 58.0336 61.2917 58.0336 61V42.0625C58.0336 42.0625 58.0336 42.0521 58.0336 42.0312C58.0336 42.0104 58.0336 42 58.0336 42C58.0336 40.625 57.7821 39.3229 57.279 38.0938C56.7759 36.8646 56.0869 35.7708 55.2119 34.8125V34.875L52.9808 32.0625L53.112 32H58.0336C59.4773 32 60.7132 31.5104 61.7412 30.5312C62.7693 29.5521 63.2833 28.375 63.2833 27V15C63.2833 13.625 62.7693 12.4479 61.7412 11.4688C60.7132 10.4896 59.4773 10 58.0336 10ZM37.0349 12H58.0336C58.9086 12 59.6523 12.2917 60.2647 12.875C60.8772 13.4583 61.1834 14.1667 61.1834 15V25.125L56.5243 22.1875C56.4368 22.1042 56.3384 22.0521 56.229 22.0312C56.1197 22.0104 56.0212 22 55.9338 22C55.8463 22 55.7478 22.0104 55.6385 22.0312C55.5291 22.0521 55.4307 22.1042 55.3432 22.1875L49.6998 25.75L41.8909 20.1875C41.8034 20.1458 41.7049 20.1042 41.5956 20.0625C41.4862 20.0208 41.3659 20 41.2346 20C41.1034 20 40.9831 20.0208 40.8737 20.0625C40.7644 20.1042 40.6659 20.1458 40.5784 20.1875L33.8851 25V15C33.8851 14.1667 34.1913 13.4583 34.8038 12.875C35.4162 12.2917 36.1599 12 37.0349 12ZM17.0861 57V54H41.4315C41.4315 54.2083 41.4206 54.4479 41.3987 54.7188C41.3768 54.9896 41.3659 55.25 41.3659 55.5C41.3659 56.3333 41.4643 57.1354 41.6612 57.9062C41.858 58.6771 42.1315 59.3958 42.4814 60.0625V60H20.2359C19.361 60 18.6173 59.7083 18.0048 59.125C17.3923 58.5417 17.0861 57.8333 17.0861 57ZM53.5714 36.125C54.3151 36.9167 54.8948 37.8125 55.3104 38.8125C55.726 39.8125 55.9338 40.8958 55.9338 42.0625V60H44.9094C44.4282 59.375 44.0563 58.6875 43.7939 57.9375C43.5314 57.1875 43.4001 56.375 43.4001 55.5C43.4001 55.125 43.4329 54.7396 43.4986 54.3438C43.5642 53.9479 43.6626 53.5833 43.7939 53.25V53.3125C43.9251 52.8958 44.0673 52.5208 44.2204 52.1875C44.3735 51.8542 44.5594 51.5208 44.7782 51.1875V51.25L45.2375 50.5625C45.325 50.4792 45.3797 50.3854 45.4016 50.2812C45.4235 50.1771 45.4344 50.0833 45.4344 50C45.4344 49.875 45.4016 49.75 45.336 49.625C45.2703 49.5 45.1938 49.3958 45.1063 49.3125L38.2817 42.8125C38.063 42.5625 37.877 42.2812 37.7239 41.9688C37.5708 41.6562 37.4942 41.3333 37.4942 41C37.4942 40.2917 37.7567 39.6875 38.2817 39.1875C38.8067 38.6875 39.441 38.4375 40.1847 38.4375C40.5347 38.4375 40.8737 38.5104 41.2018 38.6562C41.5299 38.8021 41.8252 38.9792 42.0877 39.1875L51.0122 47.6875L52.4558 46.3125L48.5842 42.5625V35.0625L51.2747 33.25L53.5714 36.125ZM58.0336 30H52.7839C52.6527 30 52.5433 30.0208 52.4558 30.0625C52.3683 30.1042 52.2808 30.1458 52.1934 30.1875L47.0093 33.6875L47.5343 31.1875C47.5343 31.1458 47.5343 31.1146 47.5343 31.0938C47.5343 31.0729 47.5343 31.0417 47.5343 31C47.5343 30.7083 47.4358 30.4688 47.239 30.2812C47.0421 30.0938 46.7906 30 46.4843 30H37.0349C36.2474 30 35.5694 29.7604 35.0006 29.2812C34.4319 28.8021 34.0819 28.2083 33.9507 27.5V27.4375L41.2346 22.25L48.9779 27.8125C49.0654 27.8542 49.1638 27.8958 49.2732 27.9375C49.3826 27.9792 49.5029 28 49.6341 28C49.7216 28 49.8201 27.9896 49.9294 27.9688C50.0388 27.9479 50.1372 27.8958 50.2247 27.8125L55.9338 24.1875L61.1178 27.5C60.9866 28.2083 60.6366 28.8021 60.0679 29.2812C59.4992 29.7604 58.8211 30 58.0336 30ZM49.6341 22C50.8153 22 51.8106 21.6146 52.6199 20.8438C53.4292 20.0729 53.8339 19.125 53.8339 18C53.8339 16.875 53.4292 15.9271 52.6199 15.1562C51.8106 14.3854 50.8153 14 49.6341 14C48.453 14 47.4577 14.3854 46.6484 15.1562C45.8391 15.9271 45.4344 16.875 45.4344 18C45.4344 19.0833 45.85 20.0208 46.6812 20.8125C47.5124 21.6042 48.4967 22 49.6341 22ZM49.6341 16C50.2028 16 50.695 16.1979 51.1106 16.5938C51.5262 16.9896 51.734 17.4583 51.734 18C51.734 18.5417 51.5262 19.0104 51.1106 19.4062C50.695 19.8021 50.2028 20 49.6341 20C49.0654 20 48.5733 19.8021 48.1577 19.4062C47.7421 19.0104 47.5343 18.5417 47.5343 18C47.5343 17.4583 47.7421 16.9896 48.1577 16.5938C48.5733 16.1979 49.0654 16 49.6341 16ZM5.53679 50H22.3358C23.7794 50 25.0153 49.5104 26.0434 48.5312C27.0714 47.5521 27.5855 46.375 27.5855 45V39C27.5855 37.625 27.0714 36.4479 26.0434 35.4688C25.0153 34.4896 23.7794 34 22.3358 34H21.6139L22.3358 31.25C22.3358 31.2083 22.3358 31.1667 22.3358 31.125C22.3358 31.0833 22.3358 31.0417 22.3358 31C22.3358 30.7083 22.2373 30.4688 22.0405 30.2812C21.8436 30.0938 21.5921 30 21.2858 30C21.1983 30 21.1109 30.0104 21.0234 30.0312C20.9359 30.0521 20.8484 30.0833 20.7609 30.125L13.6738 34H5.53679C4.09313 34 2.85727 34.4896 1.8292 35.4688C0.801141 36.4479 0.287109 37.625 0.287109 39V45C0.287109 46.375 0.801141 47.5521 1.8292 48.5312C2.85727 49.5104 4.09313 50 5.53679 50ZM2.38698 39C2.38698 38.1667 2.69321 37.4583 3.30568 36.875C3.91814 36.2917 4.66185 36 5.53679 36H13.9363C14.0238 36 14.1113 35.9896 14.1988 35.9688C14.2863 35.9479 14.3738 35.9167 14.4613 35.875L19.6453 33L19.186 34.75C19.186 34.7917 19.186 34.8333 19.186 34.875C19.186 34.9167 19.186 34.9583 19.186 35C19.186 35.2917 19.2844 35.5312 19.4813 35.7188C19.6781 35.9062 19.9297 36 20.2359 36H22.3358C23.2107 36 23.9544 36.2917 24.5669 36.875C25.1794 37.4583 25.4856 38.1667 25.4856 39V45C25.4856 45.8333 25.1794 46.5417 24.5669 47.125C23.9544 47.7083 23.2107 48 22.3358 48H5.53679C4.66185 48 3.91814 47.7083 3.30568 47.125C2.69321 46.5417 2.38698 45.8333 2.38698 45V39ZM4.48686 39H16.0362V41H4.48686V39ZM18.136 39H23.3857V41H18.136V39ZM4.48686 43H23.3857V45H4.48686V43Z" fill="white"/>
</g>
<defs>
<clipPath id="clip0_59_4021">
<rect width="67.1959" height="64" fill="white" transform="matrix(1 0 0 -1 0.287109 64)"/>
</clipPath>
</defs>
</svg>
