<svg width="88" height="88" viewBox="0 0 88 88" fill="none" xmlns="http://www.w3.org/2000/svg">
<path d="M36.4517 26C22.0923 26 10.4517 37.6406 10.4517 52C10.4517 55.2698 11.0578 58.3977 12.1597 61.2803C11.9252 63.8996 11.5501 66.506 11.0337 69.0879L10.0396 74.0586C9.76001 75.4577 10.9939 76.6916 12.3931 76.4121L23.0454 74.2803C26.9602 76.6409 31.547 78 36.4517 78C50.8111 78 62.4517 66.3594 62.4517 52C62.4517 37.6406 50.8111 26 36.4517 26Z" fill="#7B43D6"/>
<path d="M52.0015 10C66.3609 10 78.0015 21.6406 78.0015 36C78.0015 39.2698 77.3953 42.3977 76.2935 45.2803C76.5279 47.8996 76.9031 50.506 77.4194 53.0879L78.4136 58.0586C78.6931 59.4577 77.4592 60.6916 76.0601 60.4121L65.4077 58.2803C61.493 60.6409 56.9061 62 52.0015 62C37.6421 62 26.0015 50.3594 26.0015 36C26.0015 21.6406 37.6421 10 52.0015 10Z" fill="#70A8FF"/>
<path d="M47.4286 27L40 27L38 35.5L42.57 35.5L45.14 44L51.2179 44L47.4286 27ZM62.2107 27L54.7446 27L53 35.5L57.3146 35.5L59.8846 44L66 44L62.2107 27Z" fill="white"/>
<path d="M20.8126 31C20.5759 32.5565 20.4532 34.1508 20.4532 35.7734C20.4535 53.1698 34.5568 67.2722 51.9532 67.2725C53.9188 67.2724 55.8423 67.0898 57.7081 66.7451C53.0012 73.4152 45.2356 77.7725 36.4512 77.7725C31.5467 77.7724 26.9596 76.4133 23.045 74.0527L12.3926 76.1846C10.9936 76.4638 9.7596 75.2301 10.0391 73.8311L11.0333 68.8604C11.5496 66.2785 11.9248 63.672 12.1592 61.0527C11.0574 58.1703 10.4512 55.0422 10.4512 51.7725C10.4513 43.2838 14.5197 35.7452 20.8126 31Z" fill="#736FF1"/>
</svg>
