<svg width="216" height="48" viewBox="0 0 216 48" fill="none" xmlns="http://www.w3.org/2000/svg">
<path d="M35.4494 24.2025C35.4394 24.0071 35.4351 23.8117 35.4351 23.6149C35.4351 17.3126 40.5928 12.184 46.9341 12.184C47.2942 12.184 47.6486 12.2025 48.0001 12.2353V0.800085C47.6472 0.784396 47.2914 0.774414 46.9341 0.774414C34.2644 0.774414 23.9575 11.0202 23.9575 23.6149C23.9575 23.8117 23.9604 24.0071 23.9647 24.2025H35.4494Z" fill="#D9D9D9"/>
<path d="M36.5067 24.3862C36.5168 24.5816 36.5211 24.777 36.5211 24.9738C36.5211 31.2762 31.3634 36.4048 25.022 36.4048C24.6619 36.4048 24.3076 36.3862 23.9561 36.3534V47.7887C24.309 47.8043 24.6648 47.8143 25.022 47.8143C37.6918 47.8143 47.9986 37.5685 47.9986 24.9738C47.9986 24.777 47.9958 24.5816 47.9915 24.3862H36.5067Z" fill="#D9D9D9"/>
<path d="M22.9781 0C10.3083 0 0.00146484 10.2458 0.00146484 22.8405V48H11.479V22.8405C11.479 16.5381 16.6367 11.4096 22.9781 11.4096C23.3095 11.4096 23.6366 11.4267 23.9623 11.4538V0.021392C23.6352 0.0085563 23.3066 0 22.9781 0Z" fill="#D9D9D9"/>
<path d="M23.9608 24.2255C23.6351 24.2112 23.3066 24.2026 22.9766 24.2026C10.3068 24.2026 0 34.4484 0 47.0431C0 47.364 0.00860728 47.6821 0.0215195 48.0001H11.5206C11.4948 47.6849 11.4775 47.3655 11.4775 47.0431C11.4775 40.7408 16.6353 35.6122 22.9766 35.6122C23.308 35.6122 23.6351 35.6293 23.9608 35.6564V24.2255Z" fill="#D9D9D9"/>
<path d="M150.54 27.061C150.54 28.8103 150.192 30.3263 149.494 31.606C148.796 32.8876 147.827 33.8707 146.588 34.5571C145.348 35.2474 143.906 35.5903 142.261 35.5903C140.991 35.5903 139.841 35.3869 138.81 34.9819C137.78 34.575 136.905 33.9873 136.186 33.2173C135.467 32.4471 134.916 31.5354 134.53 30.4819C134.144 29.4305 133.952 28.2686 133.952 26.9985C133.952 25.3746 134.281 23.958 134.935 22.7505C135.591 21.5431 136.502 20.6003 137.67 19.9233C138.835 19.2464 140.168 18.9077 141.669 18.9077C142.418 18.9077 143.127 19.0214 143.793 19.2515C144.458 19.4816 145.063 19.8028 145.605 20.2192C146.147 20.6357 146.584 21.1251 146.917 21.688H146.947V12.4097H150.54V27.061ZM75.7517 16.6294H68.3494C67.5583 16.6294 66.9059 16.8958 66.3962 17.4263C65.8847 17.9568 65.6296 18.6092 65.6296 19.3794V23.3784H74.658V26.6587H65.6296V35.2173H61.8816V19.3774C61.8816 18.2328 62.1512 17.2054 62.6931 16.3003C63.235 15.3952 63.958 14.6765 64.865 14.146C65.7701 13.6155 66.7974 13.3491 67.9421 13.3491H75.7517V16.6294ZM87.2507 22.3452H84.0632C83.5634 22.3453 83.1737 22.4919 82.8923 22.7827C82.6109 23.0755 82.4705 23.4692 82.4705 23.9692V35.2153H78.8757V23.814C78.8757 22.3973 79.2774 21.2883 80.0798 20.4858C80.8804 19.6853 81.9913 19.2837 83.408 19.2837H87.2507V22.3452ZM93.3396 35.2153H89.7478V19.2837H93.3396V35.2153ZM104.527 18.9077C106.235 18.9078 107.64 19.2722 108.745 20.0005C109.848 20.7288 110.666 21.7086 111.198 22.937C111.728 24.1653 111.994 25.54 111.994 27.061C111.994 27.2701 111.983 27.5099 111.962 27.7798C111.941 28.0497 111.911 28.2593 111.869 28.4058H100.56C100.686 29.2386 100.986 29.9305 101.466 30.4819C101.945 31.0333 102.547 31.4505 103.277 31.7319C104.005 32.0134 104.818 32.1538 105.714 32.1538H109.994V35.2153H105.712C103.92 35.2153 102.353 34.8767 101.01 34.1997C99.6681 33.5228 98.62 32.5851 97.8708 31.3872C97.1218 30.1893 96.7478 28.8105 96.7478 27.2476C96.7478 25.6028 97.0804 24.156 97.7478 22.9067C98.4134 21.6574 99.3302 20.6776 100.498 19.9702C101.663 19.263 103.008 18.9077 104.527 18.9077ZM122.955 18.9077C124.495 18.9077 125.834 19.2154 126.969 19.8296C128.105 20.4438 128.985 21.2884 129.609 22.3608C130.235 23.4333 130.547 24.6579 130.547 26.0308V35.2153H126.984V26.063C126.984 25.2511 126.796 24.5375 126.422 23.9233C126.047 23.3093 125.552 22.83 124.938 22.4858C124.324 22.1418 123.653 21.9712 122.923 21.9712C122.215 21.9712 121.553 22.1417 120.939 22.4858C120.325 22.83 119.835 23.3093 119.471 23.9233C119.106 24.5375 118.924 25.2511 118.924 26.063V35.2153H115.334V26.0308C115.334 24.6559 115.646 23.4333 116.271 22.3608C116.897 21.2884 117.781 20.4438 118.926 19.8296C120.07 19.2154 121.415 18.9077 122.955 18.9077ZM142.229 21.9692C141.334 21.9693 140.531 22.1994 139.824 22.6558C139.117 23.114 138.563 23.7398 138.168 24.5308C137.772 25.3217 137.574 26.2285 137.574 27.2476C137.574 28.2896 137.772 29.2065 138.168 29.9976C138.563 30.7886 139.121 31.4082 139.84 31.8569C140.56 32.3056 141.366 32.5287 142.261 32.5288C143.178 32.5288 143.984 32.3038 144.682 31.8569C145.38 31.4101 145.927 30.7905 146.324 29.9976C146.719 29.2065 146.917 28.2896 146.917 27.2476C146.917 26.2077 146.719 25.2913 146.324 24.4985C145.928 23.7075 145.38 23.087 144.682 22.6401C143.985 22.1934 143.167 21.9692 142.229 21.9692ZM104.525 21.8735C103.9 21.8735 103.348 21.9934 102.869 22.2329C102.39 22.4724 101.983 22.7846 101.65 23.1704C101.317 23.5564 101.06 23.9942 100.884 24.4829C100.709 24.9754 100.589 25.47 100.526 25.9683H108.398C108.377 25.5728 108.32 25.1772 108.227 24.7817C108.134 24.3862 107.988 24.0114 107.79 23.6558C107.592 23.3022 107.341 22.9944 107.041 22.7339C106.738 22.4734 106.379 22.2657 105.963 22.1079C105.546 21.952 105.067 21.8736 104.525 21.8735ZM91.5291 12.4438C92.1737 12.4438 92.7219 12.674 93.1707 13.1304C93.6175 13.5886 93.8416 14.1307 93.8416 14.7544C93.8415 15.38 93.6175 15.9201 93.1707 16.3784C92.72 16.8367 92.1737 17.0649 91.5291 17.0649C90.9036 17.0648 90.3632 16.8366 89.905 16.3784C89.4469 15.9202 89.2195 15.378 89.2195 14.7544C89.2195 14.1289 89.4469 13.5886 89.905 13.1304C90.3632 12.6722 90.9055 12.4439 91.5291 12.4438Z" fill="#D9D9D9"/>
<path d="M181.904 18.9097C183.528 18.9097 184.976 19.2802 186.246 20.0181C187.516 20.7578 188.52 21.7583 189.26 23.0171C189.999 24.2777 190.368 25.6885 190.368 27.2495C190.368 28.8107 189.997 30.2241 189.26 31.4829C188.52 32.7436 187.516 33.7423 186.246 34.4819C184.977 35.2216 183.53 35.5903 181.904 35.5903C180.259 35.5903 178.801 35.2195 177.531 34.4819C176.261 33.7422 175.254 32.7436 174.516 31.4829C173.777 30.2222 173.408 28.8107 173.408 27.2495C173.408 25.6885 173.777 24.2777 174.516 23.0171C175.256 21.7563 176.261 20.7578 177.531 20.0181C178.801 19.2785 180.259 18.9097 181.904 18.9097ZM210.862 19.2837H215.831V22.3452H210.862V30.5298C210.862 31.009 211.007 31.3993 211.3 31.7017C211.59 32.0037 211.976 32.1537 212.455 32.1538H215.799V35.2153H211.832C210.415 35.2153 209.306 34.8086 208.504 33.9966C207.701 33.1846 207.301 32.0798 207.301 30.686V22.3452H204.552V19.2837H207.301V15.2847H210.862V19.2837ZM169.535 16.6294H160.475C159.933 16.6294 159.445 16.7647 159.008 17.0347C158.57 17.3047 158.232 17.6599 157.992 18.0972C157.752 18.5345 157.633 19.0024 157.633 19.5024C157.633 20.0235 157.752 20.4974 157.992 20.9253C158.232 21.353 158.564 21.6951 158.992 21.9556C159.418 22.2161 159.903 22.3452 160.445 22.3452H164.444C165.777 22.3452 166.927 22.6064 167.895 23.1274C168.863 23.6485 169.615 24.3671 170.145 25.2817C170.676 26.1982 170.941 27.2497 170.941 28.436C170.941 29.8318 170.665 31.0337 170.114 32.0435C169.563 33.0531 168.812 33.8348 167.865 34.3862C166.918 34.9377 165.849 35.2133 164.663 35.2134H154.788V31.9351H164.191C164.794 31.935 165.321 31.7904 165.769 31.4976C166.216 31.2066 166.57 30.8266 166.833 30.3569C167.093 29.8892 167.222 29.3945 167.222 28.8735C167.222 28.3108 167.096 27.8014 166.847 27.3433C166.598 26.885 166.248 26.5195 165.802 26.2495C165.353 25.9795 164.837 25.8423 164.256 25.8423H160.349C159.121 25.8422 158.022 25.5872 157.054 25.0776C156.087 24.5681 155.32 23.8554 154.76 22.939C154.197 22.0224 153.915 20.9403 153.915 19.6909C153.915 18.4416 154.184 17.342 154.726 16.395C155.268 15.4481 156.009 14.7026 156.944 14.1606C157.881 13.6189 158.942 13.3492 160.131 13.3491H169.535V16.6294ZM203.552 15.4712H199.96C199.481 15.4712 199.094 15.6178 198.803 15.9087C198.511 16.2015 198.366 16.5952 198.366 17.0952V19.2817H202.896V22.3433H198.368V35.2134H194.774V22.3452H191.994V19.2837H194.774V16.9409C194.774 15.5244 195.176 14.4162 195.976 13.6138C196.777 12.8133 197.887 12.4097 199.303 12.4097H203.552V15.4712ZM181.904 21.9673C180.904 21.9673 180.045 22.2009 179.328 22.6704C178.609 23.1382 178.046 23.77 177.641 24.561C177.234 25.352 177.032 26.2474 177.032 27.2476C177.032 28.2269 177.236 29.117 177.641 29.9194C178.048 30.7219 178.609 31.3569 179.328 31.8247C180.047 32.2943 180.906 32.5288 181.904 32.5288C182.883 32.5288 183.737 32.2944 184.466 31.8247C185.194 31.357 185.757 30.7259 186.152 29.9351C186.548 29.144 186.746 28.2478 186.746 27.2476C186.746 26.2683 186.548 25.3781 186.152 24.5757C185.757 23.7753 185.194 23.1381 184.466 22.6704C183.737 22.2027 182.883 21.9673 181.904 21.9673Z" fill="#D9D9D9"/>
</svg>
