<svg width="120" height="120" viewBox="0 0 120 120" fill="none" xmlns="http://www.w3.org/2000/svg">
<rect width="120" height="120" rx="60" fill="#F7F7F9"/>
<path d="M41.2969 30.4688C40.4766 30.4688 39.7793 30.7559 39.2051 31.3301C38.6309 31.9043 38.3438 32.6016 38.3438 33.4219V64.9219C38.3438 65.5781 38.6719 65.9062 39.3281 65.9062C39.9844 65.9062 40.3125 65.5781 40.3125 64.9219V40.3125H79.6875V64.9219C79.6875 65.5781 80.0156 65.9062 80.6719 65.9062C81.3281 65.9062 81.6562 65.5781 81.6562 64.9219V33.4219C81.6562 32.6016 81.3691 31.9043 80.7949 31.3301C80.2207 30.7559 79.5234 30.4688 78.7031 30.4688H41.2969ZM41.2969 32.4375H78.7031C78.9902 32.4375 79.2261 32.5298 79.4106 32.7144C79.5952 32.8989 79.6875 33.1348 79.6875 33.4219V38.3438H40.3125V33.4219C40.3125 33.1348 40.4048 32.8989 40.5894 32.7144C40.7739 32.5298 41.0098 32.4375 41.2969 32.4375ZM43.2656 34.4062C42.9785 34.4062 42.7427 34.4985 42.5581 34.6831C42.3735 34.8677 42.2812 35.1035 42.2812 35.3906C42.2812 35.6777 42.3735 35.9136 42.5581 36.0981C42.7427 36.2827 42.9785 36.375 43.2656 36.375C43.5527 36.375 43.7886 36.2827 43.9731 36.0981C44.1577 35.9136 44.25 35.6777 44.25 35.3906C44.25 35.1035 44.1577 34.8677 43.9731 34.6831C43.7886 34.4985 43.5527 34.4062 43.2656 34.4062ZM47.2031 34.4062C46.916 34.4062 46.6802 34.4985 46.4956 34.6831C46.311 34.8677 46.2188 35.1035 46.2188 35.3906C46.2188 35.6777 46.311 35.9136 46.4956 36.0981C46.6802 36.2827 46.916 36.375 47.2031 36.375C47.4902 36.375 47.7261 36.2827 47.9106 36.0981C48.0952 35.9136 48.1875 35.6777 48.1875 35.3906C48.1875 35.1035 48.0952 34.8677 47.9106 34.6831C47.7261 34.4985 47.4902 34.4062 47.2031 34.4062ZM51.1406 34.4062C50.8535 34.4062 50.6177 34.4985 50.4331 34.6831C50.2485 34.8677 50.1562 35.1035 50.1562 35.3906C50.1562 35.6777 50.2485 35.9136 50.4331 36.0981C50.6177 36.2827 50.8535 36.375 51.1406 36.375C51.4277 36.375 51.6636 36.2827 51.8481 36.0981C52.0327 35.9136 52.125 35.6777 52.125 35.3906C52.125 35.1035 52.0327 34.8677 51.8481 34.6831C51.6636 34.4985 51.4277 34.4062 51.1406 34.4062ZM64.8604 34.4062C64.2041 34.4473 63.8862 34.7856 63.9067 35.4214C63.9272 36.0571 64.2656 36.375 64.9219 36.375H76.7344C77.3906 36.375 77.7188 36.0469 77.7188 35.3906C77.7188 34.7344 77.3906 34.4062 76.7344 34.4062H64.8604ZM33.4219 36.375C32.6016 36.375 31.9043 36.6621 31.3301 37.2363C30.7559 37.8105 30.4688 38.5078 30.4688 39.3281V74.7656C30.4688 75.5859 30.7559 76.2832 31.3301 76.8574C31.9043 77.4316 32.6016 77.7188 33.4219 77.7188H86.5781C87.3984 77.7188 88.0957 77.4316 88.6699 76.8574C89.2441 76.2832 89.5312 75.5859 89.5312 74.7656V39.3281C89.5312 38.5078 89.2441 37.8105 88.6699 37.2363C88.0957 36.6621 87.3984 36.375 86.5781 36.375H84.6094C83.9531 36.375 83.625 36.7031 83.625 37.3594C83.625 38.0156 83.9531 38.3438 84.6094 38.3438H86.5781C86.8652 38.3438 87.1011 38.436 87.2856 38.6206C87.4702 38.8052 87.5625 39.041 87.5625 39.3281V67.875H32.4375V39.3281C32.4375 39.041 32.5298 38.8052 32.7144 38.6206C32.8989 38.436 33.1348 38.3438 33.4219 38.3438H35.3906C36.0469 38.3438 36.375 38.0156 36.375 37.3594C36.375 36.7031 36.0469 36.375 35.3906 36.375H33.4219ZM62.9531 44.25C62.748 44.25 62.5532 44.3115 62.3687 44.4346C62.1841 44.5576 62.0713 44.7217 62.0303 44.9268L56.124 62.6455C55.9189 63.2607 56.124 63.6709 56.7393 63.876C57.3545 64.0811 57.7646 63.876 57.9697 63.2607L63.876 45.542C63.999 45.2139 63.958 44.9165 63.7529 44.6499C63.5479 44.3833 63.2812 44.25 62.9531 44.25ZM67.2598 49.9102L72.2432 54.0938L67.2598 58.2773C66.7266 58.6875 66.6753 59.1489 67.106 59.6616C67.5366 60.1743 67.998 60.2051 68.4902 59.7539L74.3965 54.832C74.6426 54.627 74.7656 54.3809 74.7656 54.0938C74.7656 53.8066 74.6426 53.5605 74.3965 53.3555L68.4902 48.4336C68.4082 48.3516 68.3159 48.29 68.2134 48.249C68.1108 48.208 67.9775 48.1875 67.8135 48.1875C67.3623 48.2285 67.0649 48.4541 66.9214 48.8643C66.7778 49.2744 66.8906 49.623 67.2598 49.9102ZM52.125 48.1875C52.002 48.1875 51.8892 48.208 51.7866 48.249C51.6841 48.29 51.5918 48.3516 51.5098 48.4336L45.6035 53.3555C45.3574 53.5605 45.2344 53.8066 45.2344 54.0938C45.2344 54.3809 45.3574 54.627 45.6035 54.832L51.5098 59.7539C52.002 60.2461 52.4736 60.2256 52.9248 59.6924C53.376 59.1592 53.3145 58.6875 52.7402 58.2773L47.7568 54.0938L52.7402 49.9102C53.1094 49.623 53.2119 49.2642 53.0479 48.8335C52.8838 48.4028 52.5762 48.1875 52.125 48.1875ZM32.4375 69.8438H87.5625V74.7656C87.5625 75.0527 87.4702 75.2886 87.2856 75.4731C87.1011 75.6577 86.8652 75.75 86.5781 75.75H33.4219C33.1348 75.75 32.8989 75.6577 32.7144 75.4731C32.5298 75.2886 32.4375 75.0527 32.4375 74.7656V69.8438ZM62.0303 71.8125H57.9697C57.3545 71.8945 57.0571 72.2432 57.0776 72.8584C57.0981 73.4736 57.416 73.7812 58.0312 73.7812H61.9688C62.625 73.8223 62.9736 73.5044 63.0146 72.8276C63.0557 72.1509 62.7275 71.8125 62.0303 71.8125ZM54.4629 79.626C54.2578 79.626 54.0732 79.6772 53.9092 79.7798C53.7451 79.8823 53.6221 80.0156 53.54 80.1797C53.335 80.7129 53.0068 81.2666 52.5557 81.8408C52.1045 82.415 51.5098 83.0098 50.7715 83.625H49.1719C48.3516 83.625 47.6543 83.9121 47.0801 84.4863C46.5059 85.0605 46.2188 85.7578 46.2188 86.5781V88.5469C46.2188 88.834 46.311 89.0698 46.4956 89.2544C46.6802 89.439 46.916 89.5312 47.2031 89.5312H72.7969C73.084 89.5312 73.3198 89.439 73.5044 89.2544C73.689 89.0698 73.7812 88.834 73.7812 88.5469V86.5781C73.7812 85.7578 73.4941 85.0605 72.9199 84.4863C72.3457 83.9121 71.6484 83.625 70.8281 83.625H69.2285C68.4902 83.0098 67.8955 82.415 67.4443 81.8408C66.9932 81.2666 66.665 80.7129 66.46 80.1797C66.3779 80.0156 66.2446 79.8721 66.0601 79.749C65.8755 79.626 65.6807 79.585 65.4756 79.626C65.1475 79.626 64.8911 79.7798 64.7065 80.0874C64.522 80.395 64.5117 80.7129 64.6758 81.041C64.8398 81.4512 65.0757 81.8716 65.3833 82.3022C65.6909 82.7329 66.0293 83.1738 66.3984 83.625H53.6016C53.9707 83.1738 54.3091 82.7329 54.6167 82.3022C54.9243 81.8716 55.1602 81.4512 55.3242 81.041C55.4883 80.7129 55.478 80.395 55.2935 80.0874C55.1089 79.7798 54.832 79.626 54.4629 79.626ZM49.1719 85.5938H70.8281C71.1152 85.5938 71.3511 85.686 71.5356 85.8706C71.7202 86.0552 71.8125 86.291 71.8125 86.5781V87.5625H48.1875V86.5781C48.1875 86.291 48.2798 86.0552 48.4644 85.8706C48.6489 85.686 48.8848 85.5938 49.1719 85.5938Z" fill="#7B43D6"/>
</svg>
