<svg width="96" height="64" viewBox="0 0 96 64" fill="none" xmlns="http://www.w3.org/2000/svg">
<g clip-path="url(#clip0_59_1448)">
<path d="M77.5312 57.7783V48.5498C78.1055 48.3447 78.5771 47.9858 78.9463 47.4731C79.3154 46.9604 79.5 46.3965 79.5 45.7812C79.5 44.9609 79.2129 44.2637 78.6387 43.6895C78.0645 43.1152 77.3672 42.8281 76.5469 42.8281H71.4404C71.4814 42.6641 71.5225 42.5 71.5635 42.3359C71.6045 42.1719 71.625 42.0078 71.625 41.8438C71.625 41.1875 71.4404 40.6133 71.0713 40.1211C70.7021 39.6289 70.2305 39.2803 69.6562 39.0752V36.9219H72.7939L71.0713 26.5859C71.3994 26.2988 71.6558 25.9399 71.8403 25.5093C72.0249 25.0786 72.1172 24.6172 72.1172 24.125C72.1172 23.3457 71.8916 22.6587 71.4404 22.064C70.9893 21.4692 70.3945 21.0693 69.6562 20.8643V16.5576L67.0723 15.5732L75.2549 12.3125L48 1.42285L20.7451 12.3125L32.25 16.9268V29.0469H28.3125C26.1387 29.0469 24.2827 29.8159 22.7446 31.354C21.2065 32.8921 20.4375 34.748 20.4375 36.9219C20.4375 38.2344 20.7349 39.4443 21.3296 40.5518C21.9243 41.6592 22.7139 42.582 23.6982 43.3203C21.6064 43.9766 19.8838 45.207 18.5303 47.0117C17.1768 48.8164 16.5 50.8672 16.5 53.1641C16.5 56.0352 17.5049 58.4756 19.5146 60.4854C21.5244 62.4951 23.9648 63.5 26.8359 63.5H76.5469C77.3672 63.5 78.0645 63.2129 78.6387 62.6387C79.2129 62.0645 79.5 61.3672 79.5 60.5469C79.5 59.9316 79.3154 59.3677 78.9463 58.855C78.5771 58.3423 78.1055 57.9834 77.5312 57.7783ZM75.5625 50.7031H57.8438V52.6719H75.5625V57.5938H26.6514C25.4209 57.5938 24.375 57.1631 23.5137 56.3018C22.6523 55.4404 22.2217 54.3945 22.2217 53.1641C22.2217 51.9336 22.6523 50.8877 23.5137 50.0264C24.375 49.165 25.4209 48.7344 26.6514 48.7344H75.5625V50.7031ZM67.6875 38.8906H28.3125C27.7793 38.8906 27.3179 38.6958 26.9282 38.3062C26.5386 37.9165 26.3438 37.4551 26.3438 36.9219C26.3438 36.3887 26.5386 35.9272 26.9282 35.5376C27.3179 35.1479 27.7793 34.9531 28.3125 34.9531H40.125C41.2324 35.2812 42.4321 35.5273 43.7241 35.6914C45.0161 35.8555 46.3389 35.9375 47.6924 35.9375C47.7334 35.9375 47.7847 35.9375 47.8462 35.9375C47.9077 35.9375 47.959 35.9375 48 35.9375C48.041 35.9375 48.0923 35.9375 48.1538 35.9375C48.2153 35.9375 48.2666 35.9375 48.3076 35.9375C49.6611 35.9375 50.9941 35.8452 52.3066 35.6606C53.6191 35.4761 54.8906 35.2197 56.1211 34.8916L55.875 34.9531H64.8574L64.5498 36.9219H67.6875V38.8906ZM63.1963 31.0156H65.5342L65.2266 32.9844H60.6738C61.166 32.6973 61.6172 32.3896 62.0273 32.0615C62.4375 31.7334 62.8271 31.3848 63.1963 31.0156ZM70.4561 34.9531H66.8877L68.1182 27.5088C68.2002 27.5498 68.2925 27.5703 68.395 27.5703C68.4976 27.5703 68.5898 27.5703 68.6719 27.5703C68.7539 27.5703 68.8462 27.5703 68.9487 27.5703C69.0513 27.5703 69.1436 27.5498 69.2256 27.5088L70.4561 34.9531ZM70.1484 24.125C70.1484 24.5352 70.0049 24.8838 69.7178 25.1709C69.4307 25.458 69.082 25.6016 68.6719 25.6016C68.2617 25.6016 67.9131 25.458 67.626 25.1709C67.3389 24.8838 67.1953 24.5352 67.1953 24.125C67.1953 23.7148 67.3389 23.3662 67.626 23.0791C67.9131 22.792 68.2617 22.6484 68.6719 22.6484C69.082 22.6484 69.4307 22.792 69.7178 23.0791C70.0049 23.3662 70.1484 23.7148 70.1484 24.125ZM67.6875 17.9111V20.8643C66.9902 21.0693 66.4058 21.4692 65.9341 22.064C65.4624 22.6587 65.2266 23.3457 65.2266 24.125C65.2266 24.6172 65.3188 25.0786 65.5034 25.5093C65.688 25.9399 65.9443 26.2988 66.2725 26.5859L65.8418 29.0469H63.75V16.9268L64.3652 16.6807L67.6875 17.9111ZM48 3.51465L69.9639 12.3125L64.3652 14.5273L48.3691 8.43652L47.6309 10.2822L61.6582 15.6348L48 21.1104L26.0361 12.3125L48 3.51465ZM48 23.2021L61.7812 17.7266V29.6621C61.3301 30.1133 60.0483 30.9438 57.936 32.1538C55.8237 33.3638 52.5117 33.9688 48 33.9688C43.4883 33.9688 40.1763 33.3638 38.064 32.1538C35.9517 30.9438 34.6699 30.1133 34.2188 29.6621V17.7266L48 23.2021ZM22.4062 36.9219C22.4062 35.2812 22.9805 33.8867 24.1289 32.7383C25.2773 31.5898 26.6719 31.0156 28.3125 31.0156H32.8037C33.1729 31.3848 33.5625 31.7334 33.9727 32.0615C34.3828 32.3896 34.8135 32.6973 35.2646 32.9844H35.3262H28.3125C27.2051 32.9844 26.272 33.3638 25.5132 34.1226C24.7544 34.8813 24.375 35.8145 24.375 36.9219C24.375 38.0293 24.7544 38.9624 25.5132 39.7212C26.272 40.48 27.2051 40.8594 28.3125 40.8594H68.6719C68.959 40.8594 69.1948 40.9517 69.3794 41.1362C69.564 41.3208 69.6562 41.5566 69.6562 41.8438C69.6562 42.1309 69.564 42.3667 69.3794 42.5513C69.1948 42.7358 68.959 42.8281 68.6719 42.8281H28.3125C26.6719 42.8281 25.2773 42.2539 24.1289 41.1055C22.9805 39.957 22.4062 38.5625 22.4062 36.9219ZM76.5469 61.5312H26.8359C24.5391 61.5312 22.5703 60.7109 20.9297 59.0703C19.2891 57.4297 18.4688 55.4609 18.4688 53.1641C18.4688 50.8672 19.2891 48.8984 20.9297 47.2578C22.5703 45.6172 24.5391 44.7969 26.8359 44.7969H76.5469C76.834 44.7969 77.0698 44.8892 77.2544 45.0737C77.439 45.2583 77.5312 45.4941 77.5312 45.7812C77.5312 46.0684 77.439 46.3042 77.2544 46.4888C77.0698 46.6733 76.834 46.7656 76.5469 46.7656H26.6514C24.8877 46.7656 23.3804 47.3911 22.1294 48.6421C20.8784 49.8931 20.2529 51.4004 20.2529 53.1641C20.2529 54.9277 20.8784 56.4351 22.1294 57.686C23.3804 58.937 24.8877 59.5625 26.6514 59.5625H76.5469C76.834 59.5625 77.0698 59.6548 77.2544 59.8394C77.439 60.0239 77.5312 60.2598 77.5312 60.5469C77.5312 60.834 77.439 61.0698 77.2544 61.2544C77.0698 61.439 76.834 61.5312 76.5469 61.5312ZM26.3438 53.6562H53.9062V55.625H26.3438V53.6562Z" fill="#70A8FF"/>
</g>
<defs>
<clipPath id="clip0_59_1448">
<rect width="63" height="63" fill="white" transform="matrix(1 0 0 -1 16.5 63.5)"/>
</clipPath>
</defs>
</svg>
