<svg xmlns="http://www.w3.org/2000/svg" viewBox="0 0 60 30">
  <defs>
    <clipPath id="us">
      <rect width="60" height="30"/>
    </clipPath>
  </defs>
  <g clip-path="url(#us)">
    <rect width="60" height="30" fill="#B22234"/>
    <rect width="60" height="2.31" y="0" fill="#FFFFFF"/>
    <rect width="60" height="2.31" y="4.62" fill="#FFFFFF"/>
    <rect width="60" height="2.31" y="9.23" fill="#FFFFFF"/>
    <rect width="60" height="2.31" y="13.85" fill="#FFFFFF"/>
    <rect width="60" height="2.31" y="18.46" fill="#FFFFFF"/>
    <rect width="60" height="2.31" y="23.08" fill="#FFFFFF"/>
    <rect width="60" height="2.31" y="27.69" fill="#FFFFFF"/>
    <rect width="24" height="16.15" fill="#3C3B6E"/>
    <g fill="#FFFFFF">
      <circle cx="3" cy="2" r="0.5"/>
      <circle cx="7" cy="2" r="0.5"/>
      <circle cx="11" cy="2" r="0.5"/>
      <circle cx="15" cy="2" r="0.5"/>
      <circle cx="19" cy="2" r="0.5"/>
      <circle cx="5" cy="4" r="0.5"/>
      <circle cx="9" cy="4" r="0.5"/>
      <circle cx="13" cy="4" r="0.5"/>
      <circle cx="17" cy="4" r="0.5"/>
      <circle cx="21" cy="4" r="0.5"/>
      <circle cx="3" cy="6" r="0.5"/>
      <circle cx="7" cy="6" r="0.5"/>
      <circle cx="11" cy="6" r="0.5"/>
      <circle cx="15" cy="6" r="0.5"/>
      <circle cx="19" cy="6" r="0.5"/>
      <circle cx="5" cy="8" r="0.5"/>
      <circle cx="9" cy="8" r="0.5"/>
      <circle cx="13" cy="8" r="0.5"/>
      <circle cx="17" cy="8" r="0.5"/>
      <circle cx="21" cy="8" r="0.5"/>
      <circle cx="3" cy="10" r="0.5"/>
      <circle cx="7" cy="10" r="0.5"/>
      <circle cx="11" cy="10" r="0.5"/>
      <circle cx="15" cy="10" r="0.5"/>
      <circle cx="19" cy="10" r="0.5"/>
      <circle cx="5" cy="12" r="0.5"/>
      <circle cx="9" cy="12" r="0.5"/>
      <circle cx="13" cy="12" r="0.5"/>
      <circle cx="17" cy="12" r="0.5"/>
      <circle cx="21" cy="12" r="0.5"/>
      <circle cx="3" cy="14" r="0.5"/>
      <circle cx="7" cy="14" r="0.5"/>
      <circle cx="11" cy="14" r="0.5"/>
      <circle cx="15" cy="14" r="0.5"/>
      <circle cx="19" cy="14" r="0.5"/>
    </g>
  </g>
</svg>