<svg width="214" height="48" viewBox="0 0 214 48" fill="none" xmlns="http://www.w3.org/2000/svg">
<path d="M30.9155 23.0302H23.03C23.03 10.3314 33.3614 3.05176e-05 46.0602 3.05176e-05V7.88546C37.7084 7.88689 30.9155 14.6798 30.9155 23.0302Z" fill="white"/>
<path d="M7.88566 48H0.000244141V23.0302C0.000244141 10.3313 10.3316 0 23.0304 0V7.88543C14.68 7.88543 7.88566 14.6798 7.88566 23.0302V48Z" fill="white"/>
<path d="M7.88542 48H0C0 35.3012 10.3313 24.9698 23.0302 24.9698V32.8553C14.6784 32.8567 7.88542 39.6497 7.88542 48Z" fill="white"/>
<path d="M23.0286 40.1146V48C35.7274 48 46.0587 37.6687 46.0587 24.9698H38.1733C38.1733 33.3216 31.3803 40.1146 23.0286 40.1146Z" fill="white"/>
<path fill-rule="evenodd" clip-rule="evenodd" d="M136.871 34.9817C137.901 35.3867 139.052 35.5902 140.322 35.5902C141.967 35.5902 143.408 35.2479 144.648 34.5576C145.888 33.8712 146.856 32.888 147.554 31.6064C148.252 30.3266 148.6 28.811 148.6 27.0616V12.4098H145.008V21.6877H144.977C144.644 21.1248 144.207 20.6361 143.665 20.2196C143.123 19.8032 142.519 19.4818 141.853 19.2517C141.187 19.0216 140.478 18.9075 139.729 18.9075C138.229 18.9075 136.895 19.246 135.73 19.923C134.562 20.6 133.651 21.5431 132.995 22.7507C132.341 23.9582 132.012 25.3749 132.012 26.9988C132.012 28.2691 132.204 29.431 132.59 30.4825C132.976 31.536 133.528 32.4469 134.247 33.217C134.965 33.9872 135.84 34.5748 136.871 34.9817ZM142.743 31.8574C142.045 32.3043 141.239 32.5286 140.322 32.5286C139.427 32.5286 138.62 32.3062 137.9 31.8574C137.181 31.4086 136.624 30.7887 136.228 29.9976C135.833 29.2066 135.635 28.29 135.635 27.2479C135.635 26.2287 135.833 25.3216 136.228 24.5305C136.624 23.7395 137.177 23.1139 137.884 22.6556C138.592 22.1992 139.394 21.9691 140.29 21.9691C141.227 21.9691 142.045 22.1935 142.743 22.6404C143.441 23.0872 143.988 23.7072 144.384 24.4982C144.78 25.2912 144.977 26.2078 144.977 27.2479C144.977 28.29 144.78 29.2066 144.384 29.9976C143.987 30.7906 143.441 31.4105 142.743 31.8574ZM89.5902 17.0649C88.9646 17.0649 88.4245 16.8367 87.9663 16.3784C87.508 15.9201 87.2798 15.3782 87.2798 14.7545C87.2798 14.1288 87.508 13.5888 87.9663 13.1305C88.4245 12.6722 88.9665 12.444 89.5902 12.444C90.2349 12.444 90.7825 12.6741 91.2313 13.1305C91.6782 13.5888 91.9026 14.1307 91.9026 14.7545C91.9026 15.3801 91.6782 15.9201 91.2313 16.3784C90.7806 16.8367 90.2349 17.0649 89.5902 17.0649ZM87.8084 35.2156V19.2841H91.4005V35.2156H87.8084ZM59.9419 19.3772V35.2156V35.2175H63.6899V26.6584H72.7187V23.3782H63.6899V19.3791C63.6899 18.609 63.9448 17.9567 64.4563 17.4262C64.9659 16.8956 65.6182 16.6294 66.4092 16.6294H73.8121V13.3492H66.0023C64.8575 13.3492 63.8307 13.6154 62.9255 14.1459C62.0184 14.6765 61.2958 15.3953 60.7539 16.3004C60.2119 17.2056 59.9419 18.2325 59.9419 19.3772ZM76.9364 23.8137V35.2156H80.5304V23.9696C80.5304 23.4695 80.6712 23.0758 80.9526 22.783C81.234 22.492 81.6239 22.3456 82.124 22.3456H85.311V19.2841H81.4679C80.0512 19.2841 78.9407 19.6853 78.1401 20.4859C77.3377 21.2883 76.9364 22.397 76.9364 23.8137ZM99.0713 34.2001C100.414 34.8771 101.981 35.2156 103.772 35.2156H108.054V32.154H103.774C102.878 32.154 102.066 32.0133 101.338 31.7318C100.608 31.4504 100.005 31.034 99.5258 30.4825C99.0466 29.9311 98.7461 29.2389 98.6206 28.406H109.929C109.971 28.2595 110.002 28.0504 110.023 27.7803C110.043 27.5103 110.055 27.2707 110.055 27.0615C110.055 25.5403 109.789 24.1654 109.258 22.937C108.726 21.7086 107.908 20.7292 106.805 20.0009C105.7 19.2726 104.295 18.9075 102.587 18.9075C101.068 18.9075 99.7235 19.2631 98.5578 19.9705C97.3903 20.6779 96.4737 21.6572 95.8081 22.9066C95.1407 24.1559 94.8079 25.603 94.8079 27.2479C94.8079 28.811 95.1825 30.1897 95.9317 31.3877C96.681 32.5857 97.7288 33.5232 99.0713 34.2001ZM106.459 25.9681H98.5864C98.6491 25.4699 98.7689 24.9755 98.9439 24.483C99.1207 23.9943 99.3774 23.5569 99.7102 23.1709C100.043 22.7849 100.45 22.473 100.929 22.2334C101.408 21.9938 101.96 21.874 102.585 21.874C103.127 21.874 103.607 21.952 104.023 22.1079C104.439 22.2657 104.799 22.473 105.101 22.7335C105.402 22.994 105.653 23.3021 105.85 23.6558C106.048 24.0114 106.195 24.386 106.288 24.7815C106.381 25.1771 106.438 25.5726 106.459 25.9681ZM113.394 35.2156V26.0309C113.394 24.656 113.706 23.4333 114.331 22.3608C114.957 21.2883 115.841 20.444 116.986 19.8298C118.131 19.2156 119.475 18.9075 121.015 18.9075C122.556 18.9075 123.894 19.2156 125.03 19.8298C126.165 20.444 127.045 21.2883 127.669 22.3608C128.295 23.4333 128.607 24.6579 128.607 26.0309V35.2156H125.045V26.0632C125.045 25.2512 124.857 24.5381 124.482 23.9239C124.107 23.3097 123.613 22.8305 122.999 22.4863C122.385 22.1421 121.713 21.971 120.983 21.971C120.276 21.971 119.614 22.1421 119 22.4863C118.386 22.8305 117.895 23.3097 117.532 23.9239C117.167 24.5381 116.984 25.2512 116.984 26.0632V35.2156H113.394Z" fill="white"/>
<path fill-rule="evenodd" clip-rule="evenodd" d="M192.835 35.2137V22.3456H190.054V19.284H192.835V16.9413C192.835 15.5246 193.236 14.4159 194.036 13.6135C194.837 12.8129 195.947 12.4098 197.364 12.4098H201.612V15.4713H198.02C197.541 15.4713 197.155 15.6178 196.864 15.9087C196.571 16.2015 196.427 16.5952 196.427 17.0953V19.2821H200.956V22.3437H196.429V35.2137H192.835ZM152.848 31.9353V35.2137H162.723C163.909 35.2137 164.978 34.9379 165.925 34.3865C166.872 33.835 167.623 33.0535 168.175 32.0437C168.726 31.034 169.002 29.8322 169.002 28.4364C169.002 27.2498 168.736 26.1982 168.205 25.2817C167.675 24.367 166.924 23.6482 165.956 23.1272C164.988 22.6061 163.837 22.3456 162.504 22.3456H158.505C157.963 22.3456 157.478 22.2163 157.052 21.9558C156.624 21.6953 156.292 21.353 156.052 20.9251C155.813 20.4973 155.693 20.0238 155.693 19.5027C155.693 19.0026 155.813 18.5348 156.052 18.0974C156.292 17.6601 156.63 17.3045 157.068 17.0345C157.505 16.7644 157.994 16.6294 158.536 16.6294H167.595V13.3492H158.191C157.003 13.3492 155.942 13.6192 155.004 14.1611C154.069 14.7031 153.329 15.4485 152.787 16.3955C152.245 17.3425 151.975 18.4416 151.975 19.691C151.975 20.9403 152.257 22.0223 152.819 22.9389C153.38 23.8555 154.147 24.5686 155.115 25.0782C156.083 25.5878 157.182 25.8426 158.41 25.8426H162.316C162.898 25.8426 163.413 25.9795 163.862 26.2496C164.309 26.5196 164.659 26.8847 164.908 27.343C165.157 27.8013 165.282 28.3109 165.282 28.8738C165.282 29.3948 165.153 29.8892 164.893 30.357C164.63 30.8267 164.276 31.207 163.83 31.498C163.381 31.7908 162.854 31.9353 162.251 31.9353H152.848ZM175.591 34.4816C176.861 35.2194 178.32 35.5902 179.965 35.5902C181.591 35.5902 183.038 35.2213 184.306 34.4816C185.576 33.7418 186.58 32.7435 187.32 31.4827C188.058 30.2239 188.429 28.811 188.429 27.2498C188.429 25.6886 188.06 24.2776 187.32 23.0169C186.58 21.758 185.576 20.7578 184.306 20.018C183.036 19.2802 181.589 18.9094 179.965 18.9094C178.32 18.9094 176.861 19.2783 175.591 20.018C174.321 20.7578 173.317 21.7561 172.577 23.0169C171.837 24.2776 171.468 25.6886 171.468 27.2498C171.468 28.811 171.837 30.222 172.577 31.4827C173.315 32.7435 174.321 33.7418 175.591 34.4816ZM182.526 31.825C181.798 32.2947 180.944 32.5286 179.965 32.5286C178.966 32.5286 178.107 32.2947 177.388 31.825C176.669 31.3573 176.108 30.7221 175.701 29.9196C175.296 29.1172 175.093 28.2272 175.093 27.2479C175.093 26.2477 175.294 25.352 175.701 24.561C176.106 23.7699 176.669 23.1386 177.388 22.6708C178.105 22.2011 178.965 21.9672 179.965 21.9672C180.944 21.9672 181.798 22.203 182.526 22.6708C183.255 23.1386 183.817 23.7756 184.213 24.5762C184.608 25.3786 184.806 26.2686 184.806 27.2479C184.806 28.2481 184.608 29.1438 184.213 29.9349C183.817 30.7259 183.255 31.3573 182.526 31.825ZM202.613 19.284V22.3456H205.36V30.686C205.36 32.0798 205.762 33.1847 206.564 33.9967C207.367 34.8086 208.475 35.2156 209.892 35.2156H213.859V32.154H210.516C210.036 32.154 209.65 32.0038 209.359 31.7014C209.067 31.3991 208.922 31.0093 208.922 30.5301V22.3456H213.891V19.284H208.922V15.285H205.36V19.284H202.613Z" fill="white"/>
</svg>