<svg width="24" height="20" viewBox="0 0 24 20" fill="none" xmlns="http://www.w3.org/2000/svg">
<path d="M21.8906 0.859375H2.10938C1.95312 0.859375 1.79688 0.878906 1.64062 0.917969C1.48438 0.957031 1.33594 1.00781 1.19531 1.07031L11.9531 11.8281L14.3672 9.50781L22.8047 1.07031C22.6641 1.00781 22.5156 0.957031 22.3594 0.917969C22.2031 0.878906 22.0469 0.859375 21.8906 0.859375ZM23.7891 2.05469L15.8438 10L23.7891 17.9453C23.8516 17.8047 23.9023 17.6562 23.9414 17.5C23.9805 17.3438 24 17.1875 24 17.0312V2.96875C24 2.8125 23.9805 2.65625 23.9414 2.5C23.9023 2.34375 23.8516 2.19531 23.7891 2.05469ZM0.210938 2.05469C0.148438 2.19531 0.0976562 2.34375 0.0585938 2.5C0.0195312 2.65625 0 2.8125 0 2.96875V17.0312C0 17.1875 0.0195312 17.3438 0.0585938 17.5C0.0976562 17.6562 0.148438 17.8047 0.210938 17.9453L8.15625 10L0.210938 2.05469ZM14.8594 10.9844L12.4453 13.3047C12.3828 13.3828 12.3086 13.4375 12.2227 13.4688C12.1367 13.5 12.0469 13.5156 11.9531 13.5156C11.8594 13.5156 11.7695 13.5 11.6836 13.4688C11.5977 13.4375 11.5234 13.3828 11.4609 13.3047L9.14062 10.9844L1.19531 18.9297C1.33594 18.9922 1.48438 19.043 1.64062 19.082C1.79688 19.1211 1.95312 19.1406 2.10938 19.1406H21.8906C22.0469 19.1406 22.2031 19.1211 22.3594 19.082C22.5156 19.043 22.6641 18.9922 22.8047 18.9297L14.8594 10.9844Z" fill="#6653E8"/>
</svg>
