<svg width="24" height="24" viewBox="0 0 24 24" fill="none" xmlns="http://www.w3.org/2000/svg">
<path d="M18.2557 15.8633C17.8495 15.4883 17.4198 15.3008 16.9667 15.3008C16.5136 15.3008 16.0917 15.4883 15.7011 15.8633C15.4042 16.1602 15.1073 16.457 14.8104 16.7539C14.5136 17.0508 14.2167 17.3477 13.9198 17.6445C13.8417 17.7383 13.7675 17.793 13.6972 17.8086C13.6268 17.8242 13.5448 17.8008 13.4511 17.7383C13.2479 17.6289 13.0487 17.5273 12.8534 17.4336C12.6581 17.3398 12.4667 17.2383 12.2792 17.1289C11.4198 16.582 10.6229 15.9688 9.88856 15.2891C9.15419 14.6094 8.46669 13.8711 7.82606 13.0742C7.51356 12.6992 7.22059 12.3008 6.94715 11.8789C6.67372 11.457 6.43544 11.0117 6.23231 10.543C6.20106 10.4492 6.18934 10.3672 6.19715 10.2969C6.20497 10.2266 6.24794 10.1523 6.32606 10.0742C6.62294 9.77734 6.9159 9.48438 7.20497 9.19531C7.49403 8.90625 7.787 8.61328 8.08387 8.31641C8.49012 7.91016 8.69325 7.47656 8.69325 7.01562C8.69325 6.55469 8.49012 6.12109 8.08387 5.71484C7.8495 5.48047 7.61512 5.24609 7.38075 5.01172C7.14637 4.77734 6.912 4.54297 6.67762 4.30859C6.44325 4.07422 6.20887 3.83594 5.9745 3.59375C5.74012 3.35156 5.49794 3.11328 5.24794 2.87891C4.85731 2.48828 4.43544 2.29297 3.98231 2.29297C3.52919 2.29297 3.10731 2.48828 2.71669 2.87891C2.40419 3.17578 2.1034 3.47266 1.81434 3.76953C1.52528 4.06641 1.23231 4.36328 0.935436 4.66016C0.638561 4.92578 0.419811 5.21875 0.279186 5.53906C0.138561 5.85938 0.0526234 6.21484 0.0213734 6.60547C-0.0255016 7.23047 0.0135609 7.83594 0.138561 8.42188C0.263561 9.00781 0.435436 9.58984 0.654186 10.168C1.09169 11.3555 1.63856 12.4766 2.29481 13.5312C2.95106 14.5859 3.68544 15.5977 4.49794 16.5664C5.04481 17.2227 5.61512 17.8398 6.20887 18.418C6.81825 18.9961 7.45106 19.543 8.10731 20.0586C8.76356 20.5742 9.44325 21.0508 10.1464 21.4883C10.8651 21.9414 11.6073 22.3555 12.3729 22.7305C13.0604 23.0586 13.7636 23.3398 14.4823 23.5742C15.2011 23.8086 15.9511 23.9492 16.7323 23.9961C17.2636 24.0273 17.7597 23.9648 18.2206 23.8086C18.6815 23.6523 19.0995 23.3633 19.4745 22.9414C19.7245 22.6602 19.9901 22.3867 20.2714 22.1211C20.5526 21.8555 20.8261 21.582 21.0917 21.3008C21.4979 20.9102 21.7011 20.4844 21.7011 20.0234C21.7011 19.5625 21.4979 19.1289 21.0917 18.7227C20.6229 18.2539 20.1503 17.7812 19.6737 17.3047C19.1972 16.8281 18.7245 16.3477 18.2557 15.8633ZM17.2948 11.9023L19.1229 11.5742C18.9823 10.7305 18.7167 9.92969 18.3261 9.17188C17.9354 8.41406 17.4354 7.73047 16.8261 7.12109C16.1854 6.48047 15.4667 5.96484 14.6698 5.57422C13.8729 5.18359 13.0292 4.92578 12.1386 4.80078L11.8807 6.65234C12.5682 6.74609 13.2206 6.94531 13.8378 7.25C14.455 7.55469 15.0136 7.95703 15.5136 8.45703C15.9823 8.92578 16.369 9.45312 16.6737 10.0391C16.9784 10.625 17.1854 11.2461 17.2948 11.9023ZM20.1776 3.88672C19.6464 3.35547 19.0761 2.87109 18.4667 2.43359C17.8729 1.99609 17.2479 1.61719 16.5917 1.29688C15.9354 0.976562 15.2557 0.707031 14.5526 0.488281C13.8495 0.269531 13.1229 0.105467 12.3729 -0.00390625L12.1151 1.84766C12.7557 1.94141 13.3807 2.08203 13.9901 2.26953C14.5995 2.45703 15.1893 2.69141 15.7597 2.97266C16.33 3.25391 16.8729 3.58203 17.3886 3.95703C17.9042 4.33203 18.3964 4.74609 18.8651 5.19922C19.7245 6.07422 20.4354 7.05078 20.9979 8.12891C21.5604 9.20703 21.9432 10.3555 22.1464 11.5742L23.9979 11.2695C23.8729 10.5664 23.7011 9.87891 23.4823 9.20703C23.2636 8.53516 22.9901 7.89062 22.662 7.27344C22.3339 6.65625 21.9667 6.06641 21.5604 5.50391C21.1386 4.92578 20.6776 4.38672 20.1776 3.88672Z" fill="#6653E8"/>
</svg>
