<svg width="18" height="24" viewBox="0 0 18 24" fill="none" xmlns="http://www.w3.org/2000/svg">
<path d="M9 0C7.76562 0 6.60156 0.234375 5.50781 0.703125C4.41406 1.17188 3.45703 1.81641 2.63672 2.63672C1.81641 3.45703 1.17188 4.41406 0.703125 5.50781C0.234375 6.60156 0 7.76562 0 9C0 10.6562 0.4375 12.3516 1.3125 14.0859C2.17188 15.8047 3.13281 17.375 4.19531 18.7969C5.25781 20.2188 6.24219 21.3984 7.14844 22.3359C8.07031 23.2734 8.57031 23.7812 8.64844 23.8594C8.69531 23.9062 8.75 23.9414 8.8125 23.9648C8.875 23.9883 8.9375 24 9 24C9.0625 24 9.125 23.9883 9.1875 23.9648C9.25 23.9414 9.30469 23.9062 9.35156 23.8594C9.42969 23.7812 9.92969 23.2734 10.8516 22.3359C11.7578 21.3984 12.7422 20.2188 13.8047 18.7969C14.8672 17.375 15.8281 15.8047 16.6875 14.0859C17.5625 12.3516 18 10.6562 18 9C18 7.76562 17.7656 6.60156 17.2969 5.50781C16.8281 4.41406 16.1836 3.45703 15.3633 2.63672C14.543 1.81641 13.5859 1.17188 12.4922 0.703125C11.3984 0.234375 10.2344 0 9 0ZM9 13.9922C8.3125 13.9922 7.66406 13.8672 7.05469 13.6172C6.44531 13.3516 5.91406 12.9922 5.46094 12.5391C5.00781 12.0859 4.64844 11.5547 4.38281 10.9453C4.13281 10.3359 4.00781 9.6875 4.00781 9C4.00781 8.3125 4.13281 7.66406 4.38281 7.05469C4.64844 6.44531 5.00781 5.91406 5.46094 5.46094C5.91406 5.00781 6.44531 4.64844 7.05469 4.38281C7.66406 4.13281 8.3125 4.00781 9 4.00781C9.6875 4.00781 10.3359 4.13281 10.9453 4.38281C11.5547 4.64844 12.0859 5.00781 12.5391 5.46094C12.9922 5.91406 13.3516 6.44531 13.6172 7.05469C13.8672 7.66406 13.9922 8.3125 13.9922 9C13.9922 9.6875 13.8672 10.3359 13.6172 10.9453C13.3516 11.5547 12.9922 12.0859 12.5391 12.5391C12.0859 12.9922 11.5547 13.3516 10.9453 13.6172C10.3359 13.8672 9.6875 13.9922 9 13.9922Z" fill="#6653E8"/>
</svg>
