<svg width="15" height="14" viewBox="0 0 15 14" fill="none" xmlns="http://www.w3.org/2000/svg">
<path d="M7.5 4.00586C5.625 4.00586 4.13086 5.5293 4.13086 7.375C4.13086 9.25 5.625 10.7441 7.5 10.7441C9.3457 10.7441 10.8691 9.25 10.8691 7.375C10.8691 5.5293 9.3457 4.00586 7.5 4.00586ZM7.5 9.57227C6.29883 9.57227 5.30273 8.60547 5.30273 7.375C5.30273 6.17383 6.26953 5.20703 7.5 5.20703C8.70117 5.20703 9.66797 6.17383 9.66797 7.375C9.66797 8.60547 8.70117 9.57227 7.5 9.57227ZM11.7773 3.88867C11.7773 3.44922 11.4258 3.09766 10.9863 3.09766C10.5469 3.09766 10.1953 3.44922 10.1953 3.88867C10.1953 4.32812 10.5469 4.67969 10.9863 4.67969C11.4258 4.67969 11.7773 4.32812 11.7773 3.88867ZM14.0039 4.67969C13.9453 3.625 13.7109 2.6875 12.9492 1.92578C12.1875 1.16406 11.25 0.929688 10.1953 0.871094C9.11133 0.8125 5.85938 0.8125 4.77539 0.871094C3.7207 0.929688 2.8125 1.16406 2.02148 1.92578C1.25977 2.6875 1.02539 3.625 0.966797 4.67969C0.908203 5.76367 0.908203 9.01562 0.966797 10.0996C1.02539 11.1543 1.25977 12.0625 2.02148 12.8535C2.8125 13.6152 3.7207 13.8496 4.77539 13.9082C5.85938 13.9668 9.11133 13.9668 10.1953 13.9082C11.25 13.8496 12.1875 13.6152 12.9492 12.8535C13.7109 12.0625 13.9453 11.1543 14.0039 10.0996C14.0625 9.01562 14.0625 5.76367 14.0039 4.67969ZM12.5977 11.2422C12.3926 11.8281 11.9238 12.2676 11.3672 12.502C10.4883 12.8535 8.4375 12.7656 7.5 12.7656C6.5332 12.7656 4.48242 12.8535 3.63281 12.502C3.04688 12.2676 2.60742 11.8281 2.37305 11.2422C2.02148 10.3926 2.10938 8.3418 2.10938 7.375C2.10938 6.4375 2.02148 4.38672 2.37305 3.50781C2.60742 2.95117 3.04688 2.51172 3.63281 2.27734C4.48242 1.92578 6.5332 2.01367 7.5 2.01367C8.4375 2.01367 10.4883 1.92578 11.3672 2.27734C11.9238 2.48242 12.3633 2.95117 12.5977 3.50781C12.9492 4.38672 12.8613 6.4375 12.8613 7.375C12.8613 8.3418 12.9492 10.3926 12.5977 11.2422Z" fill="#1F0951"/>
</svg>