<svg width="211" height="48" viewBox="0 0 211 48" fill="none" xmlns="http://www.w3.org/2000/svg">
<path d="M30.9157 23.0302H23.0303C23.0303 10.3314 33.3616 3.05176e-05 46.0605 3.05176e-05V7.88546C37.7087 7.88689 30.9157 14.6798 30.9157 23.0302Z" fill="url(#paint0_linear_59_4028)"/>
<path d="M7.88567 48H0.000244141V23.0302C0.000244141 10.3313 10.3316 0 23.0304 0V7.88543C14.6801 7.88543 7.88567 14.6798 7.88567 23.0302V48Z" fill="url(#paint1_linear_59_4028)"/>
<path d="M7.88542 48H0C0 35.3012 10.3313 24.9698 23.0302 24.9698V32.8553C14.6784 32.8567 7.88542 39.6497 7.88542 48Z" fill="url(#paint2_linear_59_4028)"/>
<path d="M23.0288 40.1146V48C35.7276 48 46.059 37.6687 46.059 24.9698H38.1736C38.1736 33.3216 31.3806 40.1146 23.0288 40.1146Z" fill="url(#paint3_linear_59_4028)"/>
<path fill-rule="evenodd" clip-rule="evenodd" d="M133.482 34.9817C134.512 35.3867 135.663 35.5902 136.933 35.5902C138.578 35.5902 140.019 35.2479 141.259 34.5576C142.499 33.8712 143.467 32.888 144.165 31.6064C144.863 30.3266 145.211 28.811 145.211 27.0616V12.4098H141.619V21.6877H141.588C141.255 21.1248 140.818 20.6361 140.276 20.2196C139.734 19.8032 139.129 19.4818 138.464 19.2517C137.798 19.0216 137.089 18.9075 136.34 18.9075C134.839 18.9075 133.506 19.246 132.341 19.923C131.173 20.6 130.262 21.5431 129.606 22.7507C128.952 23.9582 128.623 25.3749 128.623 26.9988C128.623 28.2691 128.815 29.431 129.201 30.4825C129.587 31.536 130.139 32.4469 130.857 33.217C131.576 33.9872 132.451 34.5748 133.482 34.9817ZM139.354 31.8574C138.656 32.3043 137.85 32.5286 136.933 32.5286C136.037 32.5286 135.231 32.3062 134.51 31.8574C133.792 31.4086 133.234 30.7887 132.839 29.9976C132.443 29.2066 132.246 28.29 132.246 27.2479C132.246 26.2287 132.443 25.3216 132.839 24.5305C133.234 23.7395 133.788 23.1139 134.495 22.6556C135.203 22.1992 136.005 21.9691 136.901 21.9691C137.838 21.9691 138.656 22.1935 139.354 22.6404C140.052 23.0872 140.599 23.7072 140.995 24.4982C141.39 25.2912 141.588 26.2078 141.588 27.2479C141.588 28.29 141.39 29.2066 140.995 29.9976C140.597 30.7906 140.052 31.4105 139.354 31.8574ZM86.2011 17.0649C85.5754 17.0649 85.0354 16.8367 84.5771 16.3784C84.1188 15.9201 83.8906 15.3782 83.8906 14.7545C83.8906 14.1288 84.1188 13.5888 84.5771 13.1305C85.0354 12.6722 85.5773 12.444 86.2011 12.444C86.8457 12.444 87.3934 12.6741 87.8421 13.1305C88.289 13.5888 88.5134 14.1307 88.5134 14.7545C88.5134 15.3801 88.289 15.9201 87.8421 16.3784C87.3915 16.8367 86.8457 17.0649 86.2011 17.0649ZM84.4193 35.2156V19.2841H88.0114V35.2156H84.4193ZM56.5527 19.3772V35.2156V35.2175H60.3008V26.6584H69.3295V23.3782H60.3008V19.3791C60.3008 18.609 60.5556 17.9567 61.0671 17.4262C61.5767 16.8956 62.229 16.6294 63.0201 16.6294H70.423V13.3492H62.6131C61.4684 13.3492 60.4415 13.6154 59.5363 14.1459C58.6293 14.6765 57.9067 15.3953 57.3647 16.3004C56.8228 17.2056 56.5527 18.2325 56.5527 19.3772ZM73.5473 23.8137V35.2156H77.1413V23.9696C77.1413 23.4695 77.282 23.0758 77.5634 22.783C77.8449 22.492 78.2347 22.3456 78.7348 22.3456H81.9219V19.2841H78.0788C76.6621 19.2841 75.5515 19.6853 74.751 20.4859C73.9485 21.2883 73.5473 22.397 73.5473 23.8137ZM95.6821 34.2001C97.0246 34.8771 98.5916 35.2156 100.383 35.2156H104.665V32.154H100.385C99.4891 32.154 98.6771 32.0133 97.9488 31.7318C97.2186 31.4504 96.6158 31.034 96.1366 30.4825C95.6574 29.9311 95.3569 29.2389 95.2314 28.406H106.54C106.582 28.2595 106.612 28.0504 106.633 27.7803C106.654 27.5103 106.666 27.2707 106.666 27.0615C106.666 25.5403 106.399 24.1654 105.869 22.937C105.337 21.7086 104.519 20.7292 103.416 20.0009C102.311 19.2726 100.906 18.9075 99.1982 18.9075C97.6788 18.9075 96.3344 19.2631 95.1687 19.9705C94.0011 20.6779 93.0845 21.6572 92.419 22.9066C91.7515 24.1559 91.4187 25.603 91.4187 27.2479C91.4187 28.811 91.7934 30.1897 92.5426 31.3877C93.2918 32.5857 94.3396 33.5232 95.6821 34.2001ZM103.07 25.9681H95.1972C95.26 25.4699 95.3798 24.9755 95.5547 24.483C95.7316 23.9943 95.9883 23.5569 96.3211 23.1709C96.6538 22.7849 97.0608 22.473 97.54 22.2334C98.0192 21.9938 98.5706 21.874 99.1963 21.874C99.7382 21.874 100.217 21.952 100.634 22.1079C101.05 22.2657 101.41 22.473 101.712 22.7335C102.013 22.994 102.264 23.3021 102.461 23.6558C102.659 24.0114 102.805 24.386 102.899 24.7815C102.992 25.1771 103.049 25.5726 103.07 25.9681ZM110.005 35.2156V26.0309C110.005 24.656 110.317 23.4333 110.942 22.3608C111.568 21.2883 112.452 20.444 113.597 19.8298C114.742 19.2156 116.086 18.9075 117.626 18.9075C119.167 18.9075 120.505 19.2156 121.641 19.8298C122.776 20.444 123.656 21.2883 124.28 22.3608C124.906 23.4333 125.217 24.6579 125.217 26.0309V35.2156H121.656V26.0632C121.656 25.2512 121.467 24.5381 121.093 23.9239C120.718 23.3097 120.224 22.8305 119.61 22.4863C118.995 22.1421 118.324 21.971 117.594 21.971C116.887 21.971 116.225 22.1421 115.611 22.4863C114.996 22.8305 114.506 23.3097 114.143 23.9239C113.777 24.5381 113.595 25.2512 113.595 26.0632V35.2156H110.005Z" fill="#1F0951"/>
<path fill-rule="evenodd" clip-rule="evenodd" d="M189.445 35.2137V22.3456H186.665V19.284H189.445V16.9413C189.445 15.5246 189.847 14.4159 190.647 13.6135C191.448 12.8129 192.558 12.4098 193.975 12.4098H198.223V15.4713H194.631C194.152 15.4713 193.766 15.6178 193.475 15.9087C193.182 16.2015 193.038 16.5952 193.038 17.0953V19.2821H197.567V22.3437H193.039V35.2137H189.445ZM149.459 31.9353V35.2137H159.334C160.52 35.2137 161.589 34.9379 162.536 34.3865C163.483 33.835 164.234 33.0535 164.786 32.0437C165.337 31.034 165.613 29.8322 165.613 28.4364C165.613 27.2498 165.347 26.1982 164.816 25.2817C164.286 24.367 163.534 23.6482 162.567 23.1272C161.599 22.6061 160.448 22.3456 159.115 22.3456H155.116C154.574 22.3456 154.089 22.2163 153.663 21.9558C153.235 21.6953 152.903 21.353 152.663 20.9251C152.423 20.4973 152.304 20.0238 152.304 19.5027C152.304 19.0026 152.423 18.5348 152.663 18.0974C152.903 17.6601 153.241 17.3045 153.679 17.0345C154.116 16.7644 154.605 16.6294 155.147 16.6294H164.206V13.3492H154.802C153.614 13.3492 152.553 13.6192 151.615 14.1611C150.68 14.7031 149.94 15.4485 149.398 16.3955C148.856 17.3425 148.586 18.4416 148.586 19.691C148.586 20.9403 148.867 22.0223 149.43 22.9389C149.991 23.8555 150.758 24.5686 151.726 25.0782C152.694 25.5878 153.793 25.8426 155.021 25.8426H158.927C159.509 25.8426 160.024 25.9795 160.473 26.2496C160.92 26.5196 161.27 26.8847 161.519 27.343C161.768 27.8013 161.893 28.3109 161.893 28.8738C161.893 29.3948 161.764 29.8892 161.504 30.357C161.241 30.8267 160.887 31.207 160.441 31.498C159.992 31.7908 159.465 31.9353 158.862 31.9353H149.459ZM172.202 34.4816C173.472 35.2194 174.931 35.5902 176.576 35.5902C178.202 35.5902 179.649 35.2213 180.917 34.4816C182.187 33.7418 183.191 32.7435 183.931 31.4827C184.669 30.2239 185.04 28.811 185.04 27.2498C185.04 25.6886 184.671 24.2776 183.931 23.0169C183.191 21.758 182.187 20.7578 180.917 20.018C179.647 19.2802 178.2 18.9094 176.576 18.9094C174.931 18.9094 173.472 19.2783 172.202 20.018C170.932 20.7578 169.928 21.7561 169.188 23.0169C168.448 24.2776 168.079 25.6886 168.079 27.2498C168.079 28.811 168.448 30.222 169.188 31.4827C169.926 32.7435 170.932 33.7418 172.202 34.4816ZM179.137 31.825C178.409 32.2947 177.555 32.5286 176.576 32.5286C175.577 32.5286 174.718 32.2947 173.999 31.825C173.28 31.3573 172.719 30.7221 172.312 29.9196C171.907 29.1172 171.704 28.2272 171.704 27.2479C171.704 26.2477 171.905 25.352 172.312 24.561C172.717 23.7699 173.28 23.1386 173.999 22.6708C174.716 22.2011 175.575 21.9672 176.576 21.9672C177.555 21.9672 178.409 22.203 179.137 22.6708C179.865 23.1386 180.428 23.7756 180.824 24.5762C181.219 25.3786 181.417 26.2686 181.417 27.2479C181.417 28.2481 181.219 29.1438 180.824 29.9349C180.428 30.7259 179.865 31.3573 179.137 31.825ZM199.224 19.284V22.3456H201.971V30.686C201.971 32.0798 202.373 33.1847 203.175 33.9967C203.978 34.8086 205.086 35.2156 206.503 35.2156H210.47V32.154H207.127C206.647 32.154 206.261 32.0038 205.97 31.7014C205.678 31.3991 205.533 31.0093 205.533 30.5301V22.3456H210.502V19.284H205.533V15.285H201.971V19.284H199.224Z" fill="#1F0951"/>
<defs>
<linearGradient id="paint0_linear_59_4028" x1="58.1617" y1="-30.2991" x2="33.0164" y2="15.2651" gradientUnits="userSpaceOnUse">
<stop stop-color="#70A7FF"/>
<stop offset="0.3341" stop-color="#6FA4FF"/>
<stop offset="0.5363" stop-color="#6C9CFF"/>
<stop offset="0.7034" stop-color="#678EFE"/>
<stop offset="0.8513" stop-color="#6079FD"/>
<stop offset="0.9854" stop-color="#575FFC"/>
<stop offset="1" stop-color="#565CFC"/>
</linearGradient>
<linearGradient id="paint1_linear_59_4028" x1="23.2544" y1="3.36715" x2="1.32309" y2="35.8859" gradientUnits="userSpaceOnUse">
<stop stop-color="#BC77EF"/>
<stop offset="0.3485" stop-color="#A061E4"/>
<stop offset="0.7587" stop-color="#854BD9"/>
<stop offset="1" stop-color="#7B43D5"/>
</linearGradient>
<linearGradient id="paint2_linear_59_4028" x1="18.2009" y1="7.85629" x2="9.69303" y2="47.7485" gradientUnits="userSpaceOnUse">
<stop stop-color="#BC77EF"/>
<stop offset="0.2225" stop-color="#B672ED"/>
<stop offset="0.5109" stop-color="#A665E6"/>
<stop offset="0.8342" stop-color="#8C50DC"/>
<stop offset="1" stop-color="#7B43D5"/>
</linearGradient>
<linearGradient id="paint3_linear_59_4028" x1="48.466" y1="25.3687" x2="27.1649" y2="42.5104" gradientUnits="userSpaceOnUse">
<stop stop-color="#70A7FF"/>
<stop offset="1" stop-color="#565CFC"/>
</linearGradient>
</defs>
</svg>